<?xml version="1.0" standalone="no"?>
<!DOCTYPE svg PUBLIC "-//W3C//DTD SVG 20010904//EN"
 "http://www.w3.org/TR/2001/REC-SVG-20010904/DTD/svg10.dtd">
<svg version="1.0" xmlns="http://www.w3.org/2000/svg"
 width="80.000000pt" height="80.000000pt" viewBox="0 0 80.000000 80.000000"
 preserveAspectRatio="xMidYMid meet">

<g transform="translate(0.000000,80.000000) scale(0.100000,-0.100000)"
fill="#000000" stroke="none">
<path d="M343 760 c-27 -16 -31 -16 -26 -3 4 11 2 14 -8 11 -9 -3 -13 -17 -11
-39 3 -42 14 -54 39 -40 11 5 42 9 69 8 39 -2 49 -6 52 -21 3 -13 0 -17 -9
-14 -20 8 -59 -9 -59 -26 0 -7 7 -17 16 -20 19 -7 47 12 38 25 -3 5 1 9 9 9
23 0 32 -108 12 -130 -9 -10 -12 -21 -7 -24 5 -3 13 4 16 17 7 21 7 21 16 2 6
-15 9 -8 9 28 1 30 -3 46 -9 42 -5 -3 -10 -1 -10 4 0 6 4 11 8 11 5 0 10 31
11 69 3 89 -13 111 -79 111 -27 0 -58 -8 -77 -20z"/>
<path d="M147 685 c-52 -51 -50 -60 19 -68 l39 -5 3 54 c4 66 -9 70 -61 19z"/>
<path d="M342 638 c6 -18 28 -21 28 -4 0 9 -7 16 -16 16 -9 0 -14 -5 -12 -12z"/>
<path d="M302 620 c0 -14 2 -19 5 -12 2 6 2 18 0 25 -3 6 -5 1 -5 -13z"/>
<path d="M403 592 c-16 -10 -13 -52 4 -52 18 0 26 19 14 34 -6 7 -8 16 -4 19
9 9 1 8 -14 -1z"/>
<path d="M300 548 c0 -31 -3 -39 -11 -31 -6 6 -18 9 -25 6 -8 -3 -14 0 -14 6
0 6 -3 10 -7 9 -5 0 -15 1 -23 4 -43 14 -153 37 -160 33 -20 -12 -43 -137 -37
-203 8 -99 77 -245 77 -164 0 29 24 61 32 45 3 -4 4 -3 2 3 -1 6 13 35 32 65
18 30 34 59 34 65 0 18 54 61 93 74 29 9 37 17 37 36 0 13 -4 24 -8 24 -4 0
-6 16 -4 35 3 21 0 35 -7 35 -6 0 -11 -18 -11 -42z"/>
<path d="M425 515 c-27 -22 -28 -25 -9 -25 13 0 25 10 32 25 14 30 14 30 -23
0z"/>
<path d="M476 483 c-3 -3 2 -12 12 -19 19 -15 32 -18 32 -6 0 11 -37 32 -44
25z"/>
<path d="M450 449 c0 -5 5 -7 10 -4 6 3 10 8 10 11 0 2 -4 4 -10 4 -5 0 -10
-5 -10 -11z"/>
<path d="M415 430 c-3 -5 1 -10 9 -10 9 0 16 5 16 10 0 6 -4 10 -9 10 -6 0
-13 -4 -16 -10z"/>
<path d="M618 385 c3 -36 0 -55 -8 -55 -7 0 -9 -12 -5 -32 6 -39 -9 -72 -24
-49 -5 8 -14 10 -21 6 -10 -6 -9 -11 4 -20 12 -9 19 -34 23 -84 3 -39 9 -71
13 -71 4 0 19 10 34 21 27 21 27 22 21 123 -7 129 -14 181 -29 201 -9 12 -10
4 -8 -40z"/>
<path d="M315 420 c-3 -5 -1 -10 4 -10 6 0 11 5 11 10 0 6 -2 10 -4 10 -3 0
-8 -4 -11 -10z"/>
<path d="M225 351 c-3 -5 -1 -12 5 -16 5 -3 10 1 10 9 0 18 -6 21 -15 7z"/>
<path d="M545 340 c-3 -5 -2 -10 4 -10 5 0 13 5 16 10 3 6 2 10 -4 10 -5 0
-13 -4 -16 -10z"/>
<path d="M213 273 c0 -19 2 -22 9 -12 7 11 8 9 4 -4 -3 -10 -6 -21 -6 -23 0
-3 -4 -2 -10 1 -5 3 -10 2 -10 -4 0 -6 -8 -8 -17 -4 -13 4 -15 3 -8 -5 6 -5
27 -15 47 -20 43 -12 58 -1 34 24 -9 8 -16 22 -16 30 0 9 -6 22 -14 29 -11 12
-13 10 -13 -12z"/>
<path d="M585 289 c-4 -6 -5 -12 -2 -15 2 -3 7 2 10 11 7 17 1 20 -8 4z"/>
<path d="M315 270 c3 -5 8 -10 11 -10 2 0 4 5 4 10 0 6 -5 10 -11 10 -5 0 -7
-4 -4 -10z"/>
<path d="M417 200 c-3 -11 -1 -20 4 -20 5 0 9 9 9 20 0 11 -2 20 -4 20 -2 0
-6 -9 -9 -20z"/>
<path d="M504 173 c-10 -18 -22 -33 -26 -33 -5 0 -8 -7 -8 -15 0 -17 -16 -20
-25 -5 -3 6 -10 10 -15 10 -9 0 7 -23 38 -56 18 -19 36 -18 28 1 -3 8 -9 22
-12 30 -3 8 -2 15 4 15 5 0 12 9 15 20 3 11 10 20 15 20 15 0 24 -32 12 -44
-5 -5 -10 -23 -10 -38 0 -24 -17 -37 -33 -25 -2 1 -10 -3 -18 -10 -9 -7 -29
-9 -54 -5 -22 4 -51 7 -65 7 -14 0 -28 4 -32 10 -4 5 -11 6 -15 1 -36 -36 177
-47 217 -11 11 10 20 25 20 34 0 9 9 33 20 54 22 41 26 61 7 35 -15 -19 -33
-12 -39 17 -4 18 -7 16 -24 -12z"/>
<path d="M320 166 c-10 -20 -10 -28 4 -47 9 -13 16 -21 17 -19 4 28 3 90 -2
90 -3 0 -11 -11 -19 -24z"/>
<path d="M240 170 c0 -5 5 -10 10 -10 6 0 10 5 10 10 0 6 -4 10 -10 10 -5 0
-10 -4 -10 -10z"/>
<path d="M230 119 c0 -5 5 -7 10 -4 6 3 10 8 10 11 0 2 -4 4 -10 4 -5 0 -10
-5 -10 -11z"/>
<path d="M171 103 c25 -32 49 -43 49 -23 0 6 -7 10 -15 10 -8 0 -15 7 -15 15
0 8 -7 15 -16 15 -14 0 -15 -2 -3 -17z"/>
<path d="M266 95 c4 -8 12 -15 20 -15 20 0 17 7 -6 20 -16 9 -18 8 -14 -5z"/>
<path d="M404 98 c3 -7 9 -21 12 -30 8 -23 22 -23 20 0 -1 17 -19 42 -31 42
-4 0 -4 -6 -1 -12z"/>
<path d="M325 70 c3 -5 11 -10 16 -10 6 0 7 5 4 10 -3 6 -11 10 -16 10 -6 0
-7 -4 -4 -10z"/>
</g>
</svg>
