<?xml version="1.0" standalone="no"?>
<!DOCTYPE svg PUBLIC "-//W3C//DTD SVG 20010904//EN"
 "http://www.w3.org/TR/2001/REC-SVG-20010904/DTD/svg10.dtd">
<svg version="1.0" xmlns="http://www.w3.org/2000/svg"
 width="80.000000pt" height="80.000000pt" viewBox="0 0 80.000000 80.000000"
 preserveAspectRatio="xMidYMid meet">

<g transform="translate(0.000000,80.000000) scale(0.100000,-0.100000)"
fill="#000000" stroke="none">
<path d="M418 793 c7 -3 16 -2 19 1 4 3 -2 6 -13 5 -11 0 -14 -3 -6 -6z"/>
<path d="M276 768 c5 -7 -13 -12 -44 -11 -7 1 -11 -1 -8 -4 9 -9 -86 -73 -98
-66 -6 3 -8 3 -4 -1 4 -5 -10 -33 -31 -65 -21 -31 -42 -66 -46 -79 -3 -12 -10
-20 -14 -18 -4 3 -7 -45 -6 -107 2 -90 6 -121 23 -157 18 -39 21 -42 21 -19 1
33 36 79 61 79 32 0 50 -120 29 -199 -4 -14 66 -70 88 -71 6 0 16 14 22 31 8
25 7 42 -7 83 -17 52 -20 140 -7 209 8 39 5 42 -23 28 -34 -17 -127 -53 -142
-54 -14 -2 -16 9 -8 57 3 23 55 76 73 76 7 0 18 7 25 15 20 24 33 13 46 -36 7
-24 12 -34 13 -22 1 12 5 25 11 28 6 3 10 15 10 26 0 20 33 26 58 10 10 -6 8
-10 -8 -14 -13 -3 -19 -10 -15 -16 3 -6 11 -9 16 -6 5 4 9 1 9 -6 0 -8 3 -9
13 0 8 6 17 7 22 3 4 -4 6 -1 3 7 -3 12 45 71 58 71 4 0 3 -17 -14 -122 -6
-38 -5 -61 2 -68 7 -7 2 -10 -14 -11 -22 -1 -22 -2 5 -9 24 -5 26 -8 13 -13
-10 -4 -26 -10 -35 -14 -14 -5 -12 -7 11 -12 36 -7 44 -26 17 -42 -19 -13 -19
-14 11 -48 31 -36 26 -51 -11 -31 -17 8 -21 8 -21 -4 0 -8 16 -20 35 -26 42
-14 38 -29 -6 -22 l-32 5 7 -47 c9 -56 -8 -63 -29 -12 -21 49 -30 50 -42 5 -9
-33 -8 -39 6 -41 29 -3 221 -3 211 0 -6 2 13 15 41 29 42 21 50 29 45 47 -24
83 -10 168 30 183 25 9 54 -32 54 -76 l0 -36 24 30 c38 47 60 141 53 227 -11
129 -96 256 -207 309 -27 13 -47 26 -45 29 2 4 -54 7 -125 7 -71 0 -127 -4
-124 -9z m184 -323 c0 -8 9 -15 20 -15 24 0 27 -36 6 -65 -8 -11 -12 -24 -10
-30 5 -14 -13 -41 -22 -32 -4 4 -3 12 3 18 8 8 4 25 -14 60 -21 40 -23 51 -13
64 16 19 30 19 30 0z m-15 -225 c10 -11 16 -23 12 -26 -8 -9 -58 27 -51 37 8
14 19 11 39 -11z"/>
<path d="M300 370 c-8 -5 -12 -12 -9 -15 4 -3 12 1 19 10 14 17 11 19 -10 5z"/>
<path d="M326 335 c4 -8 8 -15 10 -15 2 0 4 7 4 15 0 8 -4 15 -10 15 -5 0 -7
-7 -4 -15z"/>
<path d="M293 276 c3 -7 0 -19 -6 -26 -10 -10 -7 -10 11 -1 19 10 21 15 11 27
-15 18 -23 18 -16 0z"/>
</g>
</svg>
