<?xml version="1.0" standalone="no"?>
<!DOCTYPE svg PUBLIC "-//W3C//DTD SVG 20010904//EN"
 "http://www.w3.org/TR/2001/REC-SVG-20010904/DTD/svg10.dtd">
<svg version="1.0" xmlns="http://www.w3.org/2000/svg"
 width="322.000000pt" height="560.000000pt" viewBox="0 0 322.000000 560.000000"
 preserveAspectRatio="xMidYMid meet">
<metadata>
Created by potrace 1.16, written by Peter Selinger 2001-2019
</metadata>
<g transform="translate(0.000000,560.000000) scale(0.100000,-0.100000)"
fill="#000000" stroke="none">
<path d="M0 2800 l0 -2800 1610 0 1610 0 0 2800 0 2800 -1610 0 -1610 0 0
-2800z m3044 2712 c35 -31 46 -76 46 -187 0 -101 -12 -137 -26 -80 -8 32 -30
27 -26 -5 2 -12 -2 -26 -8 -30 -9 -5 -9 -13 -2 -27 15 -27 5 -66 -13 -50 -6 6
-10 20 -7 30 3 10 -3 24 -14 31 -15 11 -16 17 -6 29 8 9 9 18 3 21 -5 4 -12 2
-16 -3 -3 -6 -12 -8 -19 -5 -19 7 -27 -22 -14 -52 9 -19 9 -33 1 -55 -9 -23
-9 -29 3 -29 21 0 17 -17 -7 -23 -14 -4 -23 1 -30 16 -10 23 -59 52 -59 36 0
-5 6 -12 14 -15 8 -3 12 -12 9 -20 -3 -8 -9 -11 -14 -8 -5 3 -7 9 -4 14 6 9
-22 35 -39 35 -6 0 -11 5 -11 10 0 6 5 9 11 7 8 -1 10 5 7 17 -4 16 -9 18 -36
10 -18 -5 -33 -9 -35 -9 -1 0 -2 46 -1 103 1 56 -2 141 -6 189 l-7 87 108 3
c113 3 160 -7 198 -40z m-1979 11 c11 -25 20 -29 31 -11 5 7 2 8 -7 3 -8 -4
-4 2 8 14 19 18 34 21 104 21 45 0 80 -3 76 -6 -3 -4 4 -15 16 -25 l22 -18
-27 -1 c-15 0 -39 -5 -55 -12 -15 -6 -34 -10 -41 -9 -7 1 -12 -2 -11 -6 5 -27
-3 -43 -20 -43 -11 0 -23 -5 -27 -11 -4 -8 0 -9 15 -4 24 7 28 -7 7 -24 -17
-14 -43 -5 -49 18 -3 12 -18 21 -41 25 -32 6 -52 26 -26 26 6 0 10 7 10 15 0
26 -19 16 -35 -17 -8 -18 -13 -25 -10 -15 2 9 0 17 -6 17 -16 0 -39 27 -40 47
-1 15 -2 15 -6 2 -3 -11 -11 -15 -24 -12 -10 3 -26 0 -34 -7 -9 -7 -22 -9 -32
-5 -10 5 -21 7 -25 7 -5 -1 -8 3 -8 9 0 7 -14 8 -41 4 -45 -8 -48 8 -5 25 20
8 20 9 1 9 -12 1 -28 -12 -40 -29 -14 -20 -26 -28 -37 -24 -13 4 -16 1 -12
-10 3 -9 9 -14 13 -11 4 2 5 -9 3 -25 -3 -20 -8 -27 -19 -23 -8 3 -12 12 -9
19 3 7 1 16 -4 19 -6 4 -10 15 -10 26 0 17 -3 18 -20 9 -16 -9 -20 -8 -20 5 0
8 -5 15 -12 15 -6 0 -8 -3 -5 -7 4 -3 -2 -13 -13 -20 -18 -12 -22 -12 -36 1
-17 18 -34 21 -34 6 0 -5 -12 -21 -26 -35 l-27 -27 20 -20 c19 -19 19 -22 5
-50 -11 -22 -12 -36 -5 -47 11 -17 31 -13 24 4 -13 36 -11 43 14 49 17 4 31 2
40 -8 19 -19 19 -26 0 -26 -21 0 -19 -27 3 -39 15 -9 15 -10 -5 -11 -13 0 -23
4 -23 10 0 24 -31 -6 -41 -41 -7 -21 -16 -39 -21 -39 -4 0 -3 -9 4 -20 16 -25
6 -35 -21 -20 -14 7 -21 7 -21 0 0 -5 -7 -10 -15 -10 -8 0 -15 -4 -15 -10 0
-5 5 -10 10 -10 15 0 12 -26 -6 -41 -12 -10 -17 -10 -23 0 -6 10 -10 8 -15 -5
-4 -9 -2 -22 4 -28 18 -18 11 -26 -14 -16 -15 5 -27 5 -35 -3 -8 -8 -11 -6
-11 7 0 13 5 17 20 13 16 -4 20 0 20 21 0 15 -5 34 -10 42 -8 12 -10 11 -10
-7 0 -35 -17 -27 -23 10 -13 82 -17 100 -22 105 -3 3 -6 -4 -6 -16 -2 -36 -4
-41 -15 -52 -12 -12 -6 -63 7 -55 4 3 7 -4 6 -15 -1 -15 -8 -20 -27 -20 -15 0
-30 3 -34 7 -3 4 -15 8 -26 10 -11 2 -28 4 -37 6 -10 1 -24 6 -31 11 -7 4 -30
5 -52 1 l-38 -6 -1 145 c-1 80 -2 149 -3 153 -9 37 34 102 87 131 14 8 155 11
470 9 l450 -2 10 -22z m1596 0 c3 -108 -3 -159 -20 -173 -10 -8 -21 -23 -25
-33 -7 -21 -53 -20 -48 1 4 21 -37 13 -49 -9 -6 -13 -14 -17 -18 -11 -3 5 -15
12 -26 14 -24 4 -35 17 -35 41 0 21 -37 60 -45 47 -3 -5 -14 -8 -25 -7 -14 1
-22 11 -26 34 -5 28 -9 31 -25 22 -14 -7 -19 -6 -19 4 0 13 -24 28 -63 41 -10
3 -28 1 -39 -5 -15 -8 -22 -8 -28 1 -4 6 -18 13 -31 14 -13 2 -43 6 -66 10
-35 6 -42 5 -46 -11 -4 -16 -6 -16 -12 3 -8 25 -41 33 -122 29 -29 -2 -53 1
-53 6 0 5 171 9 410 9 l410 0 1 -27z m-921 -142 c0 -29 17 -35 32 -11 7 11 19
20 26 20 9 0 7 -8 -7 -26 -28 -36 -26 -45 9 -37 26 5 30 3 30 -16 0 -12 -7
-33 -16 -46 -15 -24 -15 -25 3 -25 10 0 25 6 32 13 11 10 13 9 8 -5 -4 -12 -1
-18 8 -18 21 0 19 -20 -2 -21 -14 0 -13 -2 5 -9 32 -14 27 -20 -13 -15 -33 5
-35 3 -29 -19 5 -20 2 -25 -18 -29 -13 -2 -9 -4 10 -3 35 2 44 -13 12 -21 -25
-7 -26 -23 -1 -23 20 0 56 -46 43 -54 -5 -3 -21 2 -36 10 -35 17 -49 18 -43 2
2 -7 10 -12 16 -10 6 1 11 -5 11 -13 0 -8 7 -16 15 -16 8 -1 21 -2 28 -3 6 -1
18 -12 25 -25 15 -30 15 -31 -3 -31 -8 0 -15 6 -15 14 0 17 -54 13 -110 -9
-19 -8 -42 -16 -50 -19 -8 -2 -3 -5 13 -5 37 -1 34 -15 -5 -26 -17 -6 -34 -16
-36 -24 -3 -10 2 -11 19 -6 13 4 28 13 32 19 8 10 5 -10 -9 -69 -4 -17 -1 -32
11 -45 18 -19 17 -20 -5 -20 -13 0 -21 -3 -17 -6 3 -3 21 -3 39 2 18 4 27 9
20 11 -6 3 -10 9 -7 13 3 5 12 7 20 3 8 -3 15 -1 15 5 0 6 14 15 31 21 27 9
30 13 19 26 -11 14 -14 13 -27 -2 -13 -16 -14 -16 -8 10 7 34 0 35 -18 0 l-14
-27 -12 22 c-14 27 -7 42 19 42 13 0 17 5 14 15 -5 11 1 15 25 15 33 0 42 -14
15 -24 -9 -4 -14 -9 -11 -12 3 -3 15 -1 26 6 23 12 24 10 15 -14 -3 -9 -10
-13 -15 -10 -13 8 -11 -10 4 -25 10 -10 8 -14 -6 -23 -18 -9 -18 -10 0 -25 12
-10 13 -13 3 -10 -8 2 -23 -5 -34 -15 -11 -10 -28 -18 -38 -18 -12 0 -16 -4
-12 -12 5 -7 3 -8 -7 -2 -8 4 -24 7 -36 6 -11 -2 -29 6 -40 17 -22 24 -69 18
-76 -10 -4 -15 0 -19 19 -19 28 0 31 -17 7 -36 -11 -8 -13 -13 -5 -14 21 0 13
-20 -8 -20 -12 0 -20 7 -20 16 0 14 -2 14 -15 0 -8 -8 -15 -19 -15 -25 0 -6 7
-8 15 -5 9 4 15 0 15 -10 0 -20 -39 -21 -90 -2 -44 15 -61 3 -46 -31 9 -18 17
-22 34 -18 18 4 25 1 29 -15 3 -11 10 -20 16 -20 7 0 7 -4 -1 -12 -7 -7 -12
-24 -12 -38 0 -14 -5 -31 -11 -37 -9 -9 -6 -10 11 -6 16 4 21 3 16 -5 -4 -7
-23 -12 -42 -12 l-34 0 20 20 c12 12 18 25 15 30 -10 17 -40 11 -53 -10 -16
-27 -27 -25 -30 5 -2 30 30 50 76 46 40 -3 41 4 2 24 -23 12 -34 13 -55 3 -15
-7 -24 -17 -21 -25 3 -7 1 -13 -4 -13 -5 0 -19 -8 -29 -17 -20 -17 -20 -17 0
-31 13 -9 19 -23 17 -40 -3 -25 -6 -27 -57 -28 -43 -1 -55 -5 -57 -18 -1 -9 3
-16 9 -15 7 1 23 1 36 0 23 -1 24 -2 6 -21 -10 -11 -13 -20 -7 -20 20 0 13
-22 -8 -27 -19 -5 -19 -6 2 -23 12 -10 27 -16 33 -14 6 3 12 -9 13 -26 1 -16
-2 -30 -8 -30 -5 0 -10 6 -10 13 0 6 -4 18 -9 26 -8 12 -12 12 -25 2 -19 -16
-12 -33 9 -24 8 3 15 0 15 -7 0 -6 -4 -8 -10 -5 -6 3 -10 -5 -10 -18 0 -14 -7
-28 -17 -31 -12 -5 -14 -9 -5 -18 7 -7 12 -17 12 -23 0 -5 -4 -4 -9 4 -7 11
-13 9 -32 -9 l-24 -23 23 6 c12 3 22 2 22 -3 0 -12 -45 -21 -48 -9 -2 5 -18 7
-38 3 -22 -4 -34 -2 -34 5 0 6 6 11 14 11 7 0 19 7 26 15 7 9 21 13 31 10 14
-5 19 -1 18 12 0 10 -3 13 -5 6 -3 -7 -12 -9 -20 -6 -8 3 -20 1 -27 -5 -13
-10 -52 -10 -63 1 -4 4 3 15 14 26 27 22 28 31 4 31 -10 0 -25 9 -34 19 -16
19 -15 20 13 26 17 4 33 5 35 2 3 -3 16 5 30 18 25 23 32 59 14 70 -5 3 -10 1
-10 -5 0 -6 -5 -8 -11 -4 -6 3 -8 17 -4 31 5 21 4 23 -14 14 -11 -6 -21 -15
-23 -21 -4 -13 -58 10 -58 25 0 6 -4 4 -9 -4 -5 -8 -17 -16 -26 -17 -13 -2
-14 1 -4 12 6 7 8 21 5 30 -5 14 -8 14 -23 -2 -17 -16 -18 -16 -21 -1 -2 10
-8 14 -14 11 -7 -5 -9 2 -4 19 3 14 2 29 -4 32 -12 8 -13 25 -1 25 5 0 11 -10
14 -22 l6 -21 20 24 20 24 -21 18 c-11 10 -18 21 -14 24 4 4 10 3 14 -2 4 -6
13 -11 21 -13 12 -3 12 0 2 12 -10 12 -8 16 8 21 27 8 27 24 0 34 -19 6 -14
10 32 29 35 13 46 21 32 21 -13 1 -23 6 -23 12 0 6 -6 9 -12 7 -7 -3 -13 -10
-13 -15 0 -18 -58 -59 -63 -45 -2 7 -15 12 -28 12 -13 0 -24 5 -24 10 0 15 49
32 71 25 15 -5 19 -1 19 17 0 13 10 32 21 42 27 23 15 36 -42 42 -61 6 -72 8
-88 19 -12 7 -11 10 5 17 14 6 11 7 -13 5 -26 -3 -33 0 -33 14 0 10 -5 21 -11
25 -13 8 14 26 44 31 11 2 29 10 40 18 l22 15 -22 6 c-13 4 -23 9 -23 13 0 9
51 31 71 31 10 0 21 4 24 10 4 6 -5 7 -23 4 -17 -3 -32 -1 -36 5 -4 5 -14 7
-22 4 -13 -5 -15 -1 -9 17 4 14 3 20 -3 16 -13 -8 -22 -46 -11 -46 5 0 9 -7 9
-16 0 -8 -4 -12 -10 -9 -6 4 -7 -1 -3 -11 5 -14 3 -16 -11 -11 -14 5 -17 3
-12 -8 7 -18 -15 -20 -32 -3 -17 17 -15 25 6 30 10 3 23 21 29 42 10 33 10 37
-5 34 -10 -2 -16 -11 -14 -21 4 -26 -43 -22 -62 5 -18 25 -12 41 12 34 10 -3
24 -1 32 4 8 5 11 10 5 10 -5 0 -3 5 5 11 11 8 8 9 -13 4 -16 -3 -37 -3 -48 0
-24 8 -25 35 0 42 10 3 23 14 29 26 6 12 11 17 11 10 1 -7 8 -10 17 -6 10 4
22 -1 30 -12 11 -15 16 -16 29 -5 8 7 18 10 22 6 3 -3 0 -6 -7 -6 -10 0 -9 -5
3 -18 10 -10 17 -26 17 -36 0 -9 7 -19 15 -22 8 -4 15 -12 15 -20 0 -8 5 -14
11 -14 5 0 8 -3 6 -7 -3 -5 5 -9 16 -10 12 -1 32 -3 44 -5 33 -5 31 16 -2 22
-38 7 -36 21 6 42 22 11 28 17 16 18 -10 0 -15 5 -12 10 4 6 14 10 23 9 10 -1
25 1 35 4 9 4 24 9 32 12 8 2 12 11 9 20 -3 8 -1 15 5 15 6 0 11 -4 11 -10 0
-5 13 -7 30 -3 19 3 30 1 30 -6 0 -6 -9 -11 -20 -11 -13 0 -18 -5 -14 -15 4
-8 15 -15 26 -15 10 0 16 -4 13 -10 -3 -5 1 -10 9 -10 9 0 16 6 16 13 0 8 17
12 47 13 41 1 44 0 28 -13 -11 -7 -31 -13 -46 -13 -18 0 -35 -9 -48 -26 -11
-14 -25 -23 -31 -19 -5 3 -10 2 -10 -2 0 -18 25 -33 52 -33 33 0 38 -17 6 -22
-38 -5 -33 -28 6 -28 35 0 91 35 81 50 -11 18 35 16 51 -1 10 -11 12 -19 6
-19 -7 0 -12 5 -12 10 0 6 -7 10 -16 10 -8 0 -12 -5 -9 -10 3 -6 -2 -14 -12
-18 -35 -14 -24 -30 20 -28 38 1 42 4 45 29 2 16 9 26 15 24 6 -2 19 6 28 17
10 12 21 18 25 14 4 -4 1 -14 -5 -22 -9 -10 -9 -16 -1 -21 13 -8 42 14 34 26
-3 5 -1 9 4 9 14 0 23 -28 12 -35 -16 -10 -11 -21 10 -21 11 0 22 6 24 13 3 7
1 13 -5 13 -7 0 -8 15 -4 43 10 56 22 78 40 71 8 -4 15 -1 15 6 0 6 -4 8 -10
5 -17 -11 -11 10 10 33 26 28 26 29 -11 30 -45 1 -45 7 1 31 53 28 62 27 54
-5 l-7 -27 21 21 c18 18 20 26 12 47 -8 21 -7 25 10 25 22 0 27 15 8 26 -7 4
-8 3 -4 -4 5 -8 -2 -12 -19 -12 -15 0 -24 4 -20 10 4 6 -1 7 -10 3 -13 -4 -16
-1 -13 13 1 10 14 21 28 24 25 6 25 6 3 12 -29 8 -31 38 -3 38 23 0 27 25 5
34 -17 6 -21 46 -5 46 6 0 10 -9 10 -19z m-130 -1712 c0 -5 4 -8 9 -5 5 3 21
-4 36 -15 14 -12 46 -24 71 -27 24 -2 44 -9 44 -15 0 -6 3 -8 6 -4 3 3 24 -7
47 -23 23 -16 44 -24 45 -19 2 5 8 9 13 9 6 0 6 -8 -1 -19 -8 -16 -6 -22 7
-29 14 -8 15 -13 4 -26 -17 -20 5 -83 32 -92 18 -6 18 -8 -7 -31 -14 -13 -45
-31 -69 -39 -52 -18 -107 -55 -107 -71 0 -7 1 -13 3 -13 12 0 139 31 162 39
17 6 55 12 85 14 50 2 55 0 58 -20 3 -18 -3 -23 -35 -28 -113 -17 -150 -27
-189 -50 -53 -31 -84 -70 -84 -105 0 -38 9 -42 34 -16 22 24 47 32 126 41 25
2 59 8 75 11 52 12 144 6 180 -12 32 -15 39 -26 38 -61 -1 -7 3 -10 8 -7 5 3
10 -5 11 -18 0 -13 2 -42 4 -66 2 -23 12 -55 24 -71 32 -46 29 -130 -6 -190
-10 -17 -14 -34 -10 -38 5 -4 11 -2 13 5 3 6 9 12 14 12 27 0 -49 -121 -121
-190 -19 -19 -68 -73 -108 -119 -71 -82 -89 -117 -55 -104 13 5 15 2 9 -18
-18 -59 -19 -69 -2 -69 13 0 15 -6 10 -27 -13 -59 -38 -114 -56 -124 -10 -5
-16 -14 -13 -20 4 -5 11 -6 17 -3 7 4 8 2 4 -5 -5 -7 -16 -9 -28 -5 -15 4 -18
3 -13 -6 5 -8 1 -18 -9 -26 -10 -7 -17 -16 -17 -21 1 -4 -7 -8 -16 -8 -10 0
-17 6 -15 14 2 11 -6 12 -40 7 -24 -4 -49 -8 -55 -8 -7 -1 -11 -3 -8 -6 8 -8
-42 -42 -62 -42 -10 0 -24 -5 -29 -10 -12 -12 -104 8 -104 22 0 4 -6 8 -14 8
-21 0 -78 60 -72 76 5 14 -38 66 -48 57 -3 -4 -6 1 -6 10 0 9 -15 34 -34 54
-18 21 -54 82 -80 136 -38 80 -50 97 -65 92 -39 -12 -144 91 -194 190 -14 28
-42 68 -62 90 -41 44 -64 90 -61 120 3 28 28 106 41 130 13 22 8 115 -6 115
-5 0 -9 14 -9 30 0 17 5 30 10 30 6 0 23 12 37 26 20 20 36 26 70 27 25 0 48
-5 52 -11 3 -6 24 -10 46 -10 138 1 174 -3 189 -18 9 -8 14 -20 10 -25 -3 -6
0 -17 7 -25 8 -10 9 -21 2 -37 -8 -16 -7 -25 2 -34 17 -15 69 -21 70 -8 0 6 6
19 11 30 6 11 12 43 12 72 1 46 -3 55 -29 78 -17 14 -36 25 -44 25 -7 0 -42
14 -78 31 -60 28 -75 30 -167 30 -98 -1 -119 -6 -172 -44 -14 -9 -22 -9 -35
-1 -16 10 -20 38 -14 90 0 6 25 15 54 20 57 11 136 2 352 -41 17 -3 37 -1 45
5 13 9 12 12 -5 22 -27 17 -78 34 -120 42 -19 4 -47 18 -62 32 -15 14 -34 29
-42 34 -11 6 -8 16 16 52 27 40 42 78 45 117 1 13 15 34 44 65 5 6 13 19 17
29 7 19 47 24 48 5 0 -10 2 -10 6 0 7 17 49 15 68 -4 19 -19 62 -27 71 -13 9
15 27 10 20 -6 -7 -18 22 -35 61 -35 31 0 63 40 63 79 0 12 5 21 10 21 6 0 10
-5 10 -11z m-1251 -961 c7 -17 4 -28 -11 -45 -23 -24 -29 -64 -13 -75 19 -14
35 -8 35 14 0 16 3 19 11 11 8 -8 8 -17 -1 -33 -9 -17 -8 -26 5 -46 9 -14 20
-22 25 -19 6 4 10 -3 10 -14 0 -11 4 -22 10 -26 5 -3 7 -12 4 -20 -4 -9 2 -18
12 -22 23 -8 45 -29 38 -35 -2 -3 7 -22 21 -42 33 -48 32 -56 -8 -49 -39 6
-48 -3 -70 -68 -13 -42 -13 -48 0 -62 32 -32 -3 -43 -61 -21 -13 5 -16 -1 -16
-32 0 -45 14 -75 23 -51 3 8 18 14 34 14 l28 0 -30 -13 c-24 -11 -26 -13 -10
-15 11 -1 26 -1 33 0 6 1 12 -3 12 -9 0 -5 7 -10 15 -10 8 0 15 6 15 13 0 7
11 14 25 15 24 2 34 -11 16 -22 -12 -8 11 -56 27 -56 6 0 12 -4 12 -10 0 -14
-23 -13 -37 1 -9 9 -23 9 -58 -1 -25 -7 -48 -17 -51 -21 -3 -5 -14 -9 -26 -9
-15 0 -19 5 -14 18 6 16 5 16 -8 0 -22 -29 -36 -22 -23 12 6 16 7 33 3 37 -5
4 -11 3 -13 -4 -2 -7 -11 -9 -19 -6 -8 3 -14 0 -14 -6 0 -6 -7 -11 -15 -11
-30 0 -143 -58 -184 -95 l-41 -37 0 425 c0 417 0 426 20 432 26 8 60 -3 60
-19 0 -18 30 -43 62 -51 24 -6 29 -3 38 20 7 19 15 25 29 20 10 -3 23 1 30 9
7 8 18 13 25 10 8 -3 16 2 19 10 9 22 16 20 26 -6z m2079 -64 c5 3 15 -1 22
-9 7 -8 17 -12 22 -9 6 4 5 -3 -1 -15 -9 -17 -8 -24 9 -41 11 -11 25 -18 30
-15 6 4 10 2 10 -4 0 -7 8 -7 26 -1 37 14 39 12 13 -10 l-24 -20 25 2 c14 2
25 1 25 -2 0 -3 8 -15 17 -28 8 -13 14 -32 11 -43 -3 -10 -1 -19 3 -19 5 0 9
-13 9 -30 0 -16 -3 -30 -8 -30 -4 0 -6 -20 -3 -45 3 -30 0 -43 -7 -38 -7 4 -8
-5 -4 -28 5 -21 4 -29 -2 -20 -7 10 -11 6 -16 -18 -3 -17 -11 -34 -17 -37 -18
-11 -38 27 -38 71 0 23 -9 59 -20 81 -17 35 -19 36 -17 12 1 -15 7 -30 14 -32
15 -6 18 -53 3 -58 -6 -2 -6 -15 0 -38 7 -26 19 -39 47 -52 21 -10 29 -15 18
-11 -11 3 -35 8 -52 11 -18 2 -33 8 -33 14 0 5 6 6 13 3 6 -4 -1 5 -18 20 -16
14 -22 23 -12 19 13 -5 17 -1 17 15 0 23 -15 28 -24 9 -3 -7 -5 6 -3 29 3 50
-11 43 -16 -7 -6 -50 -33 -52 -40 -3 -14 96 -29 143 -48 143 -25 0 -24 -14 1
-31 15 -10 18 -20 13 -38 -6 -23 -7 -23 -15 -5 -5 10 -15 30 -23 44 -8 14 -10
29 -6 33 5 5 5 23 0 40 -5 18 -9 47 -9 65 l0 34 48 -4 c52 -3 49 -10 38 82 -3
20 -1 29 4 21 4 -8 12 -11 18 -7z m408 -89 c-3 -10 1 -15 12 -16 15 0 15 -1
-2 -8 -31 -12 27 -44 65 -36 17 4 28 9 25 12 -3 3 1 11 8 19 11 10 22 11 52 3
31 -9 40 -8 50 5 31 44 34 19 34 -329 0 -327 -1 -345 -17 -335 -90 55 -107 67
-117 83 -8 14 -8 20 4 27 8 5 11 10 5 10 -5 0 -4 5 3 12 14 14 15 57 2 78 -7
12 -13 12 -27 4 -23 -14 -28 -48 -12 -85 6 -16 9 -33 5 -36 -3 -4 -38 9 -77
27 -59 29 -72 32 -79 20 -5 -8 -17 -15 -27 -15 -10 0 -29 -17 -42 -38 -29 -44
-55 -51 -45 -11 5 19 4 25 -5 20 -6 -4 -11 -16 -11 -27 0 -14 -5 -19 -17 -17
-11 2 -17 11 -15 21 3 19 -14 23 -21 5 -4 -10 -8 -10 -23 0 -11 6 -30 17 -44
23 -35 15 -66 46 -81 81 -17 40 0 57 35 35 14 -9 47 -19 75 -22 52 -5 66 5 34
24 -10 6 -13 11 -6 11 6 0 15 -4 18 -10 10 -16 45 -32 45 -20 0 5 -7 10 -15
10 -8 0 -15 5 -15 10 0 6 12 10 26 10 19 0 25 -4 20 -15 -5 -14 5 -20 27 -16
5 1 7 -9 5 -21 -2 -19 2 -23 22 -23 18 0 24 5 22 18 -2 9 3 17 11 17 21 0 23
17 25 195 2 192 7 219 33 212 22 -6 26 8 4 17 -8 3 -15 10 -15 16 0 6 5 8 10
5 6 -3 10 -1 10 5 0 6 -7 13 -15 16 -21 9 -19 24 4 24 11 0 23 5 26 10 10 15
18 12 11 -5z m-2186 -446 c0 -6 8 -9 20 -6 17 4 20 0 20 -23 0 -44 -43 -73
-99 -67 -45 5 -88 35 -63 44 10 4 10 8 1 19 -9 12 -8 17 6 28 23 17 115 21
115 5z m1746 -254 c4 -8 12 -15 20 -15 17 0 17 0 -2 -38 -18 -38 -12 -52 24
-52 29 1 66 23 55 33 -3 4 -1 7 5 7 7 0 12 -8 13 -17 0 -15 2 -15 8 2 5 11 6
24 4 28 -3 5 5 7 18 5 31 -4 35 -28 10 -55 -22 -23 -18 -35 7 -26 12 5 14 2 9
-12 -6 -15 -5 -16 8 -5 12 10 15 10 15 -2 0 -17 -36 -48 -46 -40 -5 4 -3 -1 4
-10 11 -14 10 -18 -7 -27 -22 -12 -64 -15 -74 -5 -3 4 1 13 9 21 8 9 12 18 9
22 -4 3 -12 -1 -18 -10 -13 -17 -70 -32 -81 -21 -4 3 8 14 26 25 18 10 24 15
13 11 -79 -27 -95 -28 -110 -9 -20 28 -19 35 10 35 14 0 25 -4 25 -10 0 -5 8
-10 18 -10 10 0 19 7 19 15 0 10 -11 15 -33 15 -37 0 -54 25 -23 33 18 5 19 9
9 27 -7 13 -8 20 -2 16 5 -3 13 1 16 10 3 8 11 12 17 8 9 -5 10 3 5 30 -7 36
8 52 20 21z m-1186 -480 c0 6 4 4 9 -3 5 -8 20 -15 33 -15 26 -2 27 -16 6 -44
-7 -8 -1 -11 22 -11 18 1 36 -5 40 -12 6 -9 9 -6 12 11 3 22 7 24 53 22 28 -1
74 -2 103 -2 34 -1 52 -5 52 -14 0 -8 4 -7 10 3 11 16 13 9 10 -30 -1 -14 -12
-35 -25 -47 -22 -21 -25 -22 -34 -5 -12 19 -14 12 -5 -12 8 -20 34 -21 60 -1
27 20 44 18 44 -5 0 -11 -3 -20 -8 -20 -4 0 -20 -11 -35 -25 -30 -28 -29 -46
2 -115 13 -28 21 -34 39 -32 31 5 79 -15 87 -35 3 -9 3 -25 -1 -35 -5 -17 -12
-19 -42 -13 -20 4 -42 14 -48 23 -11 16 -12 15 -11 -2 3 -28 -17 -30 -29 -4
-6 13 -9 18 -8 12 15 -75 15 -104 2 -104 -27 0 -62 -87 -64 -154 -1 -64 -11
-106 -24 -106 -5 0 -19 15 -31 33 -13 17 -33 45 -46 61 l-24 28 7 -106 c5 -70
3 -106 -3 -106 -18 0 -31 23 -38 65 -13 78 -17 84 -30 45 -6 -19 -16 -33 -21
-30 -11 6 -11 65 -1 105 l9 30 -31 -29 c-25 -24 -31 -26 -36 -13 -4 8 1 30 11
49 14 28 15 31 1 20 -26 -22 -29 4 -6 50 12 24 24 45 28 48 3 3 15 16 26 29
19 23 19 23 -24 -3 -65 -41 -71 -18 -10 39 39 36 45 46 28 41 -69 -19 -72 -19
-67 -5 2 7 37 33 76 58 40 24 71 46 69 48 -2 2 -23 -4 -47 -12 -23 -8 -49 -15
-58 -15 -13 0 -13 2 1 18 10 10 16 27 16 38 -1 16 -2 16 -6 2 -2 -9 -13 -16
-24 -15 -12 1 -17 7 -14 14 3 10 0 11 -15 3 -14 -7 -23 -6 -34 6 -9 8 -16 18
-17 22 0 4 -2 25 -4 46 -3 22 0 45 6 52 6 7 8 17 5 23 -11 17 12 60 31 57 10
-2 13 -1 8 1 -6 2 -16 13 -23 24 -10 16 -10 24 5 43 12 16 20 20 25 12 4 -6 8
-6 8 -1z m-1123 -396 c12 -24 25 -60 29 -79 3 -19 14 -47 25 -62 28 -41 29
-72 2 -76 -15 -2 -23 2 -23 11 0 8 -7 20 -15 27 -10 9 -15 9 -15 1 0 -6 5 -11
11 -11 5 0 7 -4 4 -10 -3 -5 7 -36 23 -67 35 -69 57 -177 48 -238 -6 -38 -4
-46 13 -57 27 -17 27 -28 0 -21 -18 5 -20 3 -11 -13 6 -10 13 -28 17 -39 5
-16 8 -17 15 -5 8 12 10 10 11 -10 1 -14 1 -28 0 -32 0 -4 4 -31 9 -59 11 -59
3 -73 -38 -62 -12 3 -36 0 -53 -7 -29 -13 -33 -11 -62 21 l-32 33 -3 404 c-3
434 -1 445 45 351z m2637 25 c3 -9 9 -47 12 -85 4 -37 11 -66 15 -63 5 3 15
26 22 52 14 48 38 63 43 27 11 -74 7 -123 -14 -145 -22 -23 -20 -45 4 -54 24
-9 15 -34 -16 -45 -21 -7 -36 -22 -46 -46 -27 -65 -73 -272 -91 -409 -4 -28
-11 -40 -27 -44 -30 -8 -31 -7 -27 39 2 29 -1 40 -11 38 -27 -3 -38 1 -38 16
0 8 -4 15 -9 15 -19 0 -19 30 0 53 10 14 19 28 19 31 0 3 -27 6 -60 6 -55 0
-60 2 -66 25 -5 19 1 35 22 63 40 53 83 92 103 92 9 0 23 14 31 31 12 26 35
45 78 66 2 0 -4 15 -12 32 -9 16 -16 35 -16 41 0 19 20 10 29 -12 5 -13 18
-32 30 -42 38 -34 24 4 -24 65 -43 54 -56 89 -36 89 5 0 19 -14 31 -31 27 -36
37 -32 17 8 -8 15 -17 48 -21 73 l-6 45 20 -25 20 -25 0 68 c0 63 11 86 24 51z
m-2429 -71 c2 -22 10 -54 19 -71 9 -17 16 -40 16 -51 0 -11 5 -23 10 -26 6 -4
10 17 10 54 0 64 16 83 27 31 3 -16 9 -30 14 -30 4 0 11 -21 15 -47 4 -26 13
-53 20 -61 8 -7 14 -25 14 -38 0 -15 4 -23 11 -19 6 4 13 -2 16 -14 3 -12 9
-21 14 -21 5 0 9 -9 9 -19 0 -10 7 -21 15 -25 8 -3 15 -13 15 -22 0 -10 8 -26
17 -36 14 -16 15 -22 4 -40 -7 -11 -10 -22 -7 -25 2 -3 11 4 18 16 7 12 16 21
20 21 11 0 10 -44 -2 -74 -7 -20 -6 -27 6 -34 10 -6 16 -24 17 -50 1 -23 5
-42 8 -42 4 0 10 -7 13 -16 5 -12 2 -15 -9 -10 -21 8 -55 -25 -59 -55 -4 -39
-17 -59 -36 -59 -21 0 -30 19 -30 65 0 18 -7 48 -15 68 -10 25 -12 43 -5 68
12 39 8 44 -19 30 -18 -10 -20 -9 -14 6 3 10 9 23 13 28 3 6 6 15 5 20 -2 18
-43 91 -59 104 -9 8 -19 31 -22 53 -4 22 -12 45 -19 51 -25 25 -38 59 -26 67
9 5 9 13 0 33 -7 15 -15 24 -20 22 -4 -3 -5 5 -1 17 3 14 1 19 -6 14 -10 -6
-28 31 -19 40 2 3 1 25 -4 49 -5 25 -6 52 -2 60 10 27 25 11 28 -32z m2780
-671 c-4 -27 -17 -55 -35 -76 -16 -18 -28 -35 -25 -37 2 -3 -4 -5 -13 -6 -9
-1 -45 -5 -78 -9 -46 -5 -74 -2 -112 10 -46 16 -52 21 -58 52 -3 18 -3 46 0
60 6 22 38 76 56 94 27 27 160 303 165 342 2 17 15 48 29 69 14 21 26 44 26
50 0 6 10 28 23 48 l22 36 3 -295 c2 -162 0 -314 -3 -338z"/>
<path d="M1174 4968 c-5 -7 -7 -28 -5 -47 2 -30 1 -33 -12 -23 -10 9 -16 9
-19 2 -4 -14 -58 -23 -58 -10 0 5 9 10 21 10 11 0 17 5 14 10 -9 15 -43 12
-52 -4 -4 -7 -15 -16 -23 -19 -10 -3 -4 -8 17 -12 20 -5 30 -12 26 -20 -3 -10
2 -12 18 -8 19 5 21 3 14 -13 -4 -10 -7 -28 -7 -38 1 -23 24 -39 33 -24 9 15
36 -5 44 -33 5 -15 10 -17 20 -9 9 8 15 8 20 0 3 -5 19 -10 34 -10 21 0 30 6
34 21 3 12 10 19 15 15 5 -3 9 1 9 9 0 19 -12 19 -30 0 -15 -14 -77 -17 -87
-3 -3 4 -4 25 -2 47 3 31 9 41 25 43 11 2 21 11 23 21 2 19 -12 24 -18 6 -3
-9 -10 -9 -26 0 -18 9 -20 16 -12 30 5 10 7 21 4 24 -3 3 -1 15 6 26 9 17 8
21 -4 21 -8 0 -18 -6 -22 -12z"/>
<path d="M1170 2653 c-33 -23 -59 -55 -60 -72 0 -19 41 -79 59 -86 7 -3 19 2
25 11 10 13 17 8 51 -37 38 -50 180 -179 198 -179 5 0 -1 13 -13 30 -24 34
-19 53 14 44 23 -5 120 -14 166 -14 14 0 57 3 96 7 61 7 77 13 113 43 79 66
121 111 115 122 -4 7 -2 8 5 4 7 -5 20 1 30 13 20 23 41 28 41 10 0 -6 9 -1
20 12 17 21 19 22 20 6 0 -10 4 -16 10 -12 11 7 -23 73 -52 98 -24 20 -46 24
-31 5 35 -45 16 -75 -70 -117 -26 -12 -57 -36 -69 -52 -12 -16 -30 -29 -40
-29 -10 0 -18 -5 -18 -10 0 -6 -12 -15 -27 -21 -15 -5 -33 -18 -40 -28 -7 -10
-31 -21 -55 -25 -37 -6 -45 -4 -60 16 -15 19 -18 20 -18 6 0 -10 -1 -18 -2
-19 -59 -11 -88 -9 -107 10 -11 11 -32 23 -46 27 -14 3 -25 10 -25 15 0 5 -9
9 -19 9 -11 0 -23 9 -26 21 -4 11 -16 24 -28 29 -20 8 -20 9 -3 9 21 1 80 -16
110 -31 12 -6 22 -6 28 0 7 7 -2 14 -26 23 -25 9 -33 16 -26 25 8 8 -1 13 -31
17 -45 6 -59 14 -42 25 16 10 20 54 6 59 -7 3 -13 -2 -13 -10 0 -21 -51 -29
-71 -11 -8 8 -28 14 -44 14 -25 0 -27 2 -21 30 7 35 7 35 -24 13z"/>
</g>
</svg>
