<?xml version="1.0" standalone="no"?>
<!DOCTYPE svg PUBLIC "-//W3C//DTD SVG 20010904//EN"
 "http://www.w3.org/TR/2001/REC-SVG-20010904/DTD/svg10.dtd">
<svg version="1.0" xmlns="http://www.w3.org/2000/svg"
 width="640.000000pt" height="383.000000pt" viewBox="0 0 640.000000 383.000000"
 preserveAspectRatio="xMidYMid meet">

<g transform="translate(0.000000,383.000000) scale(0.100000,-0.100000)"
fill="#000000" stroke="none">
<path d="M0 3758 l0 -71 23 19 c12 10 48 42 79 71 l57 53 -80 0 -79 0 0 -72z"/>
<path d="M336 3801 c3 -16 1 -38 -5 -49 -7 -13 -7 -23 -1 -27 5 -3 6 -13 3
-22 -4 -11 -3 -14 5 -9 9 5 9 1 2 -18 -7 -19 -5 -30 10 -48 10 -14 15 -29 12
-34 -4 -5 -34 -18 -67 -27 -124 -38 -198 -69 -202 -88 -6 -23 -5 -23 -53 1
l-40 20 0 -112 c1 -82 5 -118 15 -132 8 -10 12 -24 8 -29 -4 -7 1 -8 13 -4 16
6 17 5 4 -5 -16 -14 -25 -98 -11 -98 5 0 7 -8 4 -18 -5 -19 11 -37 38 -43 27
-6 1 -71 -29 -76 -17 -2 -21 1 -16 9 5 9 2 9 -9 -1 -15 -12 -17 -34 -17 -160
l1 -146 44 50 c25 28 45 55 45 61 0 6 -9 23 -21 38 -28 35 -19 97 22 159 43
65 96 86 199 78 21 -1 22 -3 10 -12 -12 -8 -9 -9 10 -5 21 4 26 1 27 -15 1
-11 -5 -23 -13 -26 -8 -3 -14 -9 -14 -15 0 -5 4 -7 8 -4 5 3 9 -1 9 -9 0 -8
-4 -12 -9 -9 -4 3 -8 0 -8 -5 0 -6 4 -11 10 -11 5 0 8 -10 6 -22 -3 -13 -5
-47 -5 -76 -1 -29 -5 -51 -10 -48 -5 3 -8 -2 -7 -10 0 -9 -7 -18 -18 -20 -25
-4 -34 -14 -38 -44 -1 -14 -7 -28 -13 -32 -5 -4 -10 -15 -10 -25 0 -30 -29
-113 -39 -113 -5 0 -1 -10 10 -21 l19 -22 -25 14 c-43 23 -56 19 -22 -8 25
-19 31 -30 26 -46 -6 -20 -5 -20 10 -8 15 13 16 12 6 -14 -8 -21 -8 -30 1 -36
6 -4 8 -12 5 -18 -4 -6 -2 -11 4 -11 6 0 8 -5 4 -12 -4 -7 -3 -8 5 -4 6 4 9
12 6 17 -3 5 1 6 10 3 10 -4 12 -10 6 -18 -6 -7 -4 -20 4 -36 16 -29 19 -60 6
-60 -5 0 -7 -8 -4 -18 6 -24 -37 -62 -82 -72 -21 -5 -62 -5 -93 0 -52 9 -81
20 -52 20 7 0 11 2 8 5 -3 3 -13 3 -22 -1 -14 -5 -16 -27 -16 -160 l0 -155 22
21 c21 20 76 40 109 40 23 0 67 -24 90 -49 19 -20 19 -20 -8 -35 -64 -33 -113
-146 -95 -218 12 -48 13 -46 -14 -51 -10 -1 -25 -6 -32 -10 -7 -5 -12 -4 -12
2 0 6 -5 11 -12 11 -6 0 -20 7 -30 17 -17 16 -18 0 -18 -473 1 -465 2 -490 20
-512 l19 -23 46 50 c26 28 63 55 82 62 56 18 136 7 178 -25 35 -27 60 -68 45
-74 -4 -1 -3 -24 2 -49 9 -39 8 -48 -6 -58 -9 -7 -16 -20 -16 -29 0 -9 -10
-27 -21 -39 -12 -12 -19 -16 -14 -9 6 11 3 11 -14 0 -12 -7 -21 -18 -21 -24 0
-6 -17 -26 -39 -45 -32 -30 -44 -35 -74 -31 -32 4 -37 1 -43 -22 -3 -14 -10
-26 -14 -26 -4 0 -10 -14 -14 -31 -3 -17 -15 -44 -27 -60 -11 -16 -18 -37 -15
-45 3 -8 2 -12 -4 -9 -9 5 -15 -24 -11 -49 1 -5 -4 -13 -11 -17 -10 -7 -10 -9
1 -9 11 0 11 -3 0 -17 -10 -11 -10 -14 -1 -9 6 4 12 2 12 -3 0 -6 -4 -11 -10
-11 -5 0 -10 -5 -10 -11 0 -5 5 -7 12 -3 8 5 9 2 5 -9 -8 -20 13 -23 32 -4 10
10 11 9 6 -5 -6 -15 -1 -18 35 -18 22 0 39 4 36 9 -3 5 1 11 9 14 9 4 12 1 8
-9 -4 -12 44 -14 351 -14 l356 0 0 23 c0 36 42 99 87 131 30 21 58 31 97 34
55 4 126 -12 126 -29 0 -6 4 -8 9 -5 8 5 40 -25 56 -53 6 -10 4 -12 -6 -7 -8
5 -8 2 2 -6 9 -7 14 -19 12 -25 -3 -7 0 -13 7 -13 6 0 9 -4 5 -9 -3 -6 -15 -8
-27 -6 -11 3 -17 1 -14 -3 4 -4 13 -7 19 -7 7 -1 11 -6 9 -13 -1 -9 45 -12
193 -12 123 1 195 5 195 11 0 6 -6 7 -12 3 -7 -4 -10 -4 -6 0 4 5 3 19 -2 32
-7 18 -6 24 5 24 22 0 26 15 9 36 -14 18 -15 18 -4 -3 7 -16 7 -23 0 -23 -5 0
-10 5 -10 10 0 6 -4 10 -10 10 -5 0 -7 -7 -3 -16 4 -11 2 -15 -6 -13 -7 3 -12
8 -12 12 2 16 -34 44 -46 35 -9 -7 -14 -2 -19 15 -4 18 -11 24 -22 20 -15 -4
-15 -3 -2 6 11 8 18 7 27 -5 7 -9 14 -11 17 -5 7 10 -32 37 -47 33 -5 -1 -6 2
-2 8 3 6 10 8 15 5 18 -11 21 17 5 41 -16 25 -16 26 3 20 11 -4 23 -2 27 4 3
5 2 10 -4 10 -15 0 -6 32 15 47 19 14 19 14 -1 11 -16 -2 -19 2 -17 21 1 17
-2 22 -12 18 -8 -3 -20 1 -27 10 -18 21 9 40 66 49 53 7 116 -19 162 -67 34
-37 68 -108 52 -110 -5 -1 -14 -2 -21 -3 -15 -1 -22 -23 -9 -30 5 -3 17 1 25
10 9 8 16 14 17 12 13 -83 2 -136 -24 -123 -7 4 -4 0 5 -8 16 -13 16 -16 2
-33 -15 -19 -15 -19 -9 1 5 16 0 14 -26 -10 -20 -19 -30 -24 -26 -13 3 10 1
20 -6 24 -7 4 -8 3 -4 -1 4 -5 -3 -15 -15 -22 l-23 -12 22 -1 c12 0 28 -9 36
-20 14 -20 23 -20 352 -18 l337 3 -26 28 c-26 28 -36 65 -14 51 7 -4 8 -3 4 5
-6 9 -11 9 -22 0 -12 -10 -15 -10 -12 2 2 8 -3 13 -10 11 -8 -1 -11 2 -7 7 3
7 15 7 29 1 13 -5 27 -6 30 -3 3 4 6 1 6 -6 0 -7 5 -9 12 -5 7 5 9 2 5 -9 -4
-11 1 -18 14 -22 11 -4 16 -11 13 -17 -5 -8 -1 -9 10 -5 10 4 15 3 11 -4 -13
-19 17 -39 59 -39 l41 1 -25 15 -25 15 25 -5 c14 -3 32 -6 40 -6 13 0 13 -1 0
-10 -10 -6 232 -10 693 -10 688 0 709 1 747 20 22 11 52 20 69 20 27 0 31 5
54 72 39 111 45 136 58 233 13 98 48 180 81 188 15 4 17 3 8 -8 -8 -10 -8 -15
1 -21 8 -4 9 -3 5 5 -6 9 0 10 20 5 16 -4 34 -7 41 -7 7 0 13 -4 13 -8 0 -4
14 -12 31 -18 17 -6 28 -15 25 -20 -3 -5 2 -8 11 -6 22 3 55 -24 46 -38 -3 -6
-1 -7 6 -3 6 4 9 11 6 16 -8 13 24 5 38 -10 10 -10 9 -11 -2 -5 -10 5 -12 4
-7 -4 4 -6 12 -9 17 -5 13 8 79 -43 76 -59 -1 -7 5 -11 15 -9 18 3 58 -47 58
-73 0 -14 -7 -16 -39 -13 -33 3 -43 -1 -62 -25 -21 -27 -100 -87 -115 -87 -3
0 -1 7 6 15 11 13 10 14 -4 9 -10 -4 -15 -12 -12 -19 2 -7 -24 -36 -59 -65
-101 -84 -104 -82 118 -79 107 1 197 6 205 12 8 6 17 5 29 -4 15 -12 16 -12 8
1 -6 12 -5 13 6 2 16 -15 115 -16 125 0 5 7 2 8 -7 3 -8 -5 -11 -5 -7 0 4 4 3
14 -3 21 -8 10 -6 11 15 1 14 -7 24 -18 21 -24 -3 -10 148 -13 736 -13 l740 0
-1 251 c-1 188 -4 249 -13 240 -18 -18 -31 -13 -16 6 13 17 13 17 -13 0 -21
-13 -26 -14 -22 -3 3 8 19 20 35 26 29 12 29 13 29 96 l0 83 -47 -17 c-27 -9
-51 -21 -54 -26 -4 -5 -11 -6 -17 -2 -6 3 -18 3 -29 -1 -14 -6 -11 -9 17 -14
31 -6 29 -7 -18 -8 -60 -1 -100 15 -152 63 -33 30 -60 41 -60 24 0 -5 0 -11 0
-14 0 -4 7 -1 15 6 9 8 15 8 15 2 0 -6 -9 -13 -19 -17 -14 -4 -28 3 -49 24
-16 17 -31 28 -34 25 -3 -3 -12 9 -19 25 -12 26 -15 28 -21 13 -6 -16 -7 -15
-7 2 -1 11 -6 16 -14 13 -8 -3 -14 4 -15 16 0 12 -7 26 -14 32 -20 16 -21 55
-2 76 18 20 24 38 27 72 1 14 12 6 43 -30 22 -26 53 -61 67 -78 l26 -30 1 28
c0 15 7 41 15 58 9 16 13 35 9 41 -4 6 -3 8 4 4 6 -3 23 5 39 20 62 58 156 83
246 66 l47 -9 -1 671 c0 369 -3 665 -6 659 -2 -7 -9 -13 -14 -13 -6 0 -8 4 -4
9 3 5 -8 17 -24 27 -16 10 -27 24 -26 33 2 9 4 19 4 22 1 9 35 6 42 -4 3 -5 9
-1 13 9 4 10 4 15 0 11 -4 -4 -15 4 -24 19 -10 14 -20 25 -24 25 -17 -1 -36
13 -36 28 0 14 -2 14 -10 1 -8 -13 -10 -12 -10 3 0 9 -4 17 -10 17 -15 0 -12
32 5 54 12 16 12 22 2 28 -24 15 22 8 73 -11 l50 -19 0 64 c0 38 -4 64 -10 64
-7 0 -9 23 -5 68 20 227 18 262 -10 262 -18 0 -115 60 -115 71 0 5 -7 9 -15 9
-8 0 -16 5 -16 10 -2 14 -5 22 -13 42 -11 25 10 80 47 123 23 27 46 40 82 50
l50 12 3 212 2 211 -650 0 c-409 0 -650 -4 -650 -10 0 -26 -81 -78 -175 -111
l-49 -17 -22 32 c-13 18 -26 49 -29 70 l-7 36 -779 -2 c-476 -2 -779 -7 -779
-12 0 -6 6 -11 15 -12 8 -1 15 3 15 9 0 7 5 6 10 -3 6 -9 13 -11 18 -5 4 6 13
11 21 13 12 3 12 1 1 -13 -11 -13 -26 -15 -82 -11 -45 4 -67 3 -63 -4 8 -13
-1 -13 -26 1 -11 5 -16 15 -13 21 4 6 3 8 -4 4 -6 -3 -13 -2 -17 4 -4 6 -63
10 -156 9 l-149 0 15 -29 c8 -16 15 -38 15 -50 0 -21 16 -28 22 -8 2 6 4 -20
3 -58 0 -38 3 -79 7 -91 4 -14 3 -23 -2 -23 -6 0 -10 -9 -10 -20 0 -13 7 -20
20 -20 26 0 72 -23 90 -45 9 -11 15 -45 16 -90 2 -60 -1 -73 -12 -68 -8 3 -14
2 -13 -3 3 -21 -15 -53 -33 -57 -13 -4 -17 -10 -12 -18 4 -7 3 -10 -4 -5 -6 3
-18 -4 -26 -16 -9 -12 -16 -18 -16 -13 0 6 -4 5 -8 -1 -15 -23 -72 -44 -99
-38 -43 11 -89 42 -117 79 -31 40 -32 51 -7 64 26 15 58 71 66 120 4 24 15 47
27 55 12 9 15 16 9 21 -6 3 -11 18 -11 32 0 43 -33 134 -52 144 -10 5 -18 16
-18 24 0 14 -105 85 -126 85 -6 0 -17 7 -24 15 -11 13 -57 15 -304 15 -258 -1
-289 -2 -272 -15 19 -14 18 -15 -16 -15 -49 0 -117 -39 -154 -88 l-32 -41 3
44 c1 24 8 51 15 60 7 9 9 15 4 14 -21 -4 -28 2 -14 11 13 8 12 10 -2 10 -10
0 -18 4 -18 10 0 6 -83 10 -225 10 l-225 -1 0 -54 c0 -54 0 -55 -30 -55 -27 0
-33 6 -55 55 l-24 56 -168 -1 c-111 -1 -173 -6 -182 -13 -12 -9 -13 -9 -7 1 5
8 0 12 -13 12 -23 0 -27 -10 -11 -26 7 -7 6 -11 -5 -11 -8 0 -13 3 -10 5 11
11 -20 32 -47 32 -24 0 -29 -3 -24 -17 6 -17 5 -17 -8 0 -7 9 -16 17 -20 17
-11 0 -6 -28 6 -32 8 -3 6 -7 -5 -11 -9 -3 -16 -3 -16 1 4 27 -3 39 -23 38
-31 -1 -46 -52 -43 -143 3 -77 -5 -94 -33 -70 -9 7 -25 17 -34 20 -10 4 -18
11 -18 16 0 5 -16 15 -34 22 -19 7 -32 17 -29 22 4 6 1 7 -6 2 -9 -5 -28 9
-55 38 l-42 46 25 26 26 25 -37 0 c-36 0 -37 -1 -32 -29z m524 10 c0 -5 -7
-16 -15 -24 -8 -8 -11 -18 -7 -21 3 -4 -2 -4 -11 0 -17 6 -16 8 3 21 11 8 18
19 15 24 -4 5 -1 9 4 9 6 0 11 -4 11 -9z m60 -16 c0 -8 -2 -15 -4 -15 -2 0 -6
7 -10 15 -3 8 -1 15 4 15 6 0 10 -7 10 -15z m2725 -11 c73 -34 90 -103 50
-193 -15 -33 -31 -58 -35 -56 -14 8 -19 -22 -7 -36 10 -11 9 -11 -4 -1 -18 14
-29 6 -29 -20 0 -11 -5 -16 -10 -13 -6 4 -8 10 -6 14 3 4 -1 8 -9 8 -12 0 -12
-3 0 -20 12 -18 11 -22 -8 -37 -47 -37 -174 -45 -196 -12 -3 4 -28 18 -56 29
-42 18 -53 28 -67 65 -21 54 -23 120 -3 158 32 61 152 126 214 116 22 -3 31
-2 22 3 -41 26 89 21 144 -5z m-1232 9 c-7 -2 -19 -2 -25 0 -7 3 -2 5 12 5 14
0 19 -2 13 -5z m57 -3 c0 -5 -7 -7 -15 -4 -8 4 -15 8 -15 10 0 2 7 4 15 4 8 0
15 -4 15 -10z m58 0 c14 0 15 -2 2 -9 -8 -6 -18 -7 -24 -4 -5 4 -7 -1 -2 -12
6 -16 4 -16 -10 -4 -11 9 -13 14 -4 17 9 3 9 7 -1 14 -11 7 -9 8 4 4 10 -3 26
-6 35 -6z m-1812 -9 c-4 -5 -1 -11 6 -13 8 -3 6 -6 -4 -10 -11 -5 -15 -2 -13
10 5 23 4 22 11 22 3 0 3 -4 0 -9z m607 -6 c-3 -9 -8 -14 -10 -11 -3 3 -2 9 2
15 9 16 15 13 8 -4z m110 8 c-7 -2 -19 -2 -25 0 -7 3 -2 5 12 5 14 0 19 -2 13
-5z m-654 -19 c-7 -9 -5 -15 5 -21 11 -6 12 -13 6 -23 -8 -13 -10 -12 -10 3 0
10 -5 15 -10 12 -6 -4 -8 -11 -5 -16 3 -5 -1 -6 -11 -2 -14 5 -15 7 -1 15 9 5
14 15 10 24 -5 12 -7 12 -20 -3 -13 -17 -13 -17 -4 2 5 12 19 21 30 21 14 0
17 -4 10 -12z m126 -2 c-10 -10 -55 -10 -55 1 0 5 7 7 15 4 8 -4 17 -2 20 4 4
5 11 7 16 3 6 -3 8 -9 4 -12z m1493 -1 c-6 -11 -18 -17 -26 -13 -11 4 -13 1
-7 -8 5 -9 4 -11 -4 -6 -9 6 -9 11 0 22 6 7 15 11 20 8 5 -3 9 0 9 5 0 6 5 11
10 11 6 0 6 -7 -2 -19z m46 -20 c-8 -9 -22 12 -17 26 6 15 7 14 13 -3 4 -10 6
-21 4 -23z m3878 22 c-6 -2 -10 -9 -6 -14 3 -5 1 -9 -5 -9 -5 0 -12 4 -15 9
-6 9 10 19 29 19 6 0 4 -2 -3 -5z m-5667 -21 c0 -9 -4 -22 -7 -28 -4 -5 -3
-16 3 -24 5 -8 9 -11 9 -7 0 5 5 5 10 2 6 -4 8 -11 4 -16 -9 -14 -46 22 -40
38 3 7 1 13 -4 13 -6 0 -10 5 -10 11 0 5 4 8 9 5 5 -3 11 1 15 9 7 20 13 19
11 -3z m1899 -24 c-8 -12 16 -39 28 -32 6 4 5 10 -3 16 -10 6 -7 7 9 3 28 -8
29 9 1 28 -12 9 -16 17 -10 21 10 7 51 -49 51 -69 0 -5 -4 -5 -8 2 -5 8 -13 9
-22 3 -10 -6 -11 -10 -3 -10 7 0 10 -7 6 -16 -3 -9 -13 -14 -24 -11 -12 3 -25
-3 -35 -16 -10 -14 -18 -18 -21 -10 -2 6 -16 10 -31 7 -17 -3 -22 -1 -14 4 8
5 11 20 8 36 -4 23 -2 26 9 16 7 -6 12 -21 10 -33 -4 -21 -4 -21 10 -3 12 16
12 23 2 35 -10 14 -10 14 4 4 19 -16 33 -5 18 14 -9 10 -8 13 2 13 9 0 10 3 4
8 -5 4 -11 14 -13 22 -2 11 2 9 13 -4 8 -10 12 -23 9 -28z m-1711 0 c5 -21 5
-21 -7 -6 -10 14 -15 15 -26 5 -9 -9 -9 -7 1 10 15 25 24 23 32 -9z m75 -34
c-8 -52 -32 -114 -44 -114 -2 0 2 13 11 29 8 16 17 48 20 70 4 34 2 41 -13 42
-12 0 -11 3 6 10 14 5 20 13 16 20 -4 7 -3 9 3 6 7 -4 7 -26 1 -63z m1567 48
c-3 -3 -11 0 -18 7 -9 10 -8 11 6 5 10 -3 15 -9 12 -12z m-50 -10 c-3 -3 -11
0 -18 7 -9 10 -8 11 6 5 10 -3 15 -9 12 -12z m3180 8 c-3 -5 -12 -10 -18 -10
-7 0 -6 4 3 10 19 12 23 12 15 0z m-4120 -19 c3 -5 2 -12 -3 -15 -5 -3 -9 1
-9 9 0 17 3 19 12 6z m865 -6 c0 -8 -2 -15 -4 -15 -2 0 -6 7 -10 15 -3 8 -1
15 4 15 6 0 10 -7 10 -15z m147 9 c-3 -3 -12 -4 -19 -1 -8 3 -5 6 6 6 11 1 17
-2 13 -5z m-1717 -59 c11 2 18 0 15 -5 -9 -15 -40 -4 -52 21 -7 13 -13 18 -13
10 0 -8 -2 -12 -5 -9 -3 3 -2 14 2 24 6 16 9 14 20 -13 9 -24 18 -31 33 -28z
m1497 40 c0 -8 -4 -12 -9 -9 -5 3 -6 10 -3 15 9 13 12 11 12 -6z m161 7 c14
12 14 10 3 -11 -10 -19 -15 -21 -22 -10 -5 8 -8 19 -8 24 0 6 3 4 6 -3 4 -10
8 -10 21 0z m3120 -48 c-12 -28 -23 -75 -24 -109 -4 -82 -6 -86 -14 -40 -7 38
-7 38 -9 8 -1 -26 -4 -31 -18 -26 -12 5 -15 2 -10 -10 3 -9 2 -17 -3 -17 -6 0
-10 8 -11 18 -1 11 -4 9 -9 -8 -7 -21 -8 -22 -9 -5 -1 12 5 27 12 34 10 11 9
13 -5 8 -18 -6 -24 4 -10 17 4 4 7 15 8 24 1 10 2 27 3 40 1 16 5 21 14 16 8
-5 8 -2 -2 9 -9 11 -10 17 -2 17 6 0 10 5 9 12 -4 15 62 60 79 54 7 -3 13 0
13 6 0 6 2 9 5 6 3 -3 -5 -27 -17 -54z m-4764 38 c3 -5 -1 -9 -9 -9 -8 0 -15
4 -15 9 0 4 4 8 9 8 6 0 12 -4 15 -8z m93 2 c-3 -3 -12 -4 -19 -1 -8 3 -5 6 6
6 11 1 17 -2 13 -5z m5389 -9 c-3 -24 -12 -27 -27 -8 -9 11 -10 14 -1 9 6 -4
12 -2 12 3 0 6 4 11 9 11 5 0 8 -7 7 -15z m-3866 -12 c0 -3 -6 -3 -14 0 -8 3
-16 1 -18 -5 -3 -8 -10 -8 -24 1 -14 10 -15 11 -2 7 10 -3 20 -1 23 4 5 9 35
3 35 -7z m44 -24 c-8 -8 -12 -19 -9 -22 3 -4 2 -5 -2 -2 -3 3 -11 1 -18 -5 -7
-6 -17 -3 -28 10 -9 11 -12 20 -7 20 6 0 13 -7 16 -15 5 -12 10 -13 20 -4 8 6
11 15 8 20 -3 5 0 9 5 9 6 0 11 8 11 18 0 14 2 15 10 2 6 -10 4 -20 -6 -31z
m-1746 19 c-2 -7 2 -12 9 -11 7 2 10 -3 7 -11 -4 -11 -18 -13 -59 -7 -5 1 1
10 15 21 30 23 31 24 28 8z m117 3 c3 -5 2 -12 -3 -15 -5 -3 -9 1 -9 9 0 17 3
19 12 6z m28 -18 c-5 -13 -2 -15 11 -10 12 5 16 3 13 -5 -2 -7 -10 -12 -17
-10 -8 2 -10 -3 -6 -15 7 -17 6 -17 -9 -2 -13 13 -15 21 -6 37 6 10 7 23 3 27
-4 5 -2 5 5 1 7 -4 9 -14 6 -23z m37 23 c0 -3 -4 -8 -10 -11 -5 -3 -10 -1 -10
4 0 6 5 11 10 11 6 0 10 -2 10 -4z m-255 -24 c-3 -3 -11 0 -18 7 -9 10 -8 11
6 5 10 -3 15 -9 12 -12z m2005 -1 c0 -4 -10 -7 -22 -8 -13 0 -17 1 -10 4 6 3
10 9 7 14 -4 5 1 6 9 3 9 -3 16 -9 16 -13z m-1279 -24 c-10 -9 -11 -8 -5 6 3
10 9 15 12 12 3 -3 0 -11 -7 -18z m1016 -16 c-7 -2 -15 -9 -20 -15 -4 -6 -5 0
-3 14 3 14 5 29 5 34 1 6 7 1 15 -10 11 -14 11 -20 3 -23z m-1557 19 c0 -5 -2
-10 -4 -10 -3 0 -8 5 -11 10 -3 6 -1 10 4 10 6 0 11 -4 11 -10z m1477 -5 c0
-8 -4 -12 -9 -9 -5 3 -6 10 -3 15 9 13 12 11 12 -6z m294 0 c8 6 8 2 0 -14 -7
-11 -14 -21 -17 -21 -3 0 -2 5 2 12 4 7 3 8 -5 4 -6 -4 -9 -12 -5 -17 3 -5 0
-16 -6 -24 -7 -8 -9 -15 -5 -15 4 0 2 -6 -4 -14 -9 -11 -9 -15 1 -18 8 -3 7
-6 -3 -10 -9 -3 -33 2 -55 12 -21 10 -31 19 -22 19 9 1 20 -3 23 -9 3 -5 13
-10 21 -10 8 0 14 5 14 10 0 6 -6 9 -12 8 -7 -2 -13 6 -12 18 0 15 -5 20 -16
17 -9 -2 -22 2 -29 11 -10 12 -9 17 9 26 23 12 55 6 46 -9 -4 -5 2 -17 11 -27
17 -17 17 -18 1 -11 -10 3 -18 2 -18 -4 0 -22 35 -3 38 21 2 20 1 22 -7 10 -8
-11 -11 -11 -11 -2 0 7 7 15 15 18 8 4 15 10 15 16 0 5 -5 6 -12 2 -7 -4 -8
-3 -4 5 6 9 11 9 21 1 8 -7 19 -9 26 -5z m-326 -5 c3 -5 2 -10 -4 -10 -5 0
-13 5 -16 10 -3 6 -2 10 4 10 5 0 13 -4 16 -10z m360 -93 c-28 -72 -135 -167
-171 -153 -9 3 -12 1 -9 -4 9 -15 -49 -12 -64 3 -11 10 -13 10 -7 0 4 -8 1
-13 -8 -13 -24 0 -19 28 7 36 24 7 37 22 37 41 0 7 -7 10 -16 6 -8 -3 -13 -12
-10 -19 3 -8 0 -14 -6 -14 -6 0 -20 -7 -30 -17 -17 -15 -18 -15 -18 0 0 10 6
17 13 17 9 0 9 2 0 8 -15 9 -5 62 13 62 7 0 11 6 8 14 -4 11 0 13 16 9 14 -4
18 -8 10 -13 -8 -5 -7 -9 4 -13 8 -3 18 -2 21 3 8 13 25 13 25 0 0 -5 -7 -10
-15 -10 -8 0 -15 -5 -15 -11 0 -5 5 -7 12 -3 6 4 8 3 4 -4 -3 -6 -2 -13 4 -17
5 -3 10 -11 10 -16 0 -6 -4 -7 -10 -4 -5 3 -7 0 -4 -9 3 -8 12 -12 19 -10 7 3
16 1 19 -5 4 -6 13 -8 21 -5 8 4 12 10 9 15 -3 5 0 8 7 7 7 -2 13 4 14 12 0 8
8 15 17 15 10 0 23 6 30 13 11 11 8 12 -15 7 -27 -7 -27 -6 -16 19 7 14 16 23
21 20 4 -3 5 -10 2 -16 -4 -7 -2 -8 5 -4 6 4 9 17 7 29 -6 35 10 68 30 60 12
-4 15 -3 10 5 -5 8 -2 10 8 6 12 -5 16 2 18 27 l1 34 4 -33 c3 -19 -3 -53 -12
-75z m-1825 83 c0 -5 -2 -10 -4 -10 -3 0 -8 5 -11 10 -3 6 -1 10 4 10 6 0 11
-4 11 -10z m1655 -77 c-4 -25 0 -35 15 -43 23 -12 26 -39 8 -59 -10 -11 -10
-13 0 -7 14 8 16 -3 3 -22 -6 -11 -13 -7 -28 15 -20 28 -21 53 -2 53 6 0 8 -4
5 -8 -3 -5 1 -9 8 -9 8 0 4 14 -12 39 -14 21 -31 38 -38 38 -7 0 -15 4 -18 9
-3 4 9 7 27 5 29 -3 31 -2 13 11 -18 13 -18 14 3 12 18 -1 21 -6 16 -34z
m2329 16 c-4 -7 0 -9 14 -5 16 5 24 1 32 -16 9 -19 9 -21 -2 -8 -7 8 -22 15
-34 16 -16 0 -20 -4 -16 -20 3 -11 7 -15 10 -8 2 6 8 12 13 12 6 0 7 -6 2 -12
-4 -7 -8 -16 -8 -20 0 -3 -4 -10 -9 -15 -5 -5 -6 -3 -2 5 7 12 -6 21 -38 26
-8 1 -19 6 -23 11 -4 4 -3 5 3 2 6 -4 22 5 34 18 25 26 36 33 24 14z m-3955
-15 c6 4 11 5 11 2 0 -3 -8 -10 -18 -15 -14 -8 -18 -5 -19 12 -2 16 0 18 6 8
5 -7 14 -10 20 -7z m1485 10 c9 -3 16 -12 16 -20 0 -8 5 -14 10 -14 6 0 10 -4
10 -9 0 -4 -11 -6 -25 -3 -14 2 -25 9 -25 14 0 5 5 6 11 2 7 -4 10 -1 7 7 -3
8 -12 13 -21 13 -9 -1 -14 2 -11 7 6 11 8 11 28 3z m-1256 -32 c4 -27 -14 -29
-28 -3 -14 27 -13 30 8 27 9 -2 18 -13 20 -24z m656 12 c15 -5 16 -8 5 -15 -9
-6 -10 -9 -2 -9 10 0 29 -39 24 -49 -2 -2 1 -7 6 -10 13 -10 36 -54 24 -46 -6
3 -11 1 -11 -4 0 -6 5 -11 10 -11 7 0 8 -6 2 -16 -5 -9 -7 -25 -5 -35 5 -19
-30 -73 -41 -62 -12 12 -6 -13 7 -26 8 -9 8 -12 0 -7 -7 3 -14 -2 -18 -14 -3
-11 -11 -20 -17 -20 -6 0 -8 -3 -5 -7 4 -3 2 -12 -4 -20 -9 -10 -8 -13 2 -14
8 0 -8 -6 -34 -13 -86 -23 -131 5 -182 116 -28 60 -31 110 -10 160 16 40 75
95 108 103 59 12 96 12 141 -1z m798 -28 c3 3 9 1 12 -4 3 -5 -1 -15 -9 -22
-12 -10 -15 -10 -15 3 0 9 -9 19 -20 22 -11 4 -18 11 -14 16 4 6 13 4 23 -5
10 -9 20 -13 23 -10z m1352 -15 c-7 -8 -35 9 -29 19 4 6 11 5 20 -3 7 -6 11
-14 9 -16z m-3646 4 c-2 -3 -20 -8 -39 -11 -23 -5 -31 -3 -24 4 6 6 21 12 35
14 26 4 37 1 28 -7z m2107 -4 c3 -5 0 -13 -6 -17 -8 -4 -7 -9 2 -15 10 -6 10
-9 2 -9 -6 0 -14 4 -18 9 -3 6 -14 8 -25 6 -12 -2 -18 0 -15 6 4 5 11 7 16 4
5 -4 12 1 15 9 7 18 20 21 29 7z m2454 -24 l25 -32 -32 29 c-33 31 -37 36 -24
35 4 0 18 -14 31 -32z m735 -17 c-6 -6 -10 -3 -10 10 0 13 4 16 10 10 7 -7 7
-13 0 -20z m-3004 0 c0 -5 -5 -10 -11 -10 -5 0 -7 5 -4 10 3 6 8 10 11 10 2 0
4 -4 4 -10z m2187 -19 c38 -28 56 -71 46 -111 -5 -19 -14 -35 -20 -35 -6 0
-15 -4 -20 -8 -4 -5 -2 -7 6 -5 8 2 14 -6 16 -18 1 -19 -3 -17 -32 12 -38 39
-73 58 -123 69 -19 5 -30 10 -23 12 8 3 9 12 3 27 -26 69 76 108 147 57z
m-2422 -2 c-4 -5 1 -9 10 -9 11 0 15 5 11 15 -4 13 -2 13 14 5 22 -12 16 -44
-6 -36 -8 3 -14 1 -14 -4 0 -6 9 -10 19 -10 11 0 23 -4 26 -10 9 -14 -10 -12
-50 4 -34 15 -51 31 -18 19 12 -5 14 -3 7 8 -12 20 -14 40 -3 33 5 -3 7 -10 4
-15z m795 -23 c0 -2 -8 -10 -17 -17 -16 -13 -17 -12 -4 4 13 16 21 21 21 13z
m100 -51 c0 -8 4 -15 9 -15 4 0 8 -10 7 -22 -1 -13 -7 -23 -16 -23 -10 0 -14
9 -13 30 2 28 1 29 -12 11 -11 -15 -15 -16 -15 -5 0 16 19 39 32 39 4 0 8 -7
8 -15z m2431 -75 c24 -7 60 -10 81 -8 41 4 38 8 53 -83 l7 -36 -47 -6 c-26 -4
-67 -16 -91 -27 -25 -10 -42 -14 -38 -8 5 8 2 9 -9 5 -10 -4 -17 -1 -18 6 0 9
-2 9 -6 0 -4 -10 -10 -10 -26 2 -12 8 -31 15 -43 15 -12 0 -25 7 -28 16 -3 9
-11 12 -18 8 -28 -17 -74 -10 -112 18 -21 15 -57 33 -79 39 l-40 11 84 33 c46
19 96 37 112 40 15 4 27 11 27 16 0 6 5 7 10 4 6 -3 10 -1 10 4 0 6 5 11 11
11 5 0 7 -4 4 -10 -3 -6 1 -7 9 -4 9 3 13 10 10 15 -3 5 3 6 12 2 13 -5 15 -3
9 8 -5 8 10 -3 33 -23 22 -20 60 -42 83 -48z m-2484 46 c-2 -6 6 -18 17 -28
l21 -17 -22 -20 c-12 -12 -28 -21 -35 -21 -8 -1 -5 -6 6 -15 25 -19 16 -19
-19 -1 -16 8 -21 16 -13 18 10 4 8 11 -6 32 -13 21 -15 31 -6 40 8 8 10 7 5
-6 -7 -18 2 -23 33 -19 8 1 20 -3 28 -10 8 -6 14 -7 14 -2 0 16 -48 34 -54 20
-3 -9 -5 -9 -5 1 -1 7 6 15 14 18 21 8 9 24 -13 18 -14 -5 -14 -4 -3 4 17 12
43 4 38 -12z m653 -6 c0 -5 -5 -10 -11 -10 -5 0 -7 5 -4 10 3 6 8 10 11 10 2
0 4 -4 4 -10z m90 -43 c0 -4 -6 -2 -14 5 -8 7 -12 17 -9 22 5 8 23 -12 23 -27z
m-40 -21 c0 -6 -4 -5 -9 3 -5 7 -14 11 -20 7 -7 -5 -9 -1 -5 9 5 12 9 13 20 4
8 -6 14 -17 14 -23z m-653 4 c-1 -10 -3 -17 -6 -15 -2 3 -10 0 -18 -6 -19 -16
-16 -2 5 20 22 25 21 24 19 1z m1966 -26 c4 -1 13 -2 20 -3 6 -1 -1 -9 -18
-18 -59 -31 -104 -74 -134 -128 -31 -54 -51 -70 -51 -39 0 8 -5 12 -10 9 -11
-7 -27 28 -35 75 -4 21 0 35 15 50 11 11 20 17 20 14 0 -4 6 -2 13 4 7 6 22
11 32 10 11 0 34 5 50 12 17 7 38 12 48 11 9 -1 17 3 17 9 0 7 5 8 13 3 6 -4
15 -8 20 -9z m-1236 -23 c2 -13 -2 -21 -9 -20 -26 3 -36 -1 -34 -16 4 -26 23
-38 30 -20 4 12 2 16 -8 12 -10 -4 -13 -1 -9 9 5 13 8 12 24 -2 22 -20 15 -31
-29 -43 -28 -8 -32 -7 -32 9 0 10 5 22 11 25 6 5 4 12 -8 20 -10 7 -22 11 -27
8 -5 -4 -6 -1 -1 6 5 9 10 10 18 2 13 -13 30 -15 22 -2 -3 5 -1 12 5 16 6 4 8
10 6 14 -3 4 4 7 16 6 14 -1 22 -10 25 -24z m-113 11 c3 -5 -1 -9 -9 -9 -8 0
-12 4 -9 9 3 4 7 8 9 8 2 0 6 -4 9 -8z m2401 -2 c4 -6 11 -7 17 -4 6 4 8 2 5
-3 -4 -6 6 -39 22 -74 41 -90 93 -248 87 -262 -2 -7 -5 -4 -5 6 -1 14 -5 16
-20 8 -10 -6 -20 -8 -23 -6 -3 3 -13 -4 -23 -15 -22 -24 -43 -27 -24 -3 13 15
12 15 -10 4 -20 -11 -25 -11 -33 3 -5 9 -20 16 -33 16 -13 0 -26 4 -29 9 -8
12 -46 2 -46 -12 0 -6 -7 -1 -16 11 -8 12 -22 22 -30 22 -8 0 -28 12 -44 27
-40 35 -40 76 0 122 17 18 30 39 30 45 1 21 61 77 103 96 48 22 63 24 72 10z
m-4908 -57 c-3 -10 -5 -2 -5 17 0 19 2 27 5 18 2 -10 2 -26 0 -35z m2394 0
c12 -16 12 -17 -2 -6 -9 7 -20 9 -24 5 -5 -4 -5 -1 -1 6 9 16 11 15 27 -5z
m134 -1 c-3 -3 -11 0 -18 7 -9 10 -8 11 6 5 10 -3 15 -9 12 -12z m-19 -25 c2
-14 -39 -17 -53 -4 -4 5 -1 8 7 7 36 -5 43 -1 29 18 -11 14 -11 15 1 5 8 -7
15 -19 16 -26z m-2008 -19 c-10 -7 -10 -9 2 -5 8 2 14 12 13 22 -1 11 2 14 8
8 12 -12 1 -43 -16 -43 -18 0 -38 27 -30 40 5 8 11 7 21 -1 12 -10 12 -14 2
-21z m2685 17 c7 -18 -9 -29 -30 -21 -12 5 -13 9 -3 21 16 19 26 19 33 0z
m-3286 -21 c17 -7 51 -30 75 -51 59 -53 134 -105 207 -143 l60 -32 38 30 c21
16 51 33 66 36 36 8 110 -11 101 -26 -4 -7 -3 -8 4 -4 7 4 20 2 29 -3 10 -6
15 -11 11 -11 -4 0 3 -16 17 -36 13 -19 22 -41 19 -49 -3 -7 0 -16 5 -20 6 -3
9 -11 5 -16 -3 -5 -7 -39 -9 -76 -2 -40 0 -60 6 -52 7 11 9 10 9 -3 0 -19 -66
-98 -81 -98 -5 0 -18 8 -29 17 -14 13 -17 20 -8 30 8 11 7 12 -6 7 -9 -3 -16
-12 -16 -20 0 -8 -7 -14 -15 -14 -8 0 -15 -6 -15 -13 0 -19 -56 -20 -96 -1
-19 9 -43 29 -54 44 -21 30 -26 45 -11 36 13 -8 28 14 35 54 6 35 6 36 -41 50
-27 7 -56 13 -66 12 -9 0 -15 3 -12 7 2 5 -14 11 -36 15 -41 6 -41 7 -24 26
21 23 11 27 -12 5 -19 -20 -30 -11 -13 10 8 9 8 15 2 15 -13 0 -26 -36 -17
-50 3 -5 12 -10 20 -10 8 0 17 -4 20 -10 8 -13 -23 -2 -55 20 -25 17 -55 16
-44 -1 3 -5 0 -9 -6 -9 -18 0 -42 -29 -34 -41 5 -8 3 -9 -5 -5 -8 5 -14 0 -18
-13 -4 -16 -13 -21 -38 -21 -36 0 -61 -22 -49 -42 6 -10 3 -9 -9 1 -15 12 -17
11 -17 -3 0 -9 -8 -16 -17 -16 -16 0 -16 -2 -3 -11 11 -8 4 -9 -30 -5 -54 6
-86 40 -95 101 -14 93 26 308 54 291 4 -3 19 6 31 19 13 14 20 25 15 25 -5 0
2 11 15 25 22 23 17 35 -6 18 -5 -5 1 2 14 15 26 24 62 23 129 -4z m1264 17
c4 -1 10 -9 13 -18 6 -14 3 -14 -15 3 l-22 19 12 -23 c14 -26 7 -42 -19 -42
-20 0 -34 26 -19 36 6 3 8 12 5 20 -4 10 1 13 17 10 12 -3 25 -5 28 -5z m1233
-9 c3 -5 -1 -9 -9 -9 -8 0 -12 4 -9 9 3 4 7 8 9 8 2 0 6 -4 9 -8z m40 -20 c2
-4 -4 -8 -14 -8 -10 0 -16 4 -14 8 3 4 9 8 14 8 5 0 11 -4 14 -8z m157 -21
c-11 -19 -77 -81 -88 -81 -4 0 12 16 35 36 23 20 40 39 37 44 -4 7 5 14 23 19
1 1 -2 -7 -7 -18z m-178 -4 c4 3 7 1 7 -5 0 -17 -16 -15 -31 6 -12 15 -12 16
2 5 9 -7 19 -10 22 -6z m-129 -5 c3 -5 -1 -9 -9 -9 -8 0 -12 4 -9 9 3 4 7 8 9
8 2 0 6 -4 9 -8z m246 5 c0 -2 -10 -12 -22 -23 l-23 -19 19 23 c18 21 26 27
26 19z m-367 -87 c67 -33 155 -71 196 -85 l75 -25 25 24 c60 55 144 73 224 47
43 -15 102 -78 115 -123 10 -36 4 -108 -8 -108 -4 0 -7 -8 -6 -17 0 -10 -5
-17 -11 -16 -7 2 -13 -2 -13 -7 0 -6 -4 -10 -10 -10 -5 0 -6 8 -3 18 7 16 6
16 -11 -1 -10 -9 -22 -15 -27 -11 -5 3 -14 -7 -19 -21 -13 -34 -13 -38 3 -29
6 4 9 4 5 0 -3 -4 -9 -7 -12 -7 -10 2 -43 -33 -39 -41 2 -4 -2 -10 -8 -14 -8
-4 -9 -3 -5 4 4 7 2 12 -3 12 -6 0 -11 -5 -11 -11 0 -18 -98 -4 -128 18 -15
11 -41 38 -58 61 -25 32 -34 38 -44 29 -7 -7 -10 -7 -7 -2 10 19 -354 5 -377
-14 -8 -6 -19 -25 -26 -41 -11 -26 -15 -28 -47 -23 -28 5 -34 3 -28 -7 6 -9 4
-11 -5 -5 -27 16 4 415 36 466 15 24 105 0 227 -61z m197 56 c0 -2 -8 -10 -17
-17 -16 -13 -17 -12 -4 4 13 16 21 21 21 13z m568 -51 c43 -19 82 -52 78 -69
-2 -6 -1 -7 2 -3 2 4 10 3 18 -4 8 -6 11 -15 8 -20 -3 -5 -2 -9 3 -8 19 3 34
-2 29 -10 -7 -11 89 -91 110 -91 4 0 13 -8 20 -17 12 -16 15 -16 25 -3 9 13
10 13 6 0 -2 -8 7 -22 21 -30 23 -14 29 -14 69 6 72 37 179 13 223 -49 15 -23
22 -108 9 -117 -4 -3 -9 -12 -11 -19 -5 -23 -31 -51 -48 -51 -13 0 -13 -2 0
-11 11 -8 6 -9 -20 -5 l-36 6 3 -44 c2 -28 -3 -48 -12 -56 -7 -6 -13 -17 -11
-23 1 -7 1 -9 -1 -4 -3 4 -9 4 -14 1 -6 -3 -20 2 -32 13 -18 14 -19 15 -8 1 7
-9 9 -23 5 -29 -4 -8 -3 -9 4 -5 8 5 10 2 6 -8 -7 -19 -9 -19 -34 -6 -13 7
-19 6 -24 -5 -3 -8 0 -17 6 -21 7 -4 8 -3 4 4 -4 7 -2 12 3 12 20 0 11 -15
-24 -43 -29 -23 -38 -26 -55 -17 -11 6 -26 8 -32 4 -7 -4 -8 -3 -4 4 5 8 -2
12 -21 12 -16 0 -45 11 -65 25 -20 14 -40 25 -44 25 -4 0 -16 8 -26 17 -16 15
-18 15 -13 1 4 -9 1 -19 -6 -24 -8 -4 -10 -3 -5 4 4 7 1 12 -7 12 -8 0 -20 6
-26 14 -9 11 -7 15 9 19 16 4 20 13 20 46 0 51 22 106 58 146 15 16 19 23 10
16 -9 -7 -23 -9 -29 -5 -8 4 -9 3 -5 -4 5 -9 -11 -11 -57 -9 -52 2 -63 5 -54
15 6 7 6 12 1 11 -5 -1 -18 0 -29 1 -16 1 -15 4 10 15 32 15 25 19 -12 9 -13
-4 -23 -11 -23 -18 -1 -14 -37 -41 -70 -51 -14 -4 -28 -13 -32 -19 -5 -8 -8
-7 -8 2 0 8 -5 10 -12 5 -7 -4 -5 6 6 22 18 30 18 30 -17 -4 -33 -31 -39 -33
-62 -23 -31 14 -33 32 -2 32 18 0 19 -2 7 -10 -13 -8 -13 -10 1 -10 43 0 109
91 122 170 13 75 20 136 18 155 -2 11 -4 30 -5 43 0 14 -6 20 -15 17 -10 -4
-12 1 -9 20 3 13 1 22 -3 19 -5 -3 -9 -1 -9 5 0 14 31 30 58 31 12 0 39 -7 60
-15z m-448 -9 c-7 -7 -13 -7 -20 0 -6 6 -3 10 10 10 13 0 16 -4 10 -10z m1350
-21 c0 -5 -5 -3 -10 5 -5 8 -10 20 -10 25 0 6 5 3 10 -5 5 -8 10 -19 10 -25z
m-1385 7 c-3 -3 -11 0 -18 7 -9 10 -8 11 6 5 10 -3 15 -9 12 -12z m1897 -16
c4 -6 8 -15 8 -21 0 -7 -3 -7 -8 0 -4 6 -13 10 -21 10 -8 0 -16 5 -18 11 -5
14 30 14 39 0z m-5211 -36 c18 -10 28 -42 12 -38 -5 0 -16 -2 -27 -7 -21 -9
-40 13 -26 31 6 6 7 14 3 17 -10 11 16 8 38 -3z m5203 -5 c3 -8 1 -15 -4 -15
-6 0 -10 7 -10 15 0 8 2 15 4 15 2 0 6 -7 10 -15z m656 -45 c0 -5 -5 -10 -11
-10 -5 0 -7 5 -4 10 3 6 8 10 11 10 2 0 4 -4 4 -10z m-5470 -55 c-7 -9 -7 -15
-1 -19 5 -4 14 2 20 11 9 16 10 15 11 -8 0 -15 3 -40 6 -56 6 -31 4 -32 -48
-34 -14 0 -15 -3 -5 -14 6 -7 14 -9 17 -4 3 4 15 7 27 6 12 0 20 -5 17 -9 -3
-4 -11 -5 -19 -1 -8 3 -15 1 -15 -5 0 -5 -9 -12 -20 -15 -16 -4 -22 2 -30 31
-15 54 -12 83 8 98 16 13 16 14 0 8 -10 -3 -18 -1 -18 5 0 6 9 11 21 11 15 0
19 4 15 16 -5 14 -4 15 9 4 11 -9 12 -16 5 -25z m480 -39 c0 -3 -4 -8 -10 -11
-5 -3 -10 -1 -10 4 0 6 5 11 10 11 6 0 10 -2 10 -4z m990 -11 c0 -18 -26 -20
-36 -3 -5 8 -2 9 9 5 10 -3 17 -2 17 3 0 6 2 10 5 10 3 0 5 -7 5 -15z m2800
-9 c0 -3 -4 -8 -10 -11 -5 -3 -10 -1 -10 4 0 6 5 11 10 11 6 0 10 -2 10 -4z
m43 -3 c-7 -2 -19 -2 -25 0 -7 3 -2 5 12 5 14 0 19 -2 13 -5z m96 -19 c13 -12
-8 -10 -29 2 l-25 15 25 -7 c14 -3 27 -8 29 -10z m-229 -15 c-19 -11 -52 -39
-73 -62 -22 -23 -34 -33 -29 -22 17 34 103 105 127 105 5 0 -6 -9 -25 -21z
m570 11 c11 -6 31 -22 46 -35 15 -14 30 -25 34 -25 4 0 7 -6 8 -12 13 -88 13
-94 -10 -137 -13 -25 -30 -47 -37 -49 -10 -3 -11 0 -5 9 7 12 5 12 -9 0 -18
-15 -23 -26 -7 -16 6 3 10 1 10 -4 0 -14 -6 -14 -31 -1 -10 6 -19 7 -19 3 0
-5 -10 -14 -21 -21 -19 -12 -25 -10 -55 19 -19 18 -34 39 -34 47 0 7 -4 10
-10 7 -5 -3 -10 -1 -10 5 0 7 -14 31 -30 54 -31 43 -31 43 -13 74 10 18 21 32
26 32 4 0 7 6 7 13 0 36 114 62 160 37z m-282 -33 c21 -22 28 -34 18 -34 -8 0
-13 3 -11 7 3 4 -4 15 -15 25 -18 16 -20 16 -20 2 0 -10 5 -17 12 -17 6 0 4
-6 -7 -13 -10 -8 -16 -18 -12 -23 3 -5 -1 -18 -9 -29 -8 -10 -14 -14 -14 -8 0
7 5 15 10 18 7 4 7 13 0 26 -9 15 -7 19 7 19 10 0 14 4 8 8 -11 8 -15 52 -5
52 3 0 21 -15 38 -33z m-150 -4 c-6 -7 -12 -13 -13 -13 -2 0 -5 6 -8 13 -3 7
3 13 14 13 13 0 15 -3 7 -13z m67 7 c-3 -5 2 -10 11 -10 10 0 15 -3 11 -6 -10
-10 -39 5 -32 16 3 5 8 10 11 10 3 0 2 -4 -1 -10z m-4041 -19 c4 -5 -3 -7 -14
-4 -23 6 -26 13 -6 13 8 0 17 -4 20 -9z m3977 -17 c8 4 5 0 -6 -9 -18 -14 -20
-14 -27 2 -11 30 -9 38 5 18 9 -11 19 -15 28 -11z m-79 9 c-6 -2 -10 -9 -7
-14 4 -5 -1 -6 -10 -2 -13 5 -14 7 -3 14 7 5 18 8 23 8 6 0 4 -3 -3 -6z m-48
-19 c3 -8 2 -12 -4 -9 -6 3 -10 10 -10 16 0 14 7 11 14 -7z m181 6 c-3 -5 -14
-10 -23 -10 -12 0 -13 -3 -4 -12 9 -9 17 -7 34 8 l23 19 -18 -21 c-9 -11 -15
-23 -13 -25 2 -2 -9 -5 -25 -6 -15 -1 -31 2 -34 6 -3 5 5 7 17 3 20 -5 21 -4
9 11 -12 15 -10 18 10 26 31 13 31 13 24 1z m-4365 -14 c0 -8 -4 -18 -10 -21
-6 -4 -7 1 -3 11 5 13 3 15 -7 9 -9 -5 -11 -4 -6 3 10 17 26 15 26 -2z m1230
-7 c19 -11 27 -18 18 -15 -12 3 -15 1 -12 -9 3 -8 11 -12 19 -9 7 3 15 -2 19
-11 4 -11 2 -14 -7 -10 -6 4 -1 -3 12 -14 15 -13 18 -21 10 -22 -11 0 -11 -2
-1 -6 6 -2 9 -9 6 -14 -3 -6 -11 -6 -18 -2 -7 4 -1 -2 13 -14 14 -12 22 -25
18 -29 -4 -4 -2 -13 5 -21 9 -11 7 -12 -8 -6 -16 6 -17 4 -6 -9 10 -12 9 -18
-3 -28 -13 -11 -14 -10 -9 6 4 10 -4 3 -18 -16 -13 -19 -32 -34 -41 -34 -9 1
-15 -2 -12 -6 14 -23 -56 -53 -152 -65 -42 -5 -73 16 -101 70 -19 37 -18 145
2 183 47 91 180 131 266 81z m631 -99 c0 -73 2 -81 12 -59 18 39 37 59 86 91
35 22 57 28 98 28 54 0 113 -21 113 -41 0 -6 5 -7 10 -4 6 3 10 -1 10 -9 0 -8
9 -21 20 -29 14 -10 21 -26 22 -55 1 -23 5 -39 9 -36 5 3 8 -10 7 -29 -1 -19
2 -39 6 -45 4 -7 2 -12 -5 -12 -10 0 -10 -3 -2 -11 28 -28 -60 -126 -122 -136
-28 -4 -36 -3 -31 5 5 8 0 12 -14 12 -26 0 -76 25 -84 42 -4 7 -4 3 -2 -10 2
-12 -3 -30 -12 -40 -10 -10 -13 -11 -7 -2 9 13 8 13 -7 1 -10 -7 -15 -18 -12
-23 8 -12 -56 -79 -68 -72 -5 3 -18 -6 -29 -20 -11 -15 -24 -24 -29 -21 -10 6
-33 -21 -27 -32 3 -5 -2 -17 -10 -28 -15 -19 -15 -19 -9 5 6 24 6 24 -9 -3 -9
-15 -13 -32 -10 -37 4 -6 -1 -13 -9 -16 -9 -3 -13 -10 -10 -15 3 -5 10 -6 16
-3 7 4 8 2 4 -5 -5 -7 -12 -9 -19 -3 -18 14 -47 11 -47 -5 0 -8 -4 -11 -10 -8
-5 3 -10 1 -10 -5 0 -6 -4 -9 -8 -6 -5 3 -7 -17 -4 -43 4 -54 -7 -68 -37 -49
-15 9 -17 16 -10 30 6 12 6 18 0 18 -5 0 -8 9 -6 20 2 11 -1 20 -7 20 -6 0 -9
3 -5 6 17 17 -79 169 -157 249 -40 41 -59 53 -76 50 -19 -4 -20 -2 -8 12 22
28 101 73 127 74 66 2 62 15 -13 39 -42 14 -76 28 -76 31 0 4 -13 12 -30 19
-22 9 -31 21 -37 49 -9 44 -6 112 5 123 13 13 106 23 99 11 -5 -8 24 -10 91
-7 141 6 176 12 217 40 20 13 40 24 45 24 6 0 10 4 10 9 0 13 44 18 52 6 4 -5
8 -48 9 -95z m2352 85 c-7 -21 -13 -19 -13 6 0 11 4 18 10 14 5 -3 7 -12 3
-20z m41 9 c3 -8 2 -12 -4 -9 -6 3 -10 10 -10 16 0 14 7 11 14 -7z m254 -9
c-3 -3 -9 2 -12 12 -6 14 -5 15 5 6 7 -7 10 -15 7 -18z m-115 0 c-3 -9 -8 -14
-10 -11 -3 3 -2 9 2 15 9 16 15 13 8 -4z m63 3 c-1 -7 -5 -19 -9 -25 -6 -9 -1
-13 15 -13 18 0 20 -2 8 -10 -8 -5 -15 -15 -15 -21 0 -15 -33 -21 -41 -8 -3 6
2 21 10 34 9 14 14 25 10 25 -4 0 -1 7 6 15 15 18 19 19 16 3z m-186 -30 c0
-4 -4 -8 -9 -8 -6 0 -12 4 -15 8 -3 5 1 9 9 9 8 0 15 -4 15 -9z m-35 -8 c3 -5
1 -10 -4 -10 -6 0 -11 5 -11 10 0 6 2 10 4 10 3 0 8 -4 11 -10z m85 0 c0 -5
-2 -10 -4 -10 -3 0 -8 5 -11 10 -3 6 -1 10 4 10 6 0 11 -4 11 -10z m-26 -16
c3 -8 2 -12 -4 -9 -6 3 -10 10 -10 16 0 14 7 11 14 -7z m-3689 -4 c10 8 19 8
34 0 12 -6 21 -8 21 -5 0 16 60 -29 84 -64 16 -22 32 -38 37 -35 5 3 9 0 9 -6
0 -6 7 -18 15 -26 15 -15 19 -27 30 -96 5 -35 9 -38 45 -44 21 -4 52 -15 69
-25 37 -22 91 -95 91 -122 0 -17 2 -18 18 -6 15 13 16 12 3 -3 -7 -10 -17 -16
-21 -13 -5 3 -11 1 -15 -5 -4 -6 -11 -8 -16 -5 -5 3 -6 0 -4 -8 3 -7 -3 -21
-14 -31 -11 -10 -17 -25 -14 -34 4 -9 2 -13 -4 -9 -6 4 -16 1 -22 -7 -6 -7
-23 -12 -39 -10 -25 3 -26 3 -3 -4 32 -10 38 -29 11 -37 -11 -3 -17 -11 -14
-17 5 -7 2 -8 -6 -3 -10 6 -12 4 -8 -7 5 -12 0 -15 -25 -13 -28 3 -29 1 -14
-10 17 -12 17 -13 0 -20 -57 -24 -106 -11 -154 42 -41 43 -59 87 -59 142 0 43
-4 53 -25 67 -14 9 -28 28 -32 43 -3 14 -14 37 -25 50 -10 13 -18 31 -18 41 0
9 -9 27 -20 40 -15 18 -17 26 -8 31 7 4 17 5 23 1 5 -3 4 2 -4 11 -7 9 -19 17
-25 17 -6 0 -4 -5 4 -10 8 -5 10 -10 4 -10 -19 0 -24 12 -12 34 6 11 7 18 3
13 -12 -10 -44 66 -34 78 5 5 9 14 9 20 0 5 -5 3 -10 -5 -5 -8 -10 -10 -10 -4
0 6 6 16 13 22 22 19 112 50 115 41 2 -6 10 -5 17 1z m3795 -10 c0 -15 -6 -19
-24 -18 -14 1 -22 6 -20 10 3 5 9 6 14 3 4 -3 10 2 14 10 8 21 16 19 16 -5z
m-102 -25 c2 -1 -8 -5 -20 -7 -18 -3 -24 0 -24 13 0 14 4 16 21 7 11 -6 21
-12 23 -13z m77 -23 c-3 -3 -11 0 -18 7 -9 10 -8 11 6 5 10 -3 15 -9 12 -12z
m5 -14 c8 2 12 2 9 -2 -10 -11 -50 -16 -44 -5 4 5 1 9 -4 9 -6 0 -11 5 -11 12
0 7 6 6 18 -4 9 -9 24 -13 32 -10z m-4010 -10 c0 -5 4 -7 9 -3 13 7 22 -8 13
-21 -5 -7 -22 -3 -49 11 -23 13 -40 25 -38 27 8 8 65 -4 65 -14z m3887 0 c2
-17 0 -19 -7 -8 -5 8 -6 18 -4 22 8 12 10 10 11 -14z m155 -10 c-8 -8 -9 -4
-5 13 4 13 8 18 11 10 2 -7 -1 -18 -6 -23z m1128 22 c0 -5 -2 -10 -4 -10 -3 0
-8 5 -11 10 -3 6 -1 10 4 10 6 0 11 -4 11 -10z m-1090 -20 c6 -11 8 -20 6 -20
-3 0 -10 9 -16 20 -6 11 -8 20 -6 20 3 0 10 -9 16 -20z m37 4 c2 -5 -4 -19
-12 -29 -16 -19 -16 -19 -6 2 14 27 14 36 1 28 -5 -3 -10 -1 -10 5 0 14 22 8
27 -6z m-5077 -19 c0 -8 -4 -15 -10 -15 -5 0 -7 7 -4 15 4 8 8 15 10 15 2 0 4
-7 4 -15z m4971 1 c-10 -11 -9 -16 5 -24 15 -8 14 -10 -4 -14 -16 -4 -19 -2
-15 10 5 11 3 13 -8 7 -8 -5 -5 1 5 13 21 24 36 31 17 8z m-125 -38 c10 -13
15 -20 10 -16 -5 4 -15 3 -22 -3 -8 -7 -14 -7 -19 1 -4 6 -3 10 2 9 20 -3 25
2 13 16 -7 8 -10 15 -8 15 3 0 13 -10 24 -22z m68 7 c-4 -8 -11 -15 -16 -15
-6 0 -5 6 2 15 7 8 14 15 16 15 2 0 1 -7 -2 -15z m-4857 -47 c-3 -7 -5 -2 -5
12 0 14 2 19 5 13 2 -7 2 -19 0 -25z m4933 24 c0 -4 -6 -14 -12 -21 -11 -12
-9 -13 7 -7 15 6 17 4 8 -5 -15 -15 -38 -2 -24 15 6 7 8 16 4 19 -3 4 -1 7 5
7 7 0 12 -4 12 -8z m222 -7 c12 -3 33 -15 46 -28 20 -20 21 -27 12 -51 -5 -15
-8 -32 -4 -37 3 -5 0 -9 -6 -9 -7 0 -10 -7 -6 -15 3 -8 -1 -32 -8 -52 -12 -36
-7 -146 9 -193 3 -9 -2 -6 -11 5 -16 19 -16 19 -9 -10 12 -47 8 -68 -17 -90
-24 -20 -28 -27 -28 -45 0 -7 -6 -7 -19 0 -11 5 -27 7 -37 3 -11 -4 -15 -3
-11 4 11 17 -221 110 -318 129 l-34 6 23 47 c14 27 38 54 58 65 18 11 56 38
83 61 46 38 148 105 161 105 2 0 15 10 27 21 12 12 15 18 7 14 -8 -5 -5 3 8
17 12 13 19 28 15 31 -3 4 -1 7 5 7 7 0 12 7 12 16 0 8 4 12 10 9 5 -3 20 -8
32 -10z m428 -6 c0 -5 -7 -9 -15 -9 -15 0 -20 12 -9 23 8 8 24 -1 24 -14z
m481 3 c-7 -2 -18 1 -23 6 -8 8 -4 9 13 5 13 -4 18 -8 10 -11z m-1344 -19 c0
-16 -2 -22 -4 -15 -3 6 -9 9 -15 6 -5 -3 -4 3 4 15 7 12 13 21 14 21 1 0 1
-12 1 -27z m823 11 c0 -8 -5 -12 -10 -9 -6 4 -8 11 -5 16 9 14 15 11 15 -7z
m-4795 -30 c-17 -18 -41 -18 -48 0 -9 23 12 36 39 24 19 -9 21 -13 9 -24z
m4095 3 c9 -3 5 -6 -10 -6 -19 -1 -21 -4 -11 -10 8 -5 21 -7 30 -3 9 3 13 2 9
-2 -3 -4 -17 -9 -31 -10 -18 -2 -24 1 -22 13 1 9 -2 25 -8 36 -9 19 -9 19 9 4
10 -9 26 -19 34 -22z m138 6 c-19 -24 -46 -34 -54 -21 -4 7 -3 8 4 4 7 -4 12
-2 12 3 0 6 6 10 13 9 6 -2 11 2 10 8 -1 6 5 11 12 11 11 0 12 -3 3 -14z
m-4568 -4 c105 -23 144 -89 141 -242 -1 -34 -4 -46 -13 -41 -7 4 -8 3 -4 -4 4
-6 1 -30 -5 -52 -10 -32 -17 -40 -33 -38 -13 2 -20 -2 -18 -10 1 -8 -2 -11 -8
-7 -5 3 -15 3 -21 -1 -8 -4 -7 -9 2 -15 11 -7 11 -9 -2 -9 -9 0 -30 -13 -47
-30 -17 -16 -42 -32 -54 -35 -35 -9 -97 0 -111 15 -9 10 -7 10 8 0 14 -11 12
-5 -7 17 -99 121 -64 374 62 440 50 27 44 26 110 12z m4490 -11 c0 -6 -6 -5
-15 2 -8 7 -15 14 -15 16 0 2 7 1 15 -2 8 -4 15 -11 15 -16z m-116 -6 c3 -5
-1 -9 -9 -9 -8 0 -12 4 -9 9 3 4 7 8 9 8 2 0 6 -4 9 -8z m-4061 -14 c23 4 22
-4 -3 -11 -11 -3 -25 2 -32 11 -11 13 -11 14 2 7 8 -5 23 -8 33 -7z m-37 -19
c3 -6 15 -8 26 -6 14 4 17 2 9 -7 -6 -7 -7 -17 -3 -21 4 -5 -1 -5 -11 -2 -10
4 -16 3 -12 -3 3 -5 -3 -14 -14 -20 -14 -7 -22 -7 -26 1 -4 6 -13 8 -21 5 -17
-7 -18 6 -1 23 10 11 9 12 -3 6 -10 -6 -8 -1 4 13 21 24 41 28 52 11z m4094 1
c0 -5 -5 -10 -11 -10 -5 0 -7 5 -4 10 3 6 8 10 11 10 2 0 4 -4 4 -10z m80 0
c0 -5 -12 -10 -27 -9 l-28 1 25 8 c14 4 26 8 28 9 1 1 2 -3 2 -9z m-1969 -21
c16 -11 27 -25 23 -30 -3 -5 0 -8 7 -7 13 3 29 -23 50 -79 7 -20 16 -30 23
-26 6 4 4 -2 -4 -12 -9 -11 -10 -16 -2 -11 11 6 17 -4 13 -26 0 -4 6 -5 14 -2
11 5 13 2 9 -10 -4 -9 -3 -16 2 -14 5 2 10 -1 11 -6 1 -5 6 -12 11 -15 5 -3
37 -41 70 -83 61 -76 62 -77 93 -66 34 12 115 4 135 -13 7 -6 19 -7 25 -3 7 4
9 3 6 -3 -4 -6 3 -19 16 -29 14 -13 18 -14 9 -3 -7 9 -9 24 -6 34 6 14 15 16
46 11 26 -4 46 -2 59 8 21 14 59 11 59 -6 0 -5 -4 -7 -9 -4 -5 3 -14 -1 -21
-9 -16 -19 -7 -19 32 1 24 12 33 13 42 3 8 -9 8 -10 -1 -5 -7 4 -13 2 -13 -3
0 -6 5 -11 10 -11 6 0 5 -6 -2 -14 -7 -8 -17 -11 -23 -8 -5 3 7 -11 28 -30 27
-25 35 -38 25 -42 -32 -15 74 8 140 30 125 41 145 54 147 92 1 18 6 37 11 42
6 6 43 11 84 12 77 2 110 13 110 36 0 7 4 11 8 8 5 -3 15 3 24 12 8 9 24 23
36 31 11 8 18 19 15 24 -9 14 40 -14 60 -34 10 -11 15 -24 11 -31 -4 -7 -3 -8
5 -4 7 5 17 -5 26 -28 24 -56 19 -85 -19 -121 -19 -18 -32 -36 -28 -40 4 -5
-1 -5 -10 -2 -11 4 -15 2 -12 -7 3 -7 -10 -19 -28 -27 -35 -17 -62 -15 -52 4
4 7 -1 5 -10 -4 -19 -17 -66 -14 -66 5 -1 10 -21 -17 -21 -28 0 -3 -20 -26
-44 -51 -25 -25 -52 -60 -61 -78 -9 -17 -25 -42 -36 -54 -12 -13 -17 -27 -12
-34 5 -8 2 -11 -8 -6 -12 4 -15 0 -11 -16 4 -18 3 -19 -6 -7 -7 10 -11 11 -11
3 0 -7 -9 -22 -19 -32 -16 -16 -18 -26 -10 -60 17 -75 -16 -116 -85 -109 -50
6 -140 62 -130 81 4 7 3 9 -1 4 -5 -4 -24 7 -42 25 -32 31 -45 57 -21 42 7 -4
8 -3 4 5 -4 6 -11 9 -16 6 -14 -9 -31 30 -18 43 7 7 5 10 -7 9 -10 -1 -20 5
-22 13 -4 13 -3 13 6 0 7 -9 11 -10 11 -3 0 6 -4 14 -8 17 -5 3 -9 20 -10 38
0 18 -6 34 -11 36 -23 8 -9 50 29 87 l39 38 -22 20 c-20 17 -90 57 -100 57 -3
0 1 -17 9 -37 15 -43 18 -97 6 -89 -5 3 -9 -1 -10 -9 -1 -8 -3 -22 -4 -30 -1
-8 -7 -15 -15 -15 -7 0 -13 -9 -13 -20 0 -25 -17 -26 -23 -2 -3 12 -5 10 -6
-7 -1 -17 -5 -22 -17 -17 -11 4 -15 2 -11 -8 4 -9 -5 -19 -24 -26 -16 -7 -29
-17 -29 -22 0 -9 -20 -8 -127 6 -12 1 -30 9 -39 17 -15 12 -17 12 -9 0 5 -9
-2 -7 -18 5 -30 22 -57 81 -57 125 0 26 -6 33 -50 53 -27 13 -46 26 -43 30 4
4 1 5 -7 2 -21 -8 -137 29 -119 38 8 3 1 4 -14 2 -16 -2 -49 2 -75 8 -36 10
-42 14 -28 19 11 4 24 3 30 -3 5 -5 15 -10 21 -10 5 0 2 5 -7 11 -10 5 -15 16
-11 25 5 13 1 13 -23 2 -16 -7 -32 -17 -35 -22 -20 -27 -129 31 -129 70 0 44
49 133 119 216 10 13 45 54 76 91 48 57 77 82 103 86 2 1 17 -8 33 -20z m2514
-9 c-1 -22 2 -29 12 -26 7 3 13 1 13 -4 0 -6 -5 -10 -11 -10 -5 0 -8 -4 -4
-10 3 -5 13 -6 23 -3 9 4 1 -7 -18 -23 -19 -16 -38 -28 -42 -26 -4 1 -7 -3 -5
-9 1 -6 -9 -18 -23 -27 -22 -15 -24 -15 -12 -1 10 14 10 18 -4 23 -9 4 -14 9
-11 13 4 3 2 12 -4 19 -8 10 -6 12 8 9 12 -2 20 2 20 11 0 8 -6 13 -14 10 -15
-6 -17 3 -5 22 7 9 71 62 77 62 1 0 1 -14 0 -30z m-1871 12 c2 -4 0 -14 -6
-22 -8 -12 -9 -12 -5 2 3 9 1 19 -6 22 -9 3 -9 5 0 5 6 1 14 -3 17 -7z m334 0
c14 12 14 10 3 -10 -7 -12 -16 -20 -20 -17 -15 9 -19 -34 -5 -46 8 -6 11 -15
8 -20 -3 -5 0 -8 8 -7 7 2 12 -3 10 -10 -1 -8 2 -11 8 -7 8 5 7 12 -4 24 -15
17 -16 45 -1 58 4 4 5 2 1 -4 -5 -9 1 -11 24 -7 19 4 30 2 30 -5 0 -6 6 -11
14 -11 8 0 17 -4 20 -9 3 -4 -8 -7 -24 -5 -17 2 -30 -1 -30 -7 0 -6 -4 -8 -8
-5 -4 2 -6 -11 -4 -30 4 -29 1 -34 -16 -34 -11 0 -23 -7 -26 -15 -5 -14 -9
-14 -35 -1 -15 8 -31 13 -34 10 -3 -3 -8 -1 -11 4 -4 6 5 9 20 7 17 -1 24 2
20 10 -2 7 1 18 7 25 9 10 9 11 0 6 -7 -4 -13 -2 -13 3 0 6 8 12 18 12 16 1
16 2 -1 6 -9 2 -15 9 -12 14 4 5 1 9 -5 9 -7 0 -10 -7 -7 -15 4 -8 2 -17 -2
-19 -7 -5 -8 16 -2 46 3 15 46 56 49 47 3 -6 10 -5 20 3z m-180 -46 c-10 -7
-18 -20 -18 -29 0 -12 6 -10 26 10 14 14 28 22 32 19 3 -4 -4 -13 -16 -22 -21
-14 -22 -41 -1 -28 5 3 7 9 5 13 -3 4 1 8 9 8 9 0 11 -5 6 -16 -5 -9 -6 -23
-3 -31 2 -8 1 -12 -3 -8 -5 4 -14 3 -22 -3 -9 -8 -13 -8 -13 -1 0 6 -9 9 -20
7 -10 -2 -36 1 -57 7 -21 7 -41 11 -45 10 -5 -1 -8 3 -8 8 0 9 18 13 63 13 9
0 17 5 17 11 0 6 5 4 10 -4 8 -12 10 -11 10 7 0 12 8 27 18 32 24 15 30 13 10
-3z m239 -61 c0 -8 -4 -12 -9 -9 -5 3 -6 10 -3 15 9 13 12 11 12 -6z m1801
-77 c49 -156 49 -167 -6 -181 -14 -3 -20 -1 -15 6 4 6 1 8 -8 5 -8 -3 -23 -9
-34 -13 -16 -6 -17 -5 -5 4 10 7 11 11 3 11 -7 0 -13 6 -13 13 0 9 -13 14 -37
15 -57 2 -112 13 -119 23 -3 5 -10 7 -15 3 -5 -3 -6 -10 -3 -16 4 -5 -4 -4
-17 2 -12 7 -45 16 -73 20 l-51 8 45 1 c30 1 40 4 31 10 -11 7 -9 10 8 16 11
3 21 11 21 16 0 5 3 8 8 7 4 0 27 8 52 20 24 11 48 18 52 16 5 -3 7 0 6 7 -2
7 7 18 20 24 33 18 37 24 10 18 -23 -5 -23 -5 -2 10 23 17 72 33 92 29 6 -2
12 2 12 8 0 27 12 2 38 -82z m-4058 62 c-8 -5 -19 -10 -25 -10 -5 0 -3 5 5 10
8 5 20 10 25 10 6 0 3 -5 -5 -10z m2140 6 c0 -11 -19 -15 -25 -6 -3 5 1 10 9
10 9 0 16 -2 16 -4z m2120 -56 c-6 -11 -13 -20 -16 -20 -2 0 0 9 6 20 6 11 13
20 16 20 2 0 0 -9 -6 -20z m-4235 -68 c-3 -3 -11 0 -18 7 -9 10 -8 11 6 5 10
-3 15 -9 12 -12z m665 -12 c0 -5 -5 -10 -11 -10 -5 0 -7 5 -4 10 3 6 8 10 11
10 2 0 4 -4 4 -10z m-730 -30 c1 12 3 12 14 -2 10 -14 15 -15 26 -5 12 10 12
9 2 -4 -6 -9 -11 -18 -9 -20 1 -2 1 -3 -1 -2 -2 0 -15 -5 -30 -13 -25 -13 -27
-12 -33 9 -7 28 10 55 22 35 7 -10 9 -10 9 2z m-741 -65 c0 -5 -6 1 -14 15 -8
14 -14 30 -14 35 0 6 6 -1 14 -15 8 -14 14 -29 14 -35z m2945 16 c-2 -3 -12 3
-22 13 -16 17 -16 18 5 5 12 -7 20 -15 17 -18z m-2174 -6 c0 -2 -10 -9 -22
-15 -22 -11 -22 -10 -4 4 21 17 26 19 26 11z m4265 -45 c12 -19 -12 -10 -31
11 -19 22 -19 22 3 10 12 -6 25 -16 28 -21z m88 -47 c-29 -37 -31 -38 -57 -18
-19 14 -13 40 7 29 7 -3 3 2 -8 11 -18 15 -17 15 32 14 l52 -2 -26 -34z
m-5777 6 c3 -5 -3 -6 -13 -2 -16 6 -16 5 -4 -10 12 -15 12 -17 -4 -11 -15 6
-16 4 -5 -16 9 -17 4 -14 -23 11 -20 18 -34 36 -32 39 6 9 74 -1 81 -11z
m5164 9 c0 -5 4 -6 10 -3 6 4 7 -1 3 -11 -6 -16 -7 -15 -20 2 -12 16 -13 16
-13 1 0 -9 -4 -17 -10 -17 -5 0 -10 -7 -10 -16 0 -8 -5 -12 -10 -9 -6 4 -8 10
-5 15 3 4 -3 11 -12 14 -9 4 -20 1 -25 -6 -5 -9 -8 -10 -8 -1 0 6 9 18 20 26
22 15 80 19 80 5z m-4879 -51 c10 -3 19 0 19 5 0 6 6 5 15 -2 12 -10 15 -10
15 1 0 11 2 11 9 0 8 -13 12 -13 27 0 16 12 17 12 9 -1 -7 -12 -6 -13 7 -3 8
7 18 9 22 5 10 -9 106 -9 106 0 0 3 -8 9 -17 11 -17 4 -17 5 -1 6 10 0 23 -8
30 -19 7 -11 19 -20 27 -20 11 0 9 4 -5 15 -18 14 -16 14 21 9 22 -3 48 -10
57 -15 9 -5 26 -9 37 -9 11 0 25 -8 30 -17 6 -10 11 -13 11 -8 1 28 20 -25 20
-57 0 -30 -6 -41 -32 -61 -35 -25 -106 -50 -120 -41 -4 3 -5 -1 -2 -9 3 -9
-11 -22 -40 -37 -24 -14 -43 -27 -40 -31 2 -4 -8 -15 -22 -24 -15 -9 -23 -11
-19 -5 6 10 1 11 -19 6 -16 -4 -26 -2 -26 4 0 6 -4 9 -9 6 -4 -3 -27 4 -51 15
-23 11 -48 18 -55 15 -9 -3 -16 5 -19 22 -23 121 -29 142 -37 142 -6 0 -8 -4
-5 -9 3 -4 8 -31 12 -60 l6 -51 -31 6 c-20 4 -31 2 -31 -5 0 -6 -9 -11 -21
-11 -11 0 -17 5 -14 10 3 6 0 10 -8 10 -13 0 -32 51 -28 74 1 4 -5 19 -13 31
-13 19 -13 25 -2 34 7 6 15 8 18 6 3 -3 3 6 1 20 -3 14 -4 25 -2 25 2 0 19 -4
37 -10 27 -7 33 -6 29 4 -4 9 4 15 22 18 24 3 28 1 24 -16 -3 -21 0 -16 20 34
8 19 11 21 14 9 2 -10 13 -19 24 -22z m4829 -12 c14 -8 19 -14 13 -15 -7 0
-13 -7 -13 -15 0 -9 -9 -15 -25 -15 -14 0 -25 -5 -25 -11 0 -8 -5 -8 -15 1 -8
7 -15 9 -15 5 0 -4 -7 -2 -15 5 -11 9 -12 17 -4 31 5 11 13 18 17 16 4 -3 16
-1 27 4 27 10 26 10 55 -6z m-929 -22 c13 -16 12 -17 -3 -4 -17 13 -22 21 -14
21 2 0 10 -8 17 -17z m1647 -29 c19 -6 22 -13 22 -63 0 -60 -27 -241 -37 -251
-3 -3 -3 7 -1 23 3 17 1 27 -7 27 -6 0 -12 15 -13 33 -2 51 -29 116 -67 163
-24 29 -32 45 -24 50 8 5 10 2 5 -7 -4 -8 -1 -6 7 3 8 10 17 15 20 11 4 -3 7
-1 7 5 0 13 50 16 88 6z m-6128 -70 c0 -8 -5 -14 -11 -14 -5 0 -7 6 -3 13 6 9
4 9 -8 -1 -13 -10 -17 -10 -21 2 -4 9 1 16 11 19 22 5 32 -1 32 -19z m2316 3
c1 -9 -2 -15 -7 -11 -5 3 -9 1 -9 -5 0 -5 -9 -9 -19 -8 -11 0 -18 4 -15 8 2 4
-2 10 -8 13 -7 4 -3 4 10 2 20 -4 21 -2 11 11 -11 13 -10 14 11 11 13 -1 24
-11 26 -21z m-22 -62 c-4 -8 -9 -13 -13 -11 -3 2 -15 0 -26 -5 -17 -6 -17 -8
-2 -8 9 -1 17 -5 17 -11 0 -5 -7 -7 -15 -4 -8 4 -15 1 -15 -5 0 -7 -8 -8 -27
-1 -26 9 -27 9 -9 -5 11 -8 15 -15 9 -15 -24 0 -33 26 -17 48 8 12 12 22 8 22
-4 0 -5 2 -2 5 3 3 17 1 32 -4 29 -12 59 -4 49 12 -3 6 -1 7 5 3 6 -4 9 -13 6
-21z m2108 -22 c1 -53 -24 -98 -73 -130 -35 -23 -52 -27 -113 -28 -50 0 -85 6
-115 19 l-43 20 34 17 c18 10 42 26 53 36 40 37 75 53 129 59 31 4 56 10 56
14 0 4 14 6 30 4 25 -3 30 0 30 18 0 12 3 19 6 16 3 -3 5 -24 6 -45z m1050 8
c-17 -10 -27 -71 -12 -71 6 0 8 5 5 10 -3 6 2 10 11 10 16 0 15 -2 -2 -22 -16
-18 -17 -21 -2 -15 13 4 15 2 11 -10 -4 -10 -2 -14 4 -10 8 5 11 -14 9 -58 0
-36 -4 -65 -7 -65 -4 0 -6 -11 -5 -24 0 -13 4 -22 7 -20 4 2 6 -7 5 -20 0 -13
-4 -22 -8 -19 -5 2 -8 -1 -8 -7 0 -6 -5 -8 -10 -5 -6 4 -9 2 -8 -4 2 -5 -6
-17 -17 -26 -20 -16 -20 -16 2 -6 14 7 24 8 28 1 8 -13 25 -13 25 1 0 5 -4 7
-10 4 -5 -3 -10 -1 -10 4 0 6 7 11 15 11 8 0 15 -7 15 -16 0 -8 5 -12 10 -9 6
3 10 1 10 -4 0 -6 -18 -11 -40 -11 -25 0 -40 -5 -41 -12 -2 -47 -8 -78 -17
-94 -7 -12 -12 -14 -12 -5 0 9 -4 10 -12 4 -7 -6 -28 -11 -45 -11 -32 -1 -33
1 -34 41 -1 34 -2 37 -8 17 -6 -22 -8 -23 -14 -7 -4 11 -12 15 -19 11 -9 -5
-8 -2 1 9 12 16 12 17 -5 11 -10 -4 -15 -3 -11 1 7 9 40 14 107 17 19 1 27 3
18 5 -32 8 -18 30 15 24 5 -1 6 3 2 9 -4 7 -12 7 -25 0 -26 -14 -50 -13 -30 1
11 7 12 12 3 15 -19 8 -3 34 21 34 16 0 18 2 7 9 -13 8 -13 12 0 27 17 21 16
26 -8 35 -17 7 -16 8 2 8 17 1 17 3 5 11 -13 8 -13 10 2 10 9 0 20 5 24 12 4
7 3 8 -4 4 -7 -4 -12 -2 -12 5 0 8 -5 8 -17 -2 -13 -9 -12 -6 3 11 12 15 20
36 18 53 -2 16 2 27 9 27 7 0 6 4 -3 10 -13 9 -13 10 0 11 10 0 9 3 -4 8 -11
4 -20 17 -21 29 -1 11 2 19 7 16 4 -3 8 0 8 5 0 6 -6 12 -12 13 -11 1 32 9 87
16 6 1 4 -2 -3 -7z m-4112 -76 c-7 -8 -17 -15 -23 -15 -6 0 -2 7 9 15 25 19
30 19 14 0z m1184 -8 c16 -12 16 -13 -3 -13 -11 0 -17 4 -15 8 3 4 -2 5 -10 2
-9 -3 -16 -1 -16 5 0 15 22 14 44 -2z m-24 -31 c0 -6 5 -4 10 4 8 13 10 13 10
-1 0 -9 12 -24 26 -34 21 -14 28 -14 42 -3 13 11 14 11 7 -1 -6 -11 -4 -13 7
-9 9 4 15 0 15 -8 0 -8 -5 -14 -11 -14 -6 0 -4 -6 5 -13 13 -10 14 -16 5 -28
-9 -13 -17 -10 -58 17 -26 17 -45 34 -43 36 3 2 -13 12 -35 22 -41 18 -44 23
-34 50 5 12 10 13 30 4 13 -6 24 -16 24 -22z m-1161 -40 c-8 -8 -13 -7 -16 1
-4 10 -10 10 -26 1 -21 -11 -21 -11 -4 15 18 28 7 46 -13 22 -7 -8 -17 -15
-22 -15 -6 0 0 9 13 19 24 20 24 19 52 -7 20 -19 24 -29 16 -36z m4352 47 c13
-16 12 -17 -3 -4 -10 7 -18 15 -18 17 0 8 8 3 21 -13z m-3141 -8 c-7 -9 -15
-13 -19 -10 -3 3 1 10 9 15 21 14 24 12 10 -5z m2460 -20 c0 -8 -9 -15 -20
-15 -11 0 -20 5 -20 11 0 6 7 9 15 5 8 -3 15 -1 15 4 0 6 2 10 5 10 3 0 5 -7
5 -15z m-3838 -9 c20 -7 68 -36 106 -64 80 -60 164 -103 246 -126 57 -17 59
-17 80 3 54 51 150 65 221 32 48 -22 99 -77 90 -99 -3 -9 -2 -18 3 -21 5 -3 7
-21 5 -38 -3 -20 -9 -30 -16 -26 -6 4 -8 0 -4 -10 5 -13 1 -17 -16 -18 l-22 0
23 -9 c12 -5 22 -12 22 -14 0 -3 -7 -3 -15 0 -8 4 -15 1 -15 -5 0 -6 -6 -11
-14 -11 -8 0 -17 -11 -20 -25 -4 -14 -11 -23 -16 -20 -5 3 -16 -7 -24 -22 -8
-15 -15 -24 -16 -20 0 12 -35 -25 -35 -37 0 -30 -98 -9 -145 30 -17 15 -37 39
-46 55 -10 20 -22 29 -39 29 -14 0 -25 4 -25 10 0 5 -13 7 -32 3 -20 -4 -29
-3 -25 4 4 7 -9 9 -35 7 -26 -2 -45 1 -50 9 -6 9 -10 9 -16 0 -5 -8 -13 -9
-22 -3 -18 12 -33 13 -26 2 2 -4 -4 -8 -14 -8 -17 0 -18 2 -4 17 13 15 13 17
-1 23 -9 3 -14 2 -11 -3 10 -16 -18 -28 -61 -28 -23 0 -40 3 -38 8 3 4 13 5
23 2 10 -2 29 5 43 17 l24 22 -25 -16 c-32 -21 -51 -20 -44 2 5 16 5 16 -6 0
-12 -20 -35 -25 -24 -5 6 9 4 9 -8 -1 -8 -7 -15 -23 -15 -37 0 -37 -23 -85
-42 -86 -9 -1 -6 -4 9 -10 17 -5 7 -6 -30 -3 -30 4 -57 8 -59 10 -3 3 51 390
65 467 6 31 34 35 96 13z m1408 8 c0 -8 -19 -13 -24 -6 -3 5 1 9 9 9 8 0 15
-2 15 -3z m-1542 -23 c3 -8 -1 -12 -9 -9 -7 2 -15 10 -17 17 -3 8 1 12 9 9 7
-2 15 -10 17 -17z m306 -26 c-4 -8 -8 -15 -10 -15 -2 0 -4 7 -4 15 0 8 4 15
10 15 5 0 7 -7 4 -15z m1545 -53 c-18 -7 -40 8 -33 20 6 10 4 11 -7 1 -7 -7
-19 -13 -27 -13 -9 0 -7 9 8 31 l22 30 23 -33 c13 -18 19 -35 14 -36z m-219
54 c0 -9 -40 -13 -46 -5 -3 5 6 9 20 9 14 0 26 -2 26 -4z m12 -33 c-15 -6 -6
-23 11 -19 7 1 9 1 6 -1 -4 -2 -5 -13 -2 -23 3 -11 9 -18 13 -15 4 3 13 -2 20
-10 10 -12 10 -15 0 -15 -8 0 -9 -5 -4 -13 5 -7 -1 -1 -13 13 -13 14 -23 30
-23 37 0 6 -5 15 -11 19 -8 4 -9 0 -4 -15 3 -12 2 -21 -3 -21 -6 0 -9 11 -7
25 1 14 -2 25 -6 25 -5 0 -10 -10 -10 -22 l-2 -23 -4 23 c-2 12 -9 20 -14 17
-10 -7 -13 8 -3 18 3 3 20 5 37 5 18 -1 26 -3 19 -5z m940 -44 c29 -25 32 -33
31 -86 0 -32 2 -46 4 -30 3 15 9 27 14 27 6 0 8 -9 4 -20 -5 -15 -3 -18 9 -14
9 3 13 10 10 15 -3 5 0 9 5 9 14 0 14 -6 0 -33 -9 -17 -9 -20 1 -10 9 9 21 6
51 -10 47 -27 89 -63 89 -78 0 -5 5 -7 10 -4 6 4 9 1 8 -6 -2 -6 3 -14 11 -17
8 -3 11 0 7 7 -5 7 -1 9 9 4 25 -9 -4 -23 -35 -17 -19 4 -17 1 9 -11 40 -18
44 -19 35 -3 -4 7 -3 8 4 4 6 -4 9 -13 6 -20 -6 -16 -117 -13 -122 4 -2 5 -8
10 -13 10 -6 0 -7 -4 -4 -10 4 -6 -1 -7 -11 -3 -16 6 -15 7 2 20 10 7 27 13
38 13 20 1 20 1 2 11 -14 9 -20 8 -26 -1 -4 -7 -13 -9 -20 -5 -9 5 -11 4 -6
-3 4 -7 1 -13 -6 -13 -7 -1 -23 -3 -36 -4 -12 -1 -25 2 -28 7 -3 5 -14 6 -24
3 -26 -8 -32 8 -12 31 9 10 17 29 18 42 1 30 -5 28 -17 -8 -6 -16 -15 -30 -20
-30 -6 0 -5 10 1 23 11 21 11 21 -5 2 -8 -11 -13 -25 -11 -32 3 -6 -4 -15 -15
-18 -10 -4 -17 -11 -14 -16 3 -5 -2 -6 -11 -2 -12 4 -15 3 -10 -5 9 -15 7 -15
-43 3 -28 10 -41 11 -41 3 0 -6 -2 -9 -5 -6 -3 2 8 42 23 89 16 46 37 114 47
151 20 76 34 82 87 37z m-812 -29 c11 -28 11 -33 -5 -48 -18 -16 -18 -16 -6 1
11 14 11 17 -1 17 -7 0 -20 -9 -28 -19 -18 -26 -32 -17 -20 14 5 14 6 25 3 25
-4 0 3 7 15 16 12 8 19 20 16 26 -4 6 -2 8 3 5 6 -4 16 -20 23 -37z m44 -2
c-3 -4 -11 -5 -19 -1 -21 7 -19 12 4 10 11 0 18 -5 15 -9z m-2523 -21 c-10 -9
-11 -8 -5 6 3 10 9 15 12 12 3 -3 0 -11 -7 -18z m2742 -32 c-15 -11 -13 -12
14 -9 18 2 35 -1 38 -6 3 -6 -3 -10 -14 -10 -12 0 -20 -6 -18 -12 1 -7 -6 -12
-15 -12 -10 1 -14 -4 -11 -12 3 -8 9 -12 13 -9 5 3 12 0 16 -6 4 -8 3 -9 -4
-5 -7 4 -12 2 -12 -5 0 -8 -4 -8 -15 1 -14 11 -14 10 -5 -14 5 -15 6 -25 1
-22 -5 3 -22 -1 -37 -9 -18 -9 -32 -11 -38 -5 -17 17 -12 63 8 86 20 21 22 22
41 6 11 -9 14 -10 8 -2 -15 16 -17 34 -4 26 5 -4 8 2 6 11 -4 26 2 32 25 26
19 -5 19 -6 3 -18z m-313 -35 c0 -5 -2 -10 -4 -10 -3 0 -8 5 -11 10 -3 6 -1
10 4 10 6 0 11 -4 11 -10z m1357 -20 c-1 -12 -8 -20 -20 -20 -10 0 -15 -4 -12
-10 10 -16 -1 -12 -15 6 -8 8 -9 14 -4 13 20 -4 35 2 29 11 -3 5 -12 7 -20 3
-8 -3 -15 -2 -15 1 0 9 43 25 52 20 4 -3 6 -13 5 -24z m1183 -89 c0 -6 -4 -11
-10 -11 -5 0 -10 6 -10 13 0 8 -4 7 -10 -3 -11 -17 -13 -1 -4 24 5 13 8 13 20
1 8 -7 14 -18 14 -24z m790 29 c0 -5 -5 -10 -11 -10 -5 0 -7 5 -4 10 3 6 8 10
11 10 2 0 4 -4 4 -10z m-1995 -131 c22 -10 58 -19 80 -20 22 0 35 -3 28 -5 -6
-3 -10 -15 -7 -28 4 -21 1 -22 -47 -20 -36 1 -71 13 -118 37 -60 32 -66 38
-63 63 2 15 8 36 13 46 9 16 13 14 42 -19 17 -20 50 -44 72 -54z m-3201 26
c-3 -7 -13 -12 -22 -11 -9 2 -16 6 -14 9 1 4 2 11 2 16 0 5 9 7 19 4 11 -3 17
-11 15 -18z m3066 16 c0 -3 -4 -12 -9 -19 -6 -11 -9 -9 -13 5 -3 12 0 20 8 20
8 0 14 -3 14 -6z m-1773 -38 c2 -5 -4 -16 -13 -24 -14 -11 -18 -11 -30 6 -10
14 -11 21 -3 26 15 9 42 5 46 -8z m-1817 -36 c0 -5 8 -3 17 4 17 13 17 13 1
-12 -25 -40 -47 -112 -49 -165 -1 -27 -6 -53 -10 -59 -7 -10 -9 -16 -9 -34 0
-12 -27 -8 -42 7 -16 16 -17 171 0 181 7 4 10 15 7 23 -7 17 25 31 63 28 12
-1 22 3 22 8 0 5 -8 9 -17 9 -39 0 -49 4 -28 12 26 10 45 10 45 -2z m328 -52
c4 -4 0 -5 -8 0 -9 5 -12 5 -7 -1 5 -5 16 -9 25 -9 27 -1 62 -16 62 -26 0 -5
5 -9 11 -9 5 0 7 5 4 10 -3 6 -1 10 4 10 6 0 11 -5 11 -11 0 -5 4 -7 10 -4 13
8 52 -19 42 -30 -4 -4 1 -5 10 -2 10 3 17 3 16 -1 -3 -9 34 -52 44 -52 5 0 7
3 7 8 -5 29 21 46 36 22 3 -6 -1 -7 -9 -4 -9 3 -16 1 -16 -5 0 -6 7 -11 15
-11 9 0 19 -10 24 -22 5 -15 10 -18 15 -9 4 6 3 18 -4 26 -8 10 -8 15 0 20 16
10 20 3 26 -52 10 -82 -33 -137 -136 -177 -56 -22 -70 -33 -70 -57 0 -16 -8
-19 -44 -19 -44 0 -44 -1 -41 -30 2 -17 0 -41 -5 -53 -5 -12 -9 -17 -9 -11 -1
6 -12 9 -26 6 -19 -3 -23 -8 -15 -21 7 -14 3 -17 -23 -19 -51 -3 -62 10 -33
41 13 14 27 23 30 20 3 -4 6 0 6 9 0 19 -46 107 -70 133 -37 40 -52 93 -45
164 7 81 30 129 73 158 32 21 74 25 90 8z m-788 -45 c-14 -27 -27 -32 -34 -15
-9 23 15 57 31 43 9 -7 10 -16 3 -28z m1440 -1 c0 -6 -4 -7 -10 -4 -5 3 -10
11 -10 16 0 6 5 7 10 4 6 -3 10 -11 10 -16z m113 -2 c3 -8 -1 -14 -8 -14 -7 0
-11 6 -8 14 3 7 6 13 8 13 2 0 5 -6 8 -13z m1974 -15 c0 -9 -9 -12 -24 -9 -18
3 -23 0 -23 -17 0 -17 2 -18 10 -6 7 10 10 11 10 2 0 -7 -6 -15 -14 -18 -8 -3
-12 -12 -9 -20 3 -9 -1 -14 -12 -14 -9 0 -13 -4 -10 -10 3 -6 -1 -7 -9 -4 -9
3 -16 2 -16 -3 0 -5 -6 -10 -14 -10 -8 0 -13 8 -11 19 2 10 0 16 -6 13 -12 -8
-11 16 1 35 7 11 10 11 10 2 0 -7 5 -10 10 -7 6 4 8 11 5 16 -10 15 2 10 16
-8 12 -15 12 -16 -1 -8 -13 8 -13 7 -1 -9 13 -16 15 -16 23 -1 5 9 7 21 5 28
-8 21 10 42 35 42 14 0 25 -6 25 -13z m-2069 -19 c1 -24 0 -25 -9 -10 -5 9 -7
22 -4 27 9 15 10 13 13 -17z m3015 -14 c-6 -23 -12 -20 -18 9 -2 14 1 19 10
16 7 -3 11 -14 8 -25z m527 21 c0 -5 -9 -10 -21 -10 -11 0 -17 5 -14 10 3 6
13 10 21 10 8 0 14 -4 14 -10z m-3724 -9 c6 0 18 -27 28 -58 10 -32 33 -88 52
-125 38 -75 35 -83 -34 -87 -48 -2 -107 22 -116 47 -4 9 -13 30 -22 45 -17 30
-25 131 -14 163 6 15 16 19 51 18 24 -1 49 -2 55 -3z m2614 -36 c0 -3 -18 4
-40 15 -22 11 -40 23 -40 25 0 3 18 -4 40 -15 22 -11 40 -23 40 -25z m640 28
c0 -3 -6 -3 -14 0 -7 3 -20 0 -27 -6 -11 -10 -11 -9 0 5 11 15 41 15 41 1z
m-3170 -88 c0 -5 -5 -3 -10 5 -5 8 -10 20 -10 25 0 6 5 3 10 -5 5 -8 10 -19
10 -25z m4056 -130 c-8 -21 -30 -14 -35 11 -3 17 -2 17 15 4 16 -14 17 -13 10
5 -5 15 -4 17 5 8 6 -6 9 -19 5 -28z m29 16 c3 -5 1 -12 -5 -16 -5 -3 -10 1
-10 9 0 18 6 21 15 7z m-3419 -47 c-4 -9 -9 -15 -11 -12 -3 3 -3 13 1 22 4 9
9 15 11 12 3 -3 3 -13 -1 -22z m75 -17 c-10 -9 -11 -8 -5 6 3 10 9 15 12 12 3
-3 0 -11 -7 -18z m964 13 c-3 -5 3 -10 15 -10 17 0 19 -2 8 -14 -11 -13 -15
-13 -25 1 -11 14 -9 33 3 33 3 0 2 -4 -1 -10z m-805 -11 c3 -1 13 -2 22 -3 26
-2 26 -18 0 -27 -14 -5 -21 -5 -17 1 5 9 -2 10 -57 12 -15 0 -25 5 -22 12 3 9
57 13 74 5z m-590 -44 c0 -2 -10 -9 -22 -15 -22 -11 -22 -10 -4 4 21 17 26 19
26 11z m840 -28 c0 -7 -9 -13 -20 -14 -11 -1 -19 4 -17 10 5 27 37 30 37 4z
m980 3 c0 -5 -7 -10 -16 -10 -8 0 -12 5 -9 10 3 6 10 10 16 10 5 0 9 -4 9 -10z
m2640 -5 c14 -8 21 -14 15 -14 -5 0 -21 6 -35 14 -14 8 -20 14 -15 14 6 0 21
-6 35 -14z m-250 -15 c-12 -8 -12 -10 5 -10 29 -1 59 -26 52 -45 -4 -8 -2 -15
3 -15 6 0 9 -13 8 -29 -1 -21 -6 -27 -17 -23 -11 4 -13 1 -8 -14 7 -19 7 -19
-8 0 -8 10 -12 23 -8 29 3 6 1 7 -4 4 -12 -7 -33 14 -37 35 -3 22 -17 39 -27
33 -5 -3 -18 3 -29 13 l-21 19 24 -2 c13 -2 30 1 38 6 8 5 21 9 29 9 13 0 13
-1 0 -10z m-2405 -27 c-1 -16 2 -34 8 -40 6 -9 6 -13 -2 -13 -14 0 -15 -57 -1
-65 16 -10 -5 -32 -36 -38 -24 -4 -24 -4 -7 13 10 9 25 15 33 13 13 -4 13 -3
1 5 -8 6 -21 8 -29 4 -9 -3 -13 -1 -10 4 15 27 20 53 19 86 -2 21 0 42 4 48
12 19 22 10 20 -17z m2380 -23 c3 -5 1 -10 -4 -10 -6 0 -11 5 -11 10 0 6 2 10
4 10 3 0 8 -4 11 -10z m-273 -40 c19 -18 27 -30 18 -29 -8 1 -22 1 -30 0 -13
-1 -13 -2 0 -11 12 -8 9 -10 -11 -10 -21 0 -28 6 -32 27 -6 30 1 53 14 53 5 0
23 -14 41 -30z m-68 -6 c3 -8 2 -12 -4 -9 -6 3 -10 10 -10 16 0 14 7 11 14 -7z
m-4441 -44 c3 -13 1 -20 -5 -18 -6 2 -13 14 -15 27 -4 27 12 20 20 -9z m1032
-20 c-3 -4 -20 -8 -39 -7 -33 1 -33 1 -12 18 15 12 26 14 39 8 10 -6 15 -14
12 -19z m-1148 -20 c-20 -17 -22 -17 -28 -2 -8 21 7 31 32 25 17 -5 17 -6 -4
-23z m63 22 c0 -5 -7 -9 -15 -9 -8 0 -15 4 -15 9 0 4 7 8 15 8 8 0 15 -4 15
-8z m-133 -36 c-3 -8 -15 -14 -26 -13 -22 1 -18 17 5 17 8 0 14 5 14 12 0 6 3
9 6 5 4 -3 4 -13 1 -21z m518 -15 c1 -18 -3 -27 -10 -25 -7 3 -10 18 -7 35 5
36 15 30 17 -10z m4756 22 c13 -16 12 -17 -3 -4 -17 13 -22 21 -14 21 2 0 10
-8 17 -17z m-4087 -24 c-3 -5 0 -9 5 -9 6 0 11 -5 11 -11 0 -8 -5 -8 -15 1 -8
7 -12 16 -9 21 3 5 0 9 -5 9 -6 0 -11 5 -11 11 0 8 5 8 15 -1 8 -7 12 -16 9
-21z m-40 6 c11 -8 14 -15 7 -15 -7 0 -10 -4 -6 -9 3 -5 1 -12 -5 -16 -6 -4
-8 -10 -5 -14 2 -5 -7 -6 -20 -3 -26 5 -35 35 -14 48 8 4 7 9 -2 15 -11 7 -9
9 6 9 11 -1 29 -7 39 -15z m1226 1 c0 -2 -7 -7 -16 -10 -8 -3 -12 -2 -9 4 6
10 25 14 25 6z m-685 -45 c-3 -6 -11 -8 -17 -5 -6 4 -5 9 3 15 16 10 23 4 14
-10z m898 12 c-7 -2 -19 -2 -25 0 -7 3 -2 5 12 5 14 0 19 -2 13 -5z m-2073
-52 c0 -4 -8 -7 -19 -8 -14 -1 -17 3 -14 18 4 15 8 17 19 8 8 -6 14 -14 14
-18z m2074 6 c6 -25 0 -37 -20 -37 -8 0 -14 -6 -14 -14 0 -23 -16 -27 -78 -20
-56 6 -58 7 -58 35 0 31 16 41 17 12 0 -13 3 -12 10 5 8 21 14 23 51 18 23 -3
46 -10 52 -16 13 -13 36 -13 36 1 0 6 -7 8 -16 5 -14 -5 -15 -4 -5 8 10 12 9
13 -8 9 -12 -3 -21 -1 -21 5 0 20 48 10 54 -11z m-2995 -11 c7 -8 8 -16 4 -19
-12 -7 -38 6 -40 21 -4 16 22 15 36 -2z m4394 -3 c-7 -2 -19 -2 -25 0 -7 3 -2
5 12 5 14 0 19 -2 13 -5z m-40 -72 c5 -5 -2 -7 -15 -6 -13 1 -29 3 -35 4 -7 0
-13 6 -13 12 0 12 48 4 63 -10z m-3346 -101 c3 -24 3 -24 -15 -5 -11 11 -18
23 -15 28 2 4 -1 7 -6 7 -6 0 -11 5 -11 11 0 21 43 -17 47 -41z m890 43 c-4
-3 -2 -12 5 -20 8 -11 7 -12 -6 -7 -9 3 -16 9 -16 13 0 9 11 21 18 21 3 0 2
-3 -1 -7z m-942 -23 c3 -5 1 -10 -4 -10 -6 0 -11 5 -11 10 0 6 2 10 4 10 3 0
8 -4 11 -10z m1545 -4 c0 -19 -25 -27 -39 -13 -18 18 -13 27 14 27 15 0 25 -6
25 -14z m-1342 -12 c-9 -9 -21 -13 -27 -9 -16 10 -3 25 22 25 20 0 20 -1 5
-16z m3757 -4 c3 -6 -1 -7 -9 -4 -18 7 -21 14 -7 14 6 0 13 -4 16 -10z"/>
<path d="M3572 3450 c0 -14 2 -19 5 -12 2 6 2 18 0 25 -3 6 -5 1 -5 -13z"/>
<path d="M2536 3669 c-19 -28 -12 -38 11 -17 10 9 24 13 31 11 6 -3 12 1 12 8
0 7 -3 9 -7 6 -3 -4 -12 -2 -19 4 -9 7 -16 4 -28 -12z"/>
<path d="M5535 3661 c3 -6 -3 -14 -12 -20 -10 -6 -13 -11 -7 -11 5 0 18 6 28
13 17 13 18 14 2 20 -10 4 -14 3 -11 -2z"/>
<path d="M695 3650 c-3 -5 -1 -10 4 -10 6 0 11 5 11 10 0 6 -2 10 -4 10 -3 0
-8 -4 -11 -10z"/>
<path d="M2486 3601 c-19 -7 -19 -8 2 -13 15 -4 22 -2 22 8 0 8 -1 14 -2 13
-2 0 -12 -4 -22 -8z"/>
<path d="M2590 3548 c0 -10 5 -18 10 -18 18 0 11 -20 -7 -21 -10 0 -13 -3 -6
-5 7 -3 9 -13 6 -22 -4 -13 -2 -12 10 3 20 25 21 36 2 61 -13 17 -14 17 -15 2z"/>
<path d="M2620 3549 c0 -5 5 -7 10 -4 6 3 10 8 10 11 0 2 -4 4 -10 4 -5 0 -10
-5 -10 -11z"/>
<path d="M2368 3444 c4 -22 4 -22 23 -3 24 24 24 25 -4 25 -19 0 -23 -4 -19
-22z"/>
<path d="M3175 3300 c-3 -5 -1 -10 4 -10 6 0 11 5 11 10 0 6 -2 10 -4 10 -3 0
-8 -4 -11 -10z"/>
<path d="M3876 3207 c-16 -12 -16 -13 2 -13 10 0 19 6 19 13 0 7 -1 13 -2 13
-1 0 -9 -6 -19 -13z"/>
<path d="M1296 2835 c-3 -9 -6 -24 -5 -33 0 -9 5 -4 10 12 9 32 6 48 -5 21z"/>
<path d="M4035 2740 c-3 -5 1 -10 9 -10 9 0 13 -6 10 -14 -3 -8 -1 -16 4 -20
5 -3 9 0 9 7 0 7 3 19 5 27 3 8 3 11 0 7 -2 -4 -10 -3 -17 3 -9 8 -15 8 -20 0z"/>
<path d="M4681 2413 c7 -12 15 -20 18 -17 3 2 -3 12 -13 22 -17 16 -18 16 -5
-5z"/>
<path d="M2725 2130 c-27 -30 -12 -34 15 -5 13 14 19 25 13 25 -5 0 -18 -9
-28 -20z"/>
<path d="M5246 2565 c-8 -22 -8 -22 8 -22 7 0 13 6 12 13 -3 22 -13 26 -20 9z"/>
<path d="M1713 1976 c-13 -6 -23 -14 -23 -18 0 -14 17 -8 35 12 20 22 20 22
-12 6z"/>
<path d="M5426 1933 c-6 -14 -5 -15 5 -6 7 7 10 15 7 18 -3 3 -9 -2 -12 -12z"/>
<path d="M995 2370 c-3 -5 -1 -10 4 -10 6 0 11 5 11 10 0 6 -2 10 -4 10 -3 0
-8 -4 -11 -10z"/>
<path d="M3186 1967 c3 -10 9 -15 12 -12 3 3 0 11 -7 18 -10 9 -11 8 -5 -6z"/>
<path d="M4580 1955 c0 -5 5 -17 10 -25 5 -8 10 -10 10 -5 0 6 -5 17 -10 25
-5 8 -10 11 -10 5z"/>
<path d="M3110 1922 c0 -17 -31 -44 -45 -39 -6 3 -12 -1 -12 -8 0 -11 5 -11
27 0 27 14 46 43 35 53 -3 3 -5 0 -5 -6z"/>
<path d="M4215 1860 c-3 -6 1 -7 9 -4 18 7 21 14 7 14 -6 0 -13 -4 -16 -10z"/>
<path d="M4469 1773 c-13 -17 -13 -17 6 -3 11 8 22 16 24 17 2 2 0 3 -6 3 -6
0 -17 -8 -24 -17z"/>
<path d="M5656 2248 c3 -5 10 -6 15 -3 13 9 11 12 -6 12 -8 0 -12 -4 -9 -9z"/>
<path d="M6270 1881 c0 -6 4 -13 10 -16 6 -3 7 1 4 9 -7 18 -14 21 -14 7z"/>
<path d="M5552 1790 c0 -14 2 -19 5 -12 2 6 2 18 0 25 -3 6 -5 1 -5 -13z"/>
<path d="M4320 1490 c8 -5 20 -10 25 -10 6 0 3 5 -5 10 -8 5 -19 10 -25 10 -5
0 -3 -5 5 -10z"/>
<path d="M3710 1110 c0 -6 7 -10 15 -10 8 0 15 2 15 4 0 2 -7 6 -15 10 -8 3
-15 1 -15 -4z"/>
<path d="M3865 1110 c-3 -5 -2 -10 4 -10 5 0 13 5 16 10 3 6 2 10 -4 10 -5 0
-13 -4 -16 -10z"/>
<path d="M4026 1080 c5 -5 25 -12 44 -15 l35 -5 -35 14 c-42 18 -58 20 -44 6z"/>
<path d="M2390 1020 c-9 -6 -10 -10 -3 -10 6 0 15 5 18 10 8 12 4 12 -15 0z"/>
<path d="M540 785 c0 -8 4 -15 10 -15 5 0 7 7 4 15 -4 8 -8 15 -10 15 -2 0 -4
-7 -4 -15z"/>
<path d="M526 743 c-6 -14 -5 -15 5 -6 7 7 10 15 7 18 -3 3 -9 -2 -12 -12z"/>
<path d="M1170 816 c0 -2 7 -6 15 -10 8 -3 15 -1 15 4 0 6 -7 10 -15 10 -8 0
-15 -2 -15 -4z"/>
<path d="M2970 3486 c0 -2 8 -10 18 -17 15 -13 16 -12 3 4 -13 16 -21 21 -21
13z"/>
<path d="M5910 970 c0 -5 5 -10 11 -10 5 0 7 5 4 10 -3 6 -8 10 -11 10 -2 0
-4 -4 -4 -10z"/>
<path d="M4337 460 c18 -19 34 -32 36 -29 2 2 -12 17 -32 33 l-36 30 32 -34z"/>
<path d="M4456 442 c-3 -5 1 -9 9 -9 8 0 12 4 9 9 -3 4 -7 8 -9 8 -2 0 -6 -4
-9 -8z"/>
<path d="M1590 413 c-8 -3 -18 -11 -22 -17 -5 -8 -8 -7 -8 2 0 10 -5 10 -20 2
-11 -6 -18 -16 -14 -22 4 -7 9 -6 14 2 4 7 13 9 19 6 6 -4 19 0 28 9 12 13 18
14 24 4 9 -14 2 -32 -10 -25 -12 8 -34 -11 -27 -23 4 -6 12 -9 17 -5 5 3 6 10
3 16 -4 7 0 7 13 -1 14 -7 23 -7 31 1 9 9 12 8 12 -5 0 -18 15 -23 25 -8 3 6
-4 15 -15 21 -11 6 -18 15 -15 20 5 7 -26 32 -37 29 -2 0 -10 -3 -18 -6z m50
-37 c0 -3 -4 -8 -10 -11 -5 -3 -10 -1 -10 4 0 6 5 11 10 11 6 0 10 -2 10 -4z"/>
<path d="M4437 378 c19 -21 31 -25 14 -5 -6 8 -9 16 -6 19 3 2 -2 5 -10 5 -13
0 -13 -3 2 -19z"/>
<path d="M1690 365 c0 -12 -5 -26 -11 -32 -8 -8 -7 -17 3 -32 15 -24 30 -28
22 -6 -4 8 -2 15 4 15 6 0 12 -6 15 -12 2 -7 8 -10 12 -5 11 10 -1 20 -28 23
-12 1 -24 3 -26 3 -2 1 3 9 12 19 11 12 13 22 7 32 -8 12 -10 11 -10 -5z"/>
<path d="M1714 351 c0 -12 9 -21 22 -24 22 -4 22 -3 6 19 -21 29 -28 30 -28 5z"/>
<path d="M4471 357 c2 -1 13 -9 24 -17 19 -14 19 -14 6 3 -7 9 -18 17 -24 17
-6 0 -8 -1 -6 -3z"/>
<path d="M1603 330 c1 -11 5 -20 10 -20 5 0 6 7 3 16 -5 14 -4 15 9 4 8 -7 15
-8 15 -2 0 8 -22 22 -35 22 -2 0 -3 -9 -2 -20z"/>
<path d="M1605 291 c-9 -15 15 -25 28 -12 9 9 7 10 -7 5 -13 -5 -17 -4 -12 4
4 7 5 12 2 12 -3 0 -7 -4 -11 -9z"/>
<path d="M1761 268 c-13 -20 -12 -22 1 -11 8 7 18 10 22 6 4 -4 4 0 0 10 -8
21 -6 21 -23 -5z"/>
<path d="M1703 263 c4 -6 1 -13 -5 -16 -7 -2 0 -4 15 -4 15 0 27 0 25 1 -2 1
-12 8 -22 16 -11 8 -17 10 -13 3z"/>
<path d="M4589 253 c-13 -16 -12 -17 4 -4 16 13 21 21 13 21 -2 0 -10 -8 -17
-17z"/>
<path d="M1665 249 c-4 -6 -5 -12 -2 -15 2 -3 7 2 10 11 7 17 1 20 -8 4z"/>
<path d="M1715 220 c3 -5 8 -10 11 -10 2 0 4 5 4 10 0 6 -5 10 -11 10 -5 0 -7
-4 -4 -10z"/>
<path d="M4556 211 c-12 -5 -15 -10 -9 -14 6 -4 16 0 23 8 14 17 13 17 -14 6z"/>
<path d="M1679 183 c-13 -16 -12 -17 4 -4 16 13 21 21 13 21 -2 0 -10 -8 -17
-17z"/>
<path d="M1770 195 c0 -7 30 -13 34 -7 3 4 -4 9 -15 9 -10 1 -19 0 -19 -2z"/>
<path d="M1605 180 c-3 -6 1 -7 9 -4 18 7 21 14 7 14 -6 0 -13 -4 -16 -10z"/>
<path d="M1710 176 c0 -2 8 -10 18 -17 15 -13 16 -12 3 4 -13 16 -21 21 -21
13z"/>
<path d="M1637 152 c5 -11 3 -13 -7 -7 -9 5 -11 4 -6 -3 5 -9 13 -9 27 -2 24
13 24 16 0 23 -15 3 -18 1 -14 -11z"/>
<path d="M1685 160 c-3 -5 -1 -10 4 -10 6 0 11 5 11 10 0 6 -2 10 -4 10 -3 0
-8 -4 -11 -10z"/>
<path d="M1762 158 c-18 -18 -14 -25 15 -25 22 0 24 1 8 9 -14 8 -15 12 -4 19
8 5 9 9 4 9 -6 0 -16 -5 -23 -12z"/>
<path d="M1596 136 c3 -8 13 -17 22 -21 13 -5 13 -2 -3 15 -21 24 -26 25 -19
6z"/>
<path d="M1685 120 c-4 -11 0 -29 9 -42 l16 -22 0 21 c0 27 16 39 24 18 6 -18
33 -10 33 10 0 7 -8 12 -18 10 -10 -2 -23 3 -30 11 -16 19 -27 18 -34 -6z m32
-6 c-3 -3 -12 -4 -19 -1 -8 3 -5 6 6 6 11 1 17 -2 13 -5z"/>
<path d="M9 73 c0 -5 -2 -20 -4 -35 -2 -16 2 -29 11 -32 10 -4 13 4 11 34 -1
22 -5 40 -9 40 -5 0 -8 -3 -9 -7z"/>
<path d="M1653 46 c0 -8 6 -12 14 -9 7 3 13 9 13 14 0 5 -6 9 -13 9 -8 0 -14
-6 -14 -14z"/>
<path d="M1677 17 c-3 -7 3 -13 12 -13 10 0 18 6 18 13 0 17 -23 17 -30 0z"/>
</g>
</svg>
