<?xml version="1.0" standalone="no"?>
<!DOCTYPE svg PUBLIC "-//W3C//DTD SVG 20010904//EN"
 "http://www.w3.org/TR/2001/REC-SVG-20010904/DTD/svg10.dtd">
<svg version="1.0" xmlns="http://www.w3.org/2000/svg"
 width="640.000000pt" height="426.000000pt" viewBox="0 0 640.000000 426.000000"
 preserveAspectRatio="xMidYMid meet">

<g transform="translate(0.000000,426.000000) scale(0.100000,-0.100000)"
fill="#000000" stroke="none">
<path d="M3121 3997 c-7 -9 -11 -24 -7 -32 3 -9 2 -13 -4 -10 -6 4 -10 -15
-10 -47 0 -97 -67 -238 -112 -235 -7 0 -22 -1 -32 -1 -18 -2 -18 -3 -1 -22 10
-11 24 -20 32 -20 7 0 18 -12 23 -27 6 -16 20 -45 31 -65 11 -21 25 -66 30
-100 6 -34 20 -83 33 -108 13 -25 30 -74 39 -110 8 -36 19 -73 22 -83 6 -13 3
-16 -9 -11 -9 3 -22 1 -30 -5 -16 -13 -18 -61 -4 -78 15 -19 -12 -17 -39 2
-14 10 -20 22 -16 32 8 19 -33 52 -65 53 -13 0 -21 4 -18 9 3 5 0 11 -7 14
-19 7 -80 102 -103 159 -14 36 -21 43 -26 30 -6 -15 -7 -15 -7 2 -1 11 -15 47
-31 82 -22 45 -38 64 -55 68 -14 4 -25 13 -25 22 0 8 -4 13 -9 9 -5 -3 -12 -1
-16 5 -3 5 -18 10 -32 10 -13 0 -36 9 -50 20 -14 11 -32 20 -39 20 -8 0 -14
-9 -14 -20 0 -26 -3 -25 -50 6 -26 17 -46 24 -59 19 -27 -8 -26 -20 0 -46 17
-17 19 -23 8 -30 -11 -7 -10 -9 4 -9 11 0 17 -8 17 -25 0 -26 16 -31 55 -16
10 4 39 4 65 -2 25 -5 55 -10 68 -12 66 -9 91 -33 140 -133 27 -53 47 -105 44
-115 -2 -11 6 -28 17 -38 12 -11 21 -16 21 -12 1 4 10 -3 21 -16 11 -13 22
-21 26 -18 9 10 67 -43 79 -72 6 -15 8 -38 3 -56 -4 -16 -10 -79 -13 -140 -3
-60 -8 -123 -10 -140 -6 -38 -29 -105 -36 -105 -3 0 -4 -16 -2 -35 5 -44 -6
-58 -75 -90 -53 -24 -56 -24 -69 -8 -7 10 -18 41 -24 70 -9 42 -8 57 3 80 19
38 11 103 -13 103 -9 0 -22 10 -27 23 -10 20 -11 17 -18 -26 -4 -26 -11 -49
-15 -52 -4 -2 -15 13 -25 34 -16 36 -46 57 -60 43 -9 -9 -36 -11 -30 -2 8 13
-62 33 -96 28 -17 -3 -32 -1 -35 4 -3 5 -9 6 -14 3 -5 -3 -21 12 -36 35 -15
22 -30 40 -34 40 -10 0 -44 80 -45 105 0 15 -7 20 -26 20 -40 1 -99 47 -152
117 -33 45 -34 56 -3 64 37 9 54 34 59 87 3 35 0 47 -10 47 -7 0 -13 -6 -13
-12 -1 -21 -47 -71 -59 -64 -11 7 -55 -30 -62 -53 -6 -17 -53 5 -87 42 -16 17
-30 23 -47 19 -23 -4 -25 -1 -25 32 0 37 -26 87 -83 158 -27 33 -29 41 -22 90
3 29 9 62 12 73 5 17 4 18 -10 6 -9 -7 -19 -28 -23 -47 -6 -30 -24 -49 -24
-24 0 5 -11 12 -24 16 l-24 6 24 35 c35 52 29 64 -11 21 l-34 -37 -11 34 c-6
18 -27 53 -45 77 -19 24 -35 53 -35 66 0 12 -4 22 -10 22 -5 0 -10 -5 -10 -12
0 -6 -12 -1 -27 13 -15 13 -2 -5 29 -40 60 -66 103 -144 94 -167 -7 -19 -25
-17 -33 4 -7 19 -58 65 -76 68 -87 16 -100 16 -93 6 10 -16 -36 -16 -52 0 -9
9 -12 9 -12 0 0 -21 60 -43 122 -46 54 -2 62 -5 71 -27 5 -13 9 -39 7 -58 -1
-24 2 -31 11 -25 9 5 10 2 6 -10 -4 -10 -7 -19 -7 -20 0 -6 -116 20 -129 28
-10 6 -12 5 -9 -5 2 -8 29 -26 58 -40 l54 -26 -34 -11 c-44 -16 -34 -23 35
-27 62 -4 99 -27 92 -57 -3 -10 -1 -21 4 -24 5 -3 9 -9 9 -14 0 -12 -47 8 -87
37 -32 24 -59 31 -48 13 3 -5 -1 -11 -9 -11 -29 -3 -34 -4 -42 -11 -4 -5 -12
-8 -18 -8 -6 0 -4 5 4 10 13 8 12 10 -4 10 -32 0 -96 22 -90 31 3 5 -13 16
-35 25 -38 15 -41 19 -41 55 0 21 3 39 8 39 4 0 8 24 9 53 2 45 1 49 -8 27 -6
-14 -18 -37 -26 -53 -8 -15 -13 -35 -12 -45 4 -41 -2 -44 -26 -12 -14 19 -29
36 -34 39 -4 3 -16 22 -26 41 -10 19 -20 30 -22 23 -2 -7 0 -21 6 -32 6 -11
11 -28 11 -37 0 -10 17 -36 37 -57 37 -37 37 -39 19 -53 -11 -8 -27 -14 -35
-15 -12 0 -10 -3 4 -9 19 -8 19 -9 -2 -9 -16 -1 -25 8 -34 34 -7 19 -19 35
-25 35 -7 0 -16 4 -19 10 -3 6 1 7 10 4 12 -5 8 6 -12 37 -45 70 -95 142 -120
172 -15 19 -23 42 -23 67 0 46 -17 63 -22 21 -3 -30 -3 -29 -55 34 -49 60
-113 108 -113 85 0 -5 7 -10 15 -10 29 0 145 -144 145 -180 0 -12 9 -39 20
-61 12 -22 25 -50 30 -64 l9 -24 -36 25 c-60 41 -68 27 -11 -22 29 -25 65 -53
80 -62 16 -9 28 -24 28 -34 0 -10 7 -18 15 -18 15 0 51 -58 41 -67 -2 -3 -40
2 -84 11 -90 18 -103 19 -83 7 8 -5 52 -15 99 -22 l83 -12 51 -79 c27 -43 55
-81 62 -86 20 -12 86 -126 85 -147 0 -11 -3 -14 -6 -7 -2 6 -15 12 -28 12 -12
0 -28 7 -35 15 -23 28 -21 8 2 -27 28 -41 44 -60 83 -98 17 -17 24 -30 18 -30
-7 0 -13 -5 -13 -11 0 -5 8 -9 19 -7 19 3 111 -56 111 -72 0 -5 -21 2 -46 15
-26 14 -55 25 -64 25 -10 0 -23 7 -30 15 -7 8 -17 15 -22 15 -5 0 -30 14 -54
31 -49 34 -69 34 -33 0 l23 -21 -34 6 c-19 4 -48 13 -63 21 -15 8 -33 11 -39
7 -6 -4 -8 -3 -5 3 4 6 0 16 -8 23 -8 7 -15 9 -15 4 0 -5 -20 13 -45 39 -25
26 -63 56 -84 67 -43 21 -124 43 -116 30 3 -4 22 -11 42 -15 53 -10 118 -50
158 -100 19 -23 35 -44 35 -47 0 -12 -31 -17 -57 -8 -62 19 -83 21 -77 6 6
-15 72 -35 139 -43 24 -3 45 -12 53 -23 11 -14 19 -17 36 -10 23 8 145 -2 165
-15 27 -16 7 -26 -46 -24 -103 5 -147 1 -135 -14 9 -10 3 -12 -26 -9 -20 2
-44 6 -52 9 -8 3 -20 7 -26 8 -29 7 -92 59 -106 88 -32 67 -100 147 -124 147
-13 0 -24 -2 -24 -4 0 -9 93 -95 101 -93 5 1 18 -17 29 -41 11 -25 14 -40 7
-35 -7 4 -32 20 -56 35 -25 15 -55 28 -68 28 -21 0 -47 26 -116 120 l-19 25
16 -27 c9 -16 23 -39 32 -52 9 -14 17 -33 18 -43 2 -12 21 -23 58 -34 80 -23
116 -52 88 -69 -15 -9 31 -39 57 -37 16 1 93 -38 93 -48 0 -1 -29 -33 -65 -70
-36 -38 -65 -72 -65 -77 0 -15 53 21 115 77 l59 54 40 -22 c23 -12 61 -29 86
-38 25 -9 46 -21 46 -27 3 -23 4 -24 18 -13 21 18 120 26 153 13 15 -7 44 -14
63 -17 35 -6 64 -30 54 -46 -8 -13 15 -49 31 -49 19 0 72 -70 77 -100 2 -16
11 -26 23 -28 20 -4 85 -75 85 -94 0 -5 -9 -6 -20 -3 -11 3 -30 3 -41 0 -21
-7 -21 -8 7 -31 16 -13 42 -23 57 -24 31 0 96 -41 140 -88 32 -34 32 -34 -47
-48 -58 -10 -83 -26 -115 -75 -16 -24 -49 -58 -73 -75 -24 -18 -42 -37 -40
-44 7 -29 -62 -76 -85 -58 -7 6 -14 5 -18 -3 -4 -6 -2 -15 4 -19 14 -8 7 -14
-64 -55 -52 -30 -136 -40 -180 -22 -18 8 -18 7 -2 -3 9 -6 17 -17 17 -24 0 -9
15 -12 53 -10 59 3 171 49 220 90 16 13 34 24 40 24 7 0 23 17 37 38 13 20 59
72 101 114 76 76 92 85 185 101 36 7 71 -21 60 -48 -3 -10 -1 -15 7 -13 6 2
32 -4 57 -13 80 -28 116 -39 131 -39 8 0 24 -6 35 -14 18 -14 18 -15 -9 -36
-42 -33 -32 -44 13 -14 l41 27 27 -20 c41 -31 55 -63 35 -85 -13 -15 -14 -20
-3 -34 8 -8 22 -13 32 -11 10 3 21 1 24 -5 4 -6 21 -7 42 -3 61 11 160 7 189
-9 16 -8 43 -28 61 -45 31 -29 62 -33 62 -8 0 6 7 18 16 28 13 15 20 16 35 6
23 -15 53 1 56 29 1 10 4 28 6 39 2 11 1 34 -3 52 l-8 32 32 -23 c17 -13 52
-34 78 -46 72 -33 92 -58 132 -166 53 -138 118 -272 155 -318 17 -22 28 -42
23 -45 -17 -11 -21 -46 -14 -128 l8 -83 -24 5 c-13 2 -35 -3 -48 -12 -13 -8
-24 -12 -24 -8 0 4 -15 -4 -34 -19 -42 -32 -118 -36 -148 -9 -15 13 -40 18
-106 19 -48 0 -94 4 -102 7 -25 10 -70 16 -67 9 2 -8 -7 -12 -24 -12 -19 0 51
58 111 92 30 17 57 35 60 38 3 4 29 15 58 24 28 10 52 22 52 27 0 11 7 13 -78
-14 -39 -13 -69 -26 -66 -29 3 -4 -3 -11 -15 -17 -16 -9 -22 -8 -29 5 -8 15
-15 11 -47 -25 -20 -22 -42 -41 -47 -41 -5 0 -23 -14 -41 -31 l-32 -31 -185 6
c-102 3 -258 7 -347 8 -90 1 -157 6 -150 10 6 4 19 8 27 8 8 0 28 9 44 19 l28
19 -21 21 c-11 11 -16 23 -11 26 6 4 10 0 10 -7 1 -26 36 34 38 65 3 32 3 32
-13 9 -9 -12 -13 -27 -9 -34 4 -6 3 -9 -2 -5 -12 7 -36 -12 -58 -45 -18 -28
-10 -38 12 -16 8 8 12 8 12 1 0 -16 -28 -36 -40 -28 -5 3 -10 1 -10 -4 0 -6
-5 -11 -11 -11 -5 0 -7 6 -3 13 4 7 3 9 -2 4 -5 -5 -9 -12 -9 -15 0 -13 -16
-32 -26 -32 -14 0 -11 28 4 33 9 4 9 8 1 14 -8 5 5 30 42 78 48 62 53 75 54
120 0 28 7 59 15 69 8 11 15 27 15 36 0 9 17 35 38 58 22 23 35 42 30 42 -11
0 42 78 71 104 24 22 104 136 96 136 -3 0 -18 -12 -32 -27 l-25 -28 7 35 c3
19 9 42 11 52 3 9 0 19 -5 22 -5 4 -12 -8 -16 -26 -19 -97 -54 -168 -82 -168
-8 0 -11 -5 -8 -10 4 -6 -18 -45 -47 -88 -30 -42 -57 -85 -61 -95 -3 -9 -10
-17 -15 -17 -11 0 -32 44 -33 68 0 11 -2 13 -6 4 -4 -10 -9 -9 -24 4 -22 20
-26 8 -5 -15 19 -22 49 -107 44 -123 -6 -16 -68 79 -68 104 0 10 -4 18 -9 18
-15 0 -6 -28 28 -95 17 -33 31 -68 31 -78 0 -20 -59 -110 -94 -142 -13 -12
-25 -28 -28 -36 -3 -9 -30 11 -83 63 -42 43 -82 75 -88 71 -6 -3 -7 -1 -3 5 8
14 -92 95 -106 86 -7 -4 -8 5 -4 27 6 27 5 30 -4 17 -15 -24 -28 -23 -75 9
-34 22 -37 23 -21 5 11 -12 15 -22 10 -23 -5 0 2 -5 15 -10 16 -6 22 -15 18
-28 -3 -14 2 -21 18 -25 13 -3 33 -21 44 -38 33 -51 66 -85 91 -93 41 -13 85
-42 82 -55 -1 -6 2 -9 7 -5 6 3 17 -7 25 -22 l14 -28 -144 0 c-79 -1 -144 2
-144 7 0 4 62 9 138 11 l137 3 -138 2 c-126 2 -138 4 -135 19 3 10 -4 35 -14
55 -21 43 -32 51 -18 12 6 -14 10 -38 10 -53 0 -28 0 -28 -62 -26 -74 4 -1113
19 -1305 19 l-133 1 0 -32 c0 -31 1 -32 38 -28 20 3 280 8 577 13 404 5 500 9
380 13 -91 4 -26 5 150 3 171 -2 318 -4 329 -4 15 0 16 -2 6 -15 -7 -9 -17
-12 -21 -8 -4 4 -117 6 -251 5 -134 -2 -234 -7 -223 -12 42 -16 -199 -22 -586
-15 l-399 7 0 -370 0 -371 42 -4 43 -4 -42 -1 -43 -2 0 -69 c0 -58 3 -70 18
-74 16 -4 16 -5 0 -6 -15 -1 -18 -11 -18 -61 l0 -60 930 0 c613 0 930 3 930
10 0 6 18 10 40 10 22 0 40 -5 40 -10 0 -7 51 -10 145 -9 102 0 145 4 145 12
0 8 3 8 8 -1 9 -13 192 -16 192 -2 0 4 19 4 43 -1 62 -12 255 -11 259 1 2 7
25 7 73 0 86 -12 369 -12 340 0 -19 8 -19 9 3 9 12 1 22 -3 22 -9 0 -5 12 -10
28 -9 24 0 25 1 7 9 -16 7 -13 9 17 9 20 1 40 -3 43 -9 4 -6 563 -10 1570 -10
l1565 0 0 485 0 485 -122 -2 c-114 -1 -118 -2 -48 -8 54 -5 19 -7 -125 -9
-200 -2 -274 -8 -415 -32 -72 -13 -100 -27 -79 -40 17 -10 -52 -33 -95 -31
-22 0 -45 -3 -51 -7 -14 -11 -75 -19 -69 -9 3 4 -4 8 -15 8 -10 0 -22 -6 -24
-12 -3 -8 -6 -6 -6 5 -1 9 -6 17 -11 17 -6 0 -8 10 -5 23 4 15 -1 33 -16 52
-12 17 -17 25 -10 19 13 -12 100 -7 115 7 15 14 -295 11 -312 -4 -10 -7 -13
-8 -9 -1 4 7 1 14 -6 17 -6 2 -161 5 -342 6 -182 1 -361 4 -398 7 -37 2 -67 1
-67 -3 0 -3 14 -30 30 -60 32 -56 34 -63 22 -63 -8 0 -11 6 -52 85 -14 27 -33
57 -43 67 -9 10 -17 31 -16 46 1 15 -3 38 -9 52 -9 23 -10 19 -17 -31 -4 -31
-4 -66 0 -78 6 -19 2 -21 -37 -22 -24 0 -52 -2 -63 -4 -36 -6 -99 -17 -150
-25 -27 -4 -41 -8 -30 -9 11 -1 27 -6 35 -11 11 -7 0 -10 -38 -10 -50 0 -54 2
-64 30 -12 36 -35 50 -81 50 -42 0 -48 -6 -37 -35 8 -20 6 -22 -12 -18 -11 3
-22 12 -25 19 -3 8 -11 14 -18 14 -14 0 -31 38 -21 47 3 4 0 13 -6 21 -7 8
-13 19 -14 26 -5 30 -36 139 -60 206 -23 66 -26 95 -30 230 l-4 156 32 12 c17
6 33 11 34 9 1 -1 4 -36 7 -77 2 -42 8 -83 13 -91 19 -32 84 -102 90 -97 8 8
-13 47 -42 78 -32 35 -43 109 -20 141 9 13 16 38 16 55 0 33 10 41 60 50 37 7
85 38 86 55 1 26 15 59 25 59 6 0 17 6 24 14 14 13 95 31 125 27 11 -1 9 3 -4
14 -22 17 -41 18 -104 6 -35 -7 -40 -6 -31 5 6 8 17 14 24 14 8 0 15 7 17 16
2 9 33 32 69 52 38 21 83 56 104 82 21 25 42 48 49 52 8 6 8 8 -1 8 -6 0 -31
-22 -53 -49 -24 -29 -59 -56 -81 -65 -21 -9 -39 -20 -39 -25 0 -5 -9 -13 -21
-16 -35 -12 -99 -75 -99 -100 0 -60 -86 -124 -88 -66 -2 54 -6 64 -36 82 -32
19 -32 20 -35 147 -1 24 -5 41 -10 38 -4 -3 -5 13 -1 34 4 22 4 43 0 45 -11 7
6 75 23 92 12 12 18 13 36 1 18 -11 23 -11 30 1 7 10 21 12 56 7 41 -7 50 -4
83 21 129 98 197 102 328 18 43 -28 59 -34 68 -24 8 8 8 13 -2 16 -6 3 -10 9
-6 14 3 5 0 9 -7 9 -7 0 -5 8 7 21 19 22 19 22 -3 10 -31 -16 -49 -14 -70 7
-87 88 -156 86 -335 -14 l-47 -26 -62 22 c-109 37 -111 41 -73 127 8 18 12 43
8 58 -11 45 3 74 47 91 39 16 40 18 37 58 -2 32 -7 41 -20 40 -38 -3 -6 42 59
84 50 32 63 34 100 14 12 -7 34 -12 48 -12 17 0 38 -11 56 -32 30 -31 105
-153 111 -178 2 -8 15 -25 31 -38 15 -13 27 -32 27 -42 0 -55 35 -65 84 -26
16 14 36 22 45 19 13 -4 14 -3 1 5 -8 6 -17 9 -21 6 -4 -2 -10 0 -14 6 -4 7
-14 6 -28 -2 -20 -10 -21 -10 -8 5 7 10 23 17 36 17 26 0 63 36 44 42 -7 2
-37 -2 -66 -10 -50 -14 -54 -14 -74 4 -27 25 -67 105 -63 130 2 12 -11 29 -36
48 -21 16 -38 34 -37 40 1 6 -3 10 -9 9 -7 -1 -11 5 -10 14 1 19 -45 35 -65
22 -8 -5 -29 -6 -48 -2 -55 10 -75 10 -93 1 -11 -5 -18 -5 -18 2 0 20 -37 10
-62 -17 -14 -16 -34 -45 -43 -66 -10 -22 -34 -49 -55 -62 -22 -14 -40 -35 -44
-50 -11 -42 -29 -18 -23 31 2 24 2 44 -2 44 -4 0 -8 11 -9 26 -1 14 2 23 8 19
6 -3 10 -13 10 -22 0 -14 3 -14 20 2 46 42 64 86 62 151 -3 58 -1 64 35 107
21 25 44 46 51 46 7 1 43 -13 80 -30 66 -30 141 -42 248 -40 59 1 132 -33 140
-65 4 -17 9 -22 14 -14 4 7 5 20 3 30 -3 10 0 21 6 24 21 13 12 36 -11 32 -13
-2 -35 3 -50 10 -15 8 -54 17 -87 21 l-60 6 24 42 c14 23 25 50 25 60 0 10 10
30 23 43 l22 25 -25 -6 c-14 -4 -29 -7 -33 -7 -4 0 -19 -24 -32 -53 -33 -76
-46 -87 -104 -83 -33 2 -68 14 -113 39 -37 20 -75 37 -85 36 -20 0 -115 -107
-125 -142 -3 -12 -6 -41 -7 -65 -1 -51 -20 -100 -50 -126 -25 -23 -28 -46 -5
-46 14 0 13 -4 -3 -32 -25 -43 -42 -39 -116 25 -112 97 -125 113 -131 165 -4
26 -13 68 -21 93 -17 54 -19 83 -6 108 6 10 6 23 1 31 -8 13 -12 12 -25 -5
-12 -16 -14 -17 -9 -2 3 9 19 31 35 48 16 17 27 34 26 37 -1 4 15 28 36 53 40
50 46 69 21 69 -8 0 -13 -4 -10 -9 3 -5 -8 -26 -24 -47 -17 -22 -45 -58 -62
-82 -27 -36 -33 -40 -41 -26 -15 26 -37 116 -31 126 3 4 -2 11 -11 14 -12 5
-15 14 -10 31 8 35 35 73 50 73 7 0 15 5 17 12 2 6 11 13 19 14 54 13 111 32
121 42 7 7 21 12 32 12 14 0 17 3 9 11 -8 8 -17 8 -31 0 -10 -6 -22 -8 -25 -5
-3 4 -27 -1 -53 -10 -26 -9 -49 -16 -51 -16 -2 0 3 12 11 28 17 34 31 112 19
112 -5 0 -14 12 -20 28 -9 23 -11 17 -12 -45 -1 -40 -5 -73 -9 -73 -4 0 -14
-17 -21 -37 -19 -51 -61 -105 -78 -99 -8 3 -13 -1 -13 -11 0 -13 -3 -14 -12
-5 -9 9 -21 63 -32 152 -1 9 -5 21 -10 28 -4 6 -4 17 -1 22 3 6 2 10 -4 10
-21 0 -23 59 -3 87 17 25 60 125 76 178 3 11 20 29 38 40 17 11 46 29 65 41
18 11 30 24 26 27 -3 4 -17 0 -30 -8 -21 -14 -23 -14 -23 1 0 11 -8 7 -29 -15
-44 -48 -59 -41 -63 26 -3 49 -5 54 -17 40z m-1421 -587 c11 -21 20 -42 20
-45 0 -12 -25 -4 -46 16 -18 17 -20 24 -10 45 6 13 12 24 13 24 2 0 12 -18 23
-40z m65 -17 c20 -30 37 -93 25 -93 -6 0 -50 102 -50 116 0 10 9 2 25 -23z
m-28 -35 c-3 -8 -6 -5 -6 6 -1 11 2 17 5 13 3 -3 4 -12 1 -19z m-389 -62 c15
-8 36 -24 47 -36 l20 -22 -55 8 c-30 4 -65 8 -77 8 -11 1 -19 4 -17 7 2 4 -4
10 -13 13 -19 8 -8 22 22 29 35 8 45 7 73 -7z m320 -35 c73 -37 94 -59 54 -56
-47 3 -50 5 -55 26 -5 17 -11 20 -31 15 -17 -4 -35 0 -52 11 -24 15 -25 17 -8
24 29 11 31 11 92 -20z m84 7 c19 -15 34 -58 20 -58 -11 0 -37 30 -45 53 -7
20 3 22 25 5z m-367 -52 c11 -7 34 -13 50 -13 16 0 31 -6 33 -12 2 -6 12 -11
21 -11 10 0 30 -9 44 -20 14 -11 44 -29 66 -38 22 -10 51 -29 64 -43 13 -13
61 -55 107 -94 46 -38 95 -81 109 -95 14 -14 28 -25 31 -25 3 0 15 -6 27 -13
12 -7 35 -11 50 -10 37 2 59 -11 119 -74 50 -52 85 -118 99 -188 l7 -35 -27
25 c-15 14 -38 35 -51 48 -13 12 -31 22 -40 22 -9 0 -34 14 -56 31 -21 17 -42
29 -45 25 -11 -11 38 -55 69 -61 16 -4 37 -14 46 -24 9 -9 39 -34 65 -55 26
-21 46 -40 44 -43 -3 -2 -23 5 -46 16 -22 12 -54 21 -71 21 -41 0 -91 22 -139
61 -22 17 -43 29 -48 26 -5 -3 -34 7 -64 22 -39 20 -65 26 -94 23 -51 -5 -93
12 -104 40 -10 27 6 68 26 68 17 0 9 37 -13 60 -13 13 -14 11 -8 -16 5 -25 0
-36 -25 -61 l-31 -31 -85 83 c-80 77 -85 85 -85 124 0 65 -20 131 -39 131 -15
0 -76 81 -94 125 -4 11 -13 23 -20 27 -6 4 10 5 37 3 27 -3 59 -11 71 -19z
m233 -57 c2 -5 8 -7 13 -4 5 4 6 -1 3 -9 -5 -12 -11 -11 -40 6 -19 11 -34 22
-34 25 0 9 55 -8 58 -18z m407 -26 c28 -25 31 -93 5 -93 -20 0 -70 54 -70 76
0 8 -4 14 -9 14 -6 0 -8 35 -2 48 2 5 55 -27 76 -45z m-278 -39 c-6 -6 -47 9
-47 17 0 5 11 3 25 -3 14 -6 24 -13 22 -14z m1463 -68 c11 -34 24 -97 29 -138
10 -92 26 -118 110 -174 138 -93 230 -181 215 -206 -3 -4 -17 -8 -31 -8 -14 0
-47 -16 -73 -35 -93 -68 -215 -145 -224 -142 -6 2 -13 14 -16 28 -3 13 -11 24
-17 24 -6 0 -15 4 -20 9 -5 5 -2 6 6 1 9 -5 12 -3 9 6 -3 8 -15 16 -28 17 -21
3 -22 2 -11 -12 12 -15 -3 -8 -96 43 -29 17 -31 19 -16 34 14 14 15 20 4 40
-11 21 -11 28 3 49 9 14 17 42 19 64 2 21 8 48 14 59 6 11 14 38 18 60 6 38
30 72 49 71 5 -1 13 10 17 23 7 17 6 22 -3 18 -10 -3 -13 18 -13 88 0 51 3 97
8 101 4 4 7 16 7 26 0 38 19 16 40 -46z m-1034 14 c15 -22 33 -40 41 -40 22 0
128 -87 142 -116 12 -27 15 -77 5 -87 -4 -3 -32 7 -63 23 -31 17 -65 30 -75
30 -26 0 -140 75 -171 112 -27 32 -25 48 4 48 19 0 71 46 71 61 0 21 22 6 46
-31z m-335 -57 c13 -16 12 -17 -3 -4 -10 7 -18 15 -18 17 0 8 8 3 21 -13z
m1243 -44 c-8 -16 -16 -29 -17 -29 -1 0 -1 18 1 40 3 33 7 39 18 29 11 -9 11
-16 -2 -40z m-1133 4 c13 -16 12 -17 -3 -4 -10 7 -18 15 -18 17 0 8 8 3 21
-13z m-50 -20 c13 -16 12 -17 -3 -4 -10 7 -18 15 -18 17 0 8 8 3 21 -13z
m1184 -73 c-22 -43 -29 -33 -7 12 9 19 18 32 20 27 2 -4 -4 -22 -13 -39z
m-847 -144 c-25 -18 -22 -41 6 -54 25 -11 39 -54 29 -91 l-5 -21 -19 22 c-11
12 -22 33 -25 47 -3 14 -10 39 -15 56 -8 24 -6 32 8 42 23 17 43 16 21 -1z
m219 -37 c90 -38 134 -74 163 -135 l22 -44 -38 -50 c-32 -42 -43 -50 -70 -50
-26 0 -39 8 -64 39 -32 41 -39 45 -100 55 l-36 6 2 98 c1 53 2 100 3 105 2 15
44 6 118 -24z m174 19 c9 2 30 -13 48 -33 33 -38 37 -50 21 -60 -6 -3 -7 1 -4
9 4 10 -6 27 -26 46 -36 33 -53 39 -43 13 5 -12 1 -11 -15 5 -24 24 -29 38 -9
25 6 -4 19 -6 28 -5z m-1285 -13 c4 -8 10 -13 14 -10 4 2 15 -4 25 -15 16 -17
16 -20 2 -26 -27 -10 -146 17 -181 41 -17 13 -15 14 25 18 95 8 110 7 115 -8z
m108 2 c46 -10 56 -15 45 -24 -22 -17 -76 -26 -84 -13 -4 6 -21 20 -39 31 -30
18 -30 19 -6 19 14 -1 51 -6 84 -13z m371 -42 c22 -14 50 -25 62 -25 12 0 23
-4 25 -8 2 -4 33 -26 69 -49 52 -33 79 -43 121 -46 30 -2 66 -11 79 -20 23
-17 23 -17 -20 -17 -42 0 -181 49 -211 74 -25 21 -90 56 -90 48 0 -10 47 -37
157 -92 90 -46 92 -47 77 -68 -17 -25 -3 -30 16 -7 20 24 33 18 26 -12 -4 -16
-7 -33 -8 -39 -2 -14 -53 1 -78 21 -8 7 -41 25 -72 40 -32 14 -58 32 -58 38 0
7 -8 17 -18 22 -54 29 -145 95 -132 95 9 1 -1 15 -25 35 l-40 35 40 0 c25 -1
55 -10 80 -25z m-255 -10 c18 -22 5 -29 -47 -26 -22 1 -22 2 -5 20 21 24 36
25 52 6z m127 -70 l38 -35 -32 12 c-17 6 -36 22 -42 35 -14 31 -9 29 36 -12z
m1083 -12 c0 -19 -3 -24 -10 -17 -6 6 -8 18 -4 27 9 24 14 21 14 -10z m0 -45
c0 -5 5 -6 10 -3 6 3 10 4 10 1 0 -15 -20 -13 -36 5 -16 18 -16 19 -1 13 9 -3
17 -10 17 -16z m-20 -13 c11 -13 10 -14 -4 -9 -9 3 -16 10 -16 15 0 13 6 11
20 -6z m-967 -21 c21 -3 48 -16 60 -28 12 -11 41 -34 65 -50 23 -16 42 -33 42
-38 0 -4 10 -13 23 -18 12 -6 34 -18 49 -28 33 -22 171 -179 174 -198 3 -22
-21 -28 -67 -16 l-41 10 19 -21 c18 -22 18 -22 -3 -4 -11 9 -24 14 -29 10 -4
-5 -5 -2 -1 5 9 14 -23 44 -37 35 -4 -2 -7 -1 -6 4 1 4 -49 60 -110 123 -155
159 -220 234 -196 227 11 -3 37 -9 58 -13z m571 -50 c25 -14 46 -27 46 -29 0
-10 -67 18 -84 35 -27 27 -18 25 38 -6z m-157 -16 c31 -36 57 -109 42 -122 -9
-8 -10 -8 -5 2 4 6 4 12 -1 12 -4 0 -21 11 -37 25 -16 14 -33 25 -37 25 -6 0
-6 41 0 73 2 13 17 7 38 -15z m1375 0 c3 -7 4 -26 3 -43 -1 -16 -5 -72 -9
-123 -7 -97 -13 -122 -27 -122 -5 0 -6 16 -3 36 4 25 1 39 -7 45 -10 6 -10 12
4 27 21 23 22 42 2 42 -19 0 -19 36 0 74 13 25 13 27 0 16 -8 -7 -20 -30 -27
-52 -10 -34 -15 -38 -34 -34 -20 5 -23 2 -21 -21 2 -26 0 -28 -37 -26 -22 2
-49 9 -61 17 -27 18 -56 23 -73 12 -7 -4 -15 -6 -18 -4 -7 8 185 130 235 149
55 22 67 23 73 7z m-1264 -23 c-3 -3 -9 2 -12 12 -6 14 -5 15 5 6 7 -7 10 -15
7 -18z m667 -38 c43 -26 125 -89 125 -97 0 -4 -21 -16 -47 -27 l-48 -19 -27
43 c-16 24 -35 59 -43 78 -13 32 -12 35 3 35 9 -1 26 -6 37 -13z m-185 -21 c0
-8 7 -16 15 -19 13 -5 75 -103 75 -118 0 -16 -40 -15 -74 2 -39 18 -40 19 -56
19 -5 0 -10 5 -10 11 0 6 -11 25 -25 41 -32 37 -28 50 16 65 46 16 59 16 59
-1z m-598 -62 c32 -20 57 -39 54 -42 -3 -3 -1 -11 5 -19 9 -10 8 -13 -6 -13
-17 0 -138 109 -121 110 4 0 35 -16 68 -36z m475 -9 c16 -26 19 -35 8 -35 -22
0 -69 45 -61 58 12 20 30 12 53 -23z m-776 8 c13 -16 12 -17 -3 -4 -10 7 -18
15 -18 17 0 8 8 3 21 -13z m509 -17 c0 -2 -7 -7 -16 -10 -8 -3 -12 -2 -9 4 6
10 25 14 25 6z m20 -144 c-18 -25 -20 -32 -9 -56 10 -22 10 -32 -5 -63 l-17
-36 -27 26 c-36 34 -104 59 -157 58 -12 0 -4 8 24 24 24 14 49 25 55 25 7 0
21 9 31 20 27 29 36 24 18 -10 -25 -52 -9 -55 31 -7 21 26 47 47 58 47 18 0
18 -1 -2 -28z m164 -14 c-5 -7 32 -88 45 -98 3 -3 12 -20 18 -39 9 -26 10 -38
1 -48 -8 -10 -8 -20 0 -38 10 -22 9 -23 -9 -16 -12 4 -44 4 -72 0 -60 -7 -97
3 -104 31 -3 10 -15 26 -28 34 l-23 15 23 47 c13 26 21 54 18 61 -3 7 2 13 11
13 9 0 38 15 63 34 32 23 50 31 55 23 4 -6 5 -14 2 -19z m92 1 c49 -27 104
-69 104 -80 0 -4 -14 -18 -31 -30 -29 -20 -32 -21 -41 -5 -5 9 -14 13 -20 10
-7 -5 -8 -2 -4 5 5 7 1 20 -8 29 -16 19 -50 92 -41 92 2 0 21 -9 41 -21z m584
-6 c0 -5 -17 -9 -37 -10 -21 -1 -39 -7 -41 -12 -2 -6 -24 -11 -48 -11 -88 0
-13 37 79 39 26 1 47 -2 47 -6z m367 -80 c-3 -10 -5 -2 -5 17 0 19 2 27 5 18
2 -10 2 -26 0 -35z m-774 -16 c-6 -10 -12 -9 -27 7 -16 16 -16 18 -3 13 9 -3
20 -1 24 5 5 9 8 9 11 0 2 -6 0 -17 -5 -25z m510 13 c5 -5 3 -57 -3 -116 -7
-60 -12 -118 -12 -129 1 -11 -6 -27 -14 -37 -9 -9 -13 -23 -9 -30 6 -11 -4 -1
-44 48 -5 7 -26 44 -45 83 -20 39 -52 95 -71 125 -26 41 -30 53 -17 50 9 -2
49 2 87 10 68 13 111 12 128 -4z m234 -32 c-3 -7 -5 -2 -5 12 0 14 2 19 5 13
2 -7 2 -19 0 -25z m-822 2 c-3 -5 -12 -10 -18 -10 -7 0 -6 4 3 10 19 12 23 12
15 0z m880 -60 c3 -6 -1 -7 -9 -4 -18 7 -21 14 -7 14 6 0 13 -4 16 -10z m-954
-17 c13 -16 12 -17 -3 -4 -17 13 -22 21 -14 21 2 0 10 -8 17 -17z m181 -49 c5
-41 -9 -46 -18 -6 -3 15 -7 32 -9 39 -2 7 2 10 9 7 8 -3 16 -21 18 -40z m798
15 c0 -11 6 -22 14 -25 18 -7 10 -34 -10 -34 -7 0 -21 14 -31 30 -9 17 -21 30
-25 30 -4 0 -8 3 -8 8 0 4 14 8 30 9 24 2 30 -2 30 -18z m-884 -14 c10 -25 0
-34 -21 -18 -16 13 -17 15 -2 10 19 -7 24 9 5 16 -10 4 -10 6 0 6 7 1 15 -6
18 -14z m775 -49 c8 4 9 3 5 -4 -11 -18 -46 -14 -46 4 0 13 3 14 15 4 8 -6 20
-8 26 -4z m-54 -31 c0 -8 -4 -12 -9 -9 -4 3 -8 9 -8 15 0 5 4 9 8 9 5 0 9 -7
9 -15z m-1961 -446 c19 -22 19 -22 -3 -10 -13 6 -23 16 -23 21 0 15 5 12 26
-11z m131 -116 c53 -56 21 -36 -45 27 -34 33 -62 68 -61 78 0 12 12 3 37 -28
20 -24 51 -59 69 -77z m1668 -25 c7 -41 -2 -85 -15 -72 -4 5 -10 43 -14 84 -5
68 -4 73 9 50 7 -14 17 -42 20 -62z m-2848 -95 c-31 -2 -83 -2 -115 0 -31 2
-5 3 58 3 63 0 89 -1 57 -3z m191 0 c-21 -2 -57 -2 -80 0 -24 2 -7 4 37 4 44
0 63 -2 43 -4z m2605 -73 c-3 -11 -10 -20 -15 -20 -5 0 -6 -4 -3 -10 3 -5 -1
-10 -10 -10 -9 0 -13 5 -10 10 9 14 -8 12 -24 -2 -11 -11 -12 -10 -6 1 6 11 4
13 -8 8 -46 -19 -48 -17 -10 6 37 22 58 31 85 36 3 0 4 -8 1 -19z m-1382 -41
c-8 -38 -9 -40 -10 -12 -1 17 2 39 5 48 11 29 14 10 5 -36z m592 44 c-7 -2
-21 -2 -30 0 -10 3 -4 5 12 5 17 0 24 -2 18 -5z m76 -4 c-18 -11 -46 -12 -53
-1 -3 4 11 9 31 9 25 1 32 -2 22 -8z m401 -5 c8 -8 9 -14 4 -13 -21 4 -28 -2
-14 -11 11 -7 3 -10 -30 -11 -25 -1 -56 -3 -70 -4 -29 -3 -159 -8 -177 -6 -7
1 -13 5 -13 10 0 5 59 9 132 10 149 1 188 10 52 12 -96 1 -101 2 -124 11 -8 4
-24 9 -35 11 -11 2 44 5 121 6 117 1 144 -2 154 -15z m-1227 -28 c4 -10 1 -13
-9 -9 -7 3 -14 9 -14 14 0 14 17 10 23 -5z m593 -21 c27 3 67 7 88 9 40 3 40
3 16 -13 -14 -9 -41 -31 -61 -48 -52 -47 -56 -46 -155 32 l-25 20 25 1 c14 1
23 -2 20 -7 -3 -5 2 -6 10 -3 9 3 16 11 16 18 0 7 3 6 9 -2 5 -9 22 -11 57 -7z
m777 8 c-7 -2 -21 -2 -30 0 -10 3 -4 5 12 5 17 0 24 -2 18 -5z m2126 -90 c-33
-74 -37 -76 -68 -40 -15 18 -36 47 -46 65 -23 39 -42 41 -55 6 -8 -19 -5 -34
10 -64 22 -43 25 -54 11 -46 -14 9 -42 -5 -35 -16 3 -5 17 -7 30 -4 45 12 24
-2 -28 -18 -29 -9 -73 -23 -98 -31 -25 -7 -65 -17 -90 -21 -25 -3 -54 -8 -65
-10 -25 -5 -175 26 -175 36 0 4 -13 13 -30 20 -40 17 -38 36 5 44 23 5 32 11
29 20 -4 10 9 16 43 20 26 4 64 16 84 26 20 10 58 22 85 25 27 4 56 11 64 15
9 5 38 9 65 11 28 1 59 9 70 18 18 15 19 15 6 -1 -16 -22 1 -24 19 -3 9 11 34
15 96 15 60 0 84 4 85 13 1 6 4 2 6 -10 2 -12 -6 -43 -18 -70z m-1584 47 c3
-5 1 -10 -4 -10 -6 0 -11 5 -11 10 0 6 2 10 4 10 3 0 8 -4 11 -10z m90 0 c3
-6 -1 -7 -9 -4 -18 7 -21 14 -7 14 6 0 13 -4 16 -10z m-1831 -16 c3 -8 2 -12
-4 -9 -6 3 -10 10 -10 16 0 14 7 11 14 -7z m546 -18 c0 -2 -8 -10 -17 -17 -16
-13 -17 -12 -4 4 13 16 21 21 21 13z m3184 -22 c3 -7 1 -16 -5 -19 -5 -4 -9
-3 -8 2 3 19 -2 27 -10 15 -6 -11 -9 -9 -13 6 -4 15 -1 18 13 15 9 -3 20 -11
23 -19z m69 9 c-13 -2 -33 -2 -45 0 -13 2 -3 4 22 4 25 0 35 -2 23 -4z m-2763
-13 c0 -5 -7 -7 -15 -4 -8 4 -15 8 -15 10 0 2 7 4 15 4 8 0 15 -4 15 -10z
m290 6 c0 -2 -8 -10 -17 -17 -16 -13 -17 -12 -4 4 13 16 21 21 21 13z m428
-41 c-3 -3 -9 2 -12 12 -6 14 -5 15 5 6 7 -7 10 -15 7 -18z m683 8 c13 -16 12
-17 -3 -4 -10 7 -18 15 -18 17 0 8 8 3 21 -13z m-1934 1 c-3 -3 -12 -4 -19 -1
-8 3 -5 6 6 6 11 1 17 -2 13 -5z m2930 -16 c-3 -8 -6 -5 -6 6 -1 11 2 17 5 13
3 -3 4 -12 1 -19z m-3247 2 c0 -5 -5 -10 -11 -10 -5 0 -7 5 -4 10 3 6 8 10 11
10 2 0 4 -4 4 -10z m-485 -10 c-3 -5 -12 -10 -18 -10 -7 0 -6 4 3 10 19 12 23
12 15 0z m109 -5 c19 -14 18 -15 -12 -15 -18 0 -32 5 -32 11 0 5 -5 7 -12 3
-7 -4 -8 -3 -4 4 10 16 37 14 60 -3z m3836 11 c0 -2 -7 -7 -16 -10 -8 -3 -12
-2 -9 4 6 10 25 14 25 6z m-2993 -12 c-3 -3 -12 -4 -19 -1 -8 3 -5 6 6 6 11 1
17 -2 13 -5z m1124 -11 c13 -16 12 -17 -3 -4 -17 13 -22 21 -14 21 2 0 10 -8
17 -17z m699 2 c11 -13 10 -14 -4 -9 -9 3 -16 10 -16 15 0 13 6 11 20 -6z
m1160 -9 c0 -2 -8 -10 -17 -17 -16 -13 -17 -12 -4 4 13 16 21 21 21 13z
m-1856 -32 c3 -8 2 -12 -4 -9 -6 3 -10 10 -10 16 0 14 7 11 14 -7z m745 -19
c17 -19 27 -35 22 -35 -5 0 -21 16 -35 35 -15 19 -25 35 -23 35 2 0 18 -16 36
-35z m-714 6 c-3 -5 -1 -12 5 -16 5 -3 10 -11 10 -16 0 -6 -7 -3 -16 5 -13 14
-12 36 2 36 3 0 3 -4 -1 -9z m-262 -37 c4 -24 -2 -27 -75 -38 -10 -1 -21 -5
-24 -9 -10 -9 -24 -9 -24 1 0 4 18 15 40 25 23 9 43 23 46 30 8 22 32 16 37
-9z m72 -13 c3 -5 2 -12 -3 -15 -5 -3 -9 1 -9 9 0 17 3 19 12 6z m1734 -25
c-12 -10 -79 -16 -79 -6 0 5 19 10 42 10 23 0 39 -2 37 -4z m26 -6 c3 -5 1
-10 -4 -10 -6 0 -11 5 -11 10 0 6 2 10 4 10 3 0 8 -4 11 -10z m-165 -10 c0 -5
-12 -10 -27 -9 l-28 1 25 8 c14 4 26 8 28 9 1 1 2 -3 2 -9z m40 6 c0 -2 -7 -6
-15 -10 -8 -3 -15 -1 -15 4 0 6 7 10 15 10 8 0 15 -2 15 -4z m-1858 -22 c-12
-8 -35 -13 -50 -11 -25 4 -25 4 5 6 17 0 35 6 38 11 3 6 11 10 18 10 6 0 1 -7
-11 -16z m537 -10 c-13 -14 -33 -30 -44 -36 -11 -5 -3 7 17 26 43 41 63 49 27
10z m246 16 c3 -5 1 -10 -4 -10 -6 0 -11 5 -11 10 0 6 2 10 4 10 3 0 8 -4 11
-10z m250 -6 c-39 -17 -46 -17 -86 1 -34 15 -33 15 41 13 71 -1 73 -2 45 -14z
m605 6 c0 -5 -5 -10 -11 -10 -5 0 -7 5 -4 10 3 6 8 10 11 10 2 0 4 -4 4 -10z
m-270 -21 c0 -7 -61 -1 -69 7 -2 2 13 3 33 2 20 -1 36 -5 36 -9z m731 -46 c13
-16 12 -17 -3 -4 -17 13 -22 21 -14 21 2 0 10 -8 17 -17z m-2446 -12 c-3 -6
-11 -11 -16 -11 -5 0 -4 6 3 14 14 16 24 13 13 -3z m-1928 -117 c-3 -3 -12 -4
-19 -1 -8 3 -5 6 6 6 11 1 17 -2 13 -5z m1050 -50 c-3 -3 -12 -4 -19 -1 -8 3
-5 6 6 6 11 1 17 -2 13 -5z m-630 -20 c-3 -3 -12 -4 -19 -1 -8 3 -5 6 6 6 11
1 17 -2 13 -5z m511 -31 c-10 -2 -26 -2 -35 0 -10 3 -2 5 17 5 19 0 27 -2 18
-5z m65 0 c-7 -2 -19 -2 -25 0 -7 3 -2 5 12 5 14 0 19 -2 13 -5z m-1800 -20
c-7 -2 -21 -2 -30 0 -10 3 -4 5 12 5 17 0 24 -2 18 -5z m1944 -9 c-3 -3 -12
-4 -19 -1 -8 3 -5 6 6 6 11 1 17 -2 13 -5z m-1494 -11 c-7 -2 -21 -2 -30 0
-10 3 -4 5 12 5 17 0 24 -2 18 -5z m72 -3 c-3 -5 -18 -9 -33 -9 l-27 1 30 8
c17 4 31 8 33 9 2 0 0 -3 -3 -9z m-172 -7 c-7 -2 -19 -2 -25 0 -7 3 -2 5 12 5
14 0 19 -2 13 -5z m-496 -9 c-3 -3 -12 -4 -19 -1 -8 3 -5 6 6 6 11 1 17 -2 13
-5z m378 -12 c-3 -3 -11 0 -18 7 -9 10 -8 11 6 5 10 -3 15 -9 12 -12z m342 12
c-3 -3 -12 -4 -19 -1 -8 3 -5 6 6 6 11 1 17 -2 13 -5z m60 0 c-3 -3 -12 -4
-19 -1 -8 3 -5 6 6 6 11 1 17 -2 13 -5z m241 -1 c-10 -2 -26 -2 -35 0 -10 3
-2 5 17 5 19 0 27 -2 18 -5z m152 -3 c0 -3 -5 -12 -10 -20 -6 -10 -10 -11 -10
-2 0 6 -12 12 -26 12 -14 0 -23 4 -19 10 6 9 65 10 65 0z m-312 -7 c-10 -2
-28 -2 -40 0 -13 2 -5 4 17 4 22 1 32 -1 23 -4z m219 1 c-3 -3 -12 -4 -19 -1
-8 3 -5 6 6 6 11 1 17 -2 13 -5z m206 -8 c9 0 16 -4 14 -9 -1 -5 -6 -8 -10 -8
-4 1 -33 1 -64 2 l-58 1 35 13 c19 7 42 11 50 8 8 -3 23 -6 33 -7z m832 4 c3
-6 -1 -7 -9 -4 -18 7 -21 14 -7 14 6 0 13 -4 16 -10z m-1507 -17 c-16 -2 -40
-2 -55 0 -16 2 -3 4 27 4 30 0 43 -2 28 -4z m196 -8 c-4 -10 -19 -15 -48 -14
l-41 2 40 7 40 6 -35 6 c-35 5 -35 5 7 6 34 2 41 -1 37 -13z m183 9 c-3 -3
-12 -4 -19 -1 -8 3 -5 6 6 6 11 1 17 -2 13 -5z m150 0 c-3 -3 -12 -4 -19 -1
-8 3 -5 6 6 6 11 1 17 -2 13 -5z m218 -4 c-27 -12 -35 -12 -35 0 0 6 12 10 28
9 24 0 25 -1 7 -9z m270 0 l20 -9 -20 1 c-11 0 -31 4 -45 8 l-25 8 25 0 c14 0
34 -3 45 -8z m-785 -4 c0 -3 -4 -8 -10 -11 -5 -3 -10 -1 -10 4 0 6 5 11 10 11
6 0 10 -2 10 -4z m120 -6 c10 -7 -1 -8 -35 -4 -27 4 -52 8 -54 10 -10 9 75 3
89 -6z m1063 3 c-7 -2 -19 -2 -25 0 -7 3 -2 5 12 5 14 0 19 -2 13 -5z m-1490
-10 c-13 -2 -35 -2 -50 0 -16 2 -5 4 22 4 28 0 40 -2 28 -4z m615 0 c-10 -2
-26 -2 -35 0 -10 3 -2 5 17 5 19 0 27 -2 18 -5z m-443 -13 c3 -5 2 -10 -4 -10
-5 0 -13 5 -16 10 -3 6 -2 10 4 10 5 0 13 -4 16 -10z m212 4 c-3 -3 -12 -4
-19 -1 -8 3 -5 6 6 6 11 1 17 -2 13 -5z m381 -1 c-10 -2 -28 -2 -40 0 -13 2
-5 4 17 4 22 1 32 -1 23 -4z m419 -8 c-13 -10 -15 -14 -5 -18 7 -3 -1 -6 -19
-6 -17 -1 -33 5 -35 11 -3 9 -38 15 -104 19 -98 6 -98 6 41 7 119 0 137 -1
122 -13z m288 5 c-11 -5 -31 -8 -45 -8 l-25 0 25 8 c14 4 34 8 45 8 l20 1 -20
-9z m-2022 -7 c-7 -2 -19 -2 -25 0 -7 3 -2 5 12 5 14 0 19 -2 13 -5z m994 1
c-3 -3 -12 -4 -19 -1 -8 3 -5 6 6 6 11 1 17 -2 13 -5z m208 -5 c22 -6 47 -11
56 -10 9 0 16 -6 16 -14 0 -7 -5 -11 -11 -9 -9 3 -62 10 -101 13 -5 1 -3 6 5
11 11 7 -1 9 -40 6 -42 -3 -46 -2 -20 4 51 11 51 11 95 -1z m723 6 c-3 -3 -39
-8 -79 -9 -51 -3 -63 -2 -39 4 42 9 126 12 118 5z m212 -5 c0 -5 -4 -10 -10
-10 -5 0 -10 5 -10 10 0 6 5 10 10 10 6 0 10 -4 10 -10z m55 -14 l23 -24 -37
5 c-44 7 -43 6 -35 27 9 22 23 20 49 -8z m-107 5 c9 -5 -10 -10 -50 -14 -72
-6 -85 -2 -37 12 44 12 71 13 87 2z m-1331 -7 c-3 -3 -12 -4 -19 -1 -8 3 -5 6
6 6 11 1 17 -2 13 -5z m43 -4 c0 -5 -4 -10 -10 -10 -5 0 -10 5 -10 10 0 6 5
10 10 10 6 0 10 -4 10 -10z m35 0 c3 -5 1 -10 -4 -10 -6 0 -11 5 -11 10 0 6 2
10 4 10 3 0 8 -4 11 -10z m-262 -7 c-13 -2 -33 -2 -45 0 -13 2 -3 4 22 4 25 0
35 -2 23 -4z m1057 -3 c0 -7 -14 -8 -37 -4 -52 9 -54 14 -5 14 23 0 42 -5 42
-10z m721 -16 c8 -5 9 -3 4 6 -6 10 -4 12 9 7 10 -4 23 -7 29 -7 7 0 5 -5 -3
-10 -19 -10 -113 -8 -97 2 7 4 -5 8 -25 8 -21 0 -38 4 -38 8 0 10 102 -2 121
-14z m-2134 10 c-3 -3 -12 -4 -19 -1 -8 3 -5 6 6 6 11 1 17 -2 13 -5z m466 -1
c-7 -2 -21 -2 -30 0 -10 3 -4 5 12 5 17 0 24 -2 18 -5z m290 0 c-7 -2 -21 -2
-30 0 -10 3 -4 5 12 5 17 0 24 -2 18 -5z m374 1 c-3 -3 -12 -4 -19 -1 -8 3 -5
6 6 6 11 1 17 -2 13 -5z m96 -1 c-7 -2 -21 -2 -30 0 -10 3 -4 5 12 5 17 0 24
-2 18 -5z m-1286 -9 c-3 -3 -12 -4 -19 -1 -8 3 -5 6 6 6 11 1 17 -2 13 -5z
m653 -4 c0 -5 -4 -10 -10 -10 -5 0 -10 5 -10 10 0 6 5 10 10 10 6 0 10 -4 10
-10z m312 -15 l33 -14 -45 1 c-25 0 -36 3 -25 6 13 4 0 10 -40 18 l-60 13 52
-5 c29 -2 67 -11 85 -19z m393 15 c4 -7 -3 -8 -22 -4 -38 9 -42 14 -10 14 14
0 29 -5 32 -10z m485 -6 c19 -1 48 -3 63 -3 17 -1 26 -5 22 -11 -4 -6 -21 -8
-40 -4 -18 3 -41 1 -52 -4 -11 -6 -33 -7 -53 -2 l-35 8 30 2 30 2 -32 9 c-18
5 -33 12 -33 16 0 3 15 2 33 -2 17 -5 48 -9 67 -11z m148 9 c-10 -2 -28 -2
-40 0 -13 2 -5 4 17 4 22 1 32 -1 23 -4z m-491 -9 c-3 -3 -12 -4 -19 -1 -8 3
-5 6 6 6 11 1 17 -2 13 -5z m66 -1 c-7 -2 -19 -2 -25 0 -7 3 -2 5 12 5 14 0
19 -2 13 -5z m520 0 c-7 -2 -21 -2 -30 0 -10 3 -4 5 12 5 17 0 24 -2 18 -5z
m262 -2 c17 -7 16 -9 -13 -16 -18 -4 -36 -4 -39 -1 -4 3 5 6 18 7 l24 1 -25 8
c-20 6 -21 8 -5 8 11 0 29 -3 40 -7z m-1547 -8 c-16 -2 -40 -2 -55 0 -16 2 -3
4 27 4 30 0 43 -2 28 -4z m554 -19 c58 -8 64 -16 8 -10 -57 5 -90 16 -90 28 0
5 9 4 20 -2 11 -6 39 -13 62 -16z m285 20 c-3 -3 -12 -4 -19 -1 -8 3 -5 6 6 6
11 1 17 -2 13 -5z m58 -4 c-3 -5 -13 -10 -21 -10 -8 0 -14 5 -14 10 0 6 9 10
21 10 11 0 17 -4 14 -10z m955 6 c0 -2 -9 -6 -20 -9 -11 -3 -18 -1 -14 4 5 9
34 13 34 5z m323 -3 c-7 -2 -21 -2 -30 0 -10 3 -4 5 12 5 17 0 24 -2 18 -5z
m-1473 -7 c0 -11 -19 -15 -25 -6 -3 5 1 10 9 10 9 0 16 -2 16 -4z m960 -6 c11
-7 5 -8 -20 -4 -43 8 -51 14 -19 14 13 0 31 -5 39 -10z m1257 4 c-3 -3 -12 -4
-19 -1 -8 3 -5 6 6 6 11 1 17 -2 13 -5z m-3829 -11 c-10 -2 -28 -2 -40 0 -13
2 -5 4 17 4 22 1 32 -1 23 -4z m629 1 c-3 -3 -12 -4 -19 -1 -8 3 -5 6 6 6 11
1 17 -2 13 -5z m728 -4 c4 -6 -7 -10 -25 -10 -18 0 -29 4 -25 10 3 6 15 10 25
10 10 0 22 -4 25 -10z m505 0 c12 -8 11 -10 -7 -10 -13 0 -23 5 -23 10 0 13
11 13 30 0z m1685 0 c13 -5 14 -9 5 -9 -8 0 -24 4 -35 9 -13 5 -14 9 -5 9 8 0
24 -4 35 -9z m-3078 -6 c-3 -3 -12 -4 -19 -1 -8 3 -5 6 6 6 11 1 17 -2 13 -5z
m666 -1 c-7 -2 -19 -2 -25 0 -7 3 -2 5 12 5 14 0 19 -2 13 -5z m1402 -3 c-3
-5 -12 -10 -20 -10 -8 0 -17 5 -20 10 -4 6 5 10 20 10 15 0 24 -4 20 -10z
m-2155 -10 c0 -5 -23 -10 -51 -10 -31 0 -48 4 -44 10 3 6 26 10 51 10 24 0 44
-4 44 -10z m840 -6 c0 -2 -18 -4 -41 -4 -22 0 -38 4 -35 8 5 8 76 4 76 -4z
m343 9 c-7 -2 -19 -2 -25 0 -7 3 -2 5 12 5 14 0 19 -2 13 -5z m375 -11 c4 -13
-26 -16 -55 -5 -16 6 -15 8 7 14 31 9 43 6 48 -9z m142 8 c-24 -8 -23 -8 8 -9
17 -1 32 -5 32 -11 0 -5 10 -10 22 -10 12 0 18 -3 15 -6 -10 -10 -157 17 -157
28 0 6 7 8 15 4 8 -3 15 -1 15 4 0 6 17 10 38 9 33 -1 34 -2 12 -9z m279 -6
c9 -8 -55 -2 -74 6 -13 6 -5 7 25 3 25 -3 47 -7 49 -9z m-1919 2 c0 -2 -9 -6
-20 -9 -11 -3 -18 -1 -14 4 5 9 34 13 34 5z m967 -2 c-3 -3 -12 -4 -19 -1 -8
3 -5 6 6 6 11 1 17 -2 13 -5z m841 -1 c-10 -2 -28 -2 -40 0 -13 2 -5 4 17 4
22 1 32 -1 23 -4z m830 0 c-10 -2 -26 -2 -35 0 -10 3 -2 5 17 5 19 0 27 -2 18
-5z m-373 -13 c14 -7 8 -8 -20 -3 -22 3 -42 7 -44 9 -9 8 45 2 64 -6z m490 0
c3 -6 -1 -7 -9 -4 -18 7 -21 14 -7 14 6 0 13 -4 16 -10z m318 3 c-7 -2 -19 -2
-25 0 -7 3 -2 5 12 5 14 0 19 -2 13 -5z m1324 1 c-3 -3 -12 -4 -19 -1 -8 3 -5
6 6 6 11 1 17 -2 13 -5z m-4560 -10 c-3 -3 -12 -4 -19 -1 -8 3 -5 6 6 6 11 1
17 -2 13 -5z m100 0 c-3 -3 -12 -4 -19 -1 -8 3 -5 6 6 6 11 1 17 -2 13 -5z
m1089 -3 c-3 -5 -15 -7 -26 -4 -28 7 -25 13 6 13 14 0 23 -4 20 -9z m2131 3
c-3 -3 -12 -4 -19 -1 -8 3 -5 6 6 6 11 1 17 -2 13 -5z m271 -1 c-10 -2 -28 -2
-40 0 -13 2 -5 4 17 4 22 1 32 -1 23 -4z m570 0 c-10 -2 -26 -2 -35 0 -10 3
-2 5 17 5 19 0 27 -2 18 -5z m-2492 -13 c8 0 14 -4 14 -9 0 -12 -79 -19 -110
-10 -21 6 -19 8 15 9 33 1 37 3 20 11 -16 7 -12 8 14 4 18 -3 40 -5 47 -5z
m261 4 c-3 -3 -12 -4 -19 -1 -8 3 -5 6 6 6 11 1 17 -2 13 -5z m386 -7 c26 0
50 -4 54 -10 8 -13 -198 1 -212 15 -7 6 10 7 50 2 33 -4 81 -7 108 -7z m462 3
c-3 -5 -14 -10 -23 -9 -14 0 -13 2 3 9 27 11 27 11 20 0z m268 3 c-13 -2 -33
-2 -45 0 -13 2 -3 4 22 4 25 0 35 -2 23 -4z m-2040 -10 c-13 -2 -35 -2 -50 0
-16 2 -5 4 22 4 28 0 40 -2 28 -4z m1034 1 c-3 -3 -12 -4 -19 -1 -8 3 -5 6 6
6 11 1 17 -2 13 -5z m-1820 -10 c-3 -3 -12 -4 -19 -1 -8 3 -5 6 6 6 11 1 17
-2 13 -5z m96 -1 c-7 -2 -19 -2 -25 0 -7 3 -2 5 12 5 14 0 19 -2 13 -5z m812
-3 c18 -8 17 -9 -7 -9 -15 -1 -30 4 -33 9 -7 12 12 12 40 0z m255 -12 c31 -10
-128 0 -185 12 -26 5 -4 6 60 2 55 -3 111 -9 125 -14z m585 12 c-11 -5 -49 -8
-85 -8 -54 1 -58 2 -25 7 67 10 133 11 110 1z m1566 -8 c-13 -2 -27 0 -32 5
-6 6 3 7 23 4 28 -4 29 -6 9 -9z m-3073 1 c-10 -2 -28 -2 -40 0 -13 2 -5 4 17
4 22 1 32 -1 23 -4z m2219 1 c-3 -3 -12 -4 -19 -1 -8 3 -5 6 6 6 11 1 17 -2
13 -5z m1196 -11 c-7 -2 -21 -2 -30 0 -10 3 -4 5 12 5 17 0 24 -2 18 -5z"/>
<path d="M1338 3203 c7 -3 16 -2 19 1 4 3 -2 6 -13 5 -11 0 -14 -3 -6 -6z"/>
<path d="M3413 3439 c10 -6 23 -6 33 -1 12 7 8 9 -18 10 -26 1 -30 -1 -15 -9z"/>
<path d="M2038 1053 c6 -2 18 -2 25 0 6 3 1 5 -13 5 -14 0 -19 -2 -12 -5z"/>
<path d="M2108 1053 c18 -2 45 -2 60 0 15 2 0 4 -33 4 -33 0 -45 -2 -27 -4z"/>
<path d="M2218 1053 c12 -2 32 -2 45 0 12 2 2 4 -23 4 -25 0 -35 -2 -22 -4z"/>
<path d="M3822 1023 c37 -2 100 -2 140 0 40 1 10 3 -67 3 -77 0 -110 -1 -73
-3z"/>
<path d="M4265 1019 c-4 -6 -4 -13 -1 -16 3 -4 6 -1 6 6 0 7 4 9 10 6 5 -3 18
-1 27 4 16 9 14 10 -9 11 -15 0 -30 -5 -33 -11z"/>
<path d="M3043 1014 c3 -4 27 -8 53 -10 61 -5 51 6 -12 12 -26 2 -45 2 -41 -2z"/>
<path d="M4688 1013 c6 -2 18 -2 25 0 6 3 1 5 -13 5 -14 0 -19 -2 -12 -5z"/>
<path d="M4748 1013 c12 -2 30 -2 40 0 9 3 -1 5 -23 4 -22 0 -30 -2 -17 -4z"/>
<path d="M5123 1013 c37 -2 96 -2 130 0 34 2 4 3 -68 3 -71 0 -99 -1 -62 -3z"/>
<path d="M5363 1003 c15 -2 37 -2 50 0 12 2 0 4 -28 4 -27 0 -38 -2 -22 -4z"/>
<path d="M5448 1003 c7 -3 16 -2 19 1 4 3 -2 6 -13 5 -11 0 -14 -3 -6 -6z"/>
<path d="M6090 1000 c-10 -7 26 -10 118 -8 72 2 132 6 132 10 0 12 -233 9
-250 -2z"/>
<path d="M6355 1000 c3 -5 14 -10 23 -10 15 0 15 2 2 10 -20 13 -33 13 -25 0z"/>
<path d="M5868 973 c34 -2 90 -2 125 0 34 2 6 3 -63 3 -69 0 -97 -1 -62 -3z"/>
<path d="M5448 943 c6 -2 18 -2 25 0 6 3 1 5 -13 5 -14 0 -19 -2 -12 -5z"/>
<path d="M5583 904 c3 -4 2 -16 -4 -28 -10 -20 -10 -20 5 -2 19 24 20 36 4 36
-6 0 -8 -3 -5 -6z"/>
<path d="M5526 892 c-2 -4 7 -8 20 -8 13 -1 24 1 24 5 0 9 -38 12 -44 3z"/>
</g>
</svg>
