<?xml version="1.0" standalone="no"?>
<!DOCTYPE svg PUBLIC "-//W3C//DTD SVG 20010904//EN"
 "http://www.w3.org/TR/2001/REC-SVG-20010904/DTD/svg10.dtd">
<svg version="1.0" xmlns="http://www.w3.org/2000/svg"
 width="640.000000pt" height="426.000000pt" viewBox="0 0 640.000000 426.000000"
 preserveAspectRatio="xMidYMid meet">

<g transform="translate(0.000000,426.000000) scale(0.100000,-0.100000)"
fill="#000000" stroke="none">
<path d="M0 3512 c0 -412 3 -752 7 -755 3 -4 11 -3 17 3 8 6 12 3 12 -10 0
-11 -2 -17 -5 -15 -2 3 -10 0 -18 -6 -8 -7 -13 -33 -13 -69 0 -55 2 -61 47
-110 l47 -52 -47 3 -47 4 0 -1252 0 -1253 1949 0 1949 0 -5 42 c-3 32 -2 39 6
28 6 -8 11 -27 11 -42 l0 -28 1245 0 1245 0 0 589 0 588 -67 6 c-38 4 -138 11
-223 17 -212 15 -192 9 -194 63 -1 64 -4 63 284 42 36 -3 95 -7 133 -9 l67 -4
0 124 0 124 -105 1 c-58 1 -109 3 -115 4 -5 1 -13 3 -17 5 -5 1 -28 1 -52 0
-27 -1 -41 2 -37 9 4 5 -3 15 -14 21 -11 6 -20 8 -20 4 0 -3 -11 1 -25 10 -13
9 -26 16 -29 16 -3 0 -4 -27 -4 -60 0 -33 -2 -63 -6 -67 -3 -3 -6 12 -6 35 0
23 -5 42 -10 42 -9 0 -8 20 6 72 5 17 64 23 64 6 0 -8 36 -48 43 -48 10 0 -2
60 -16 81 -9 13 -17 32 -17 42 0 10 -4 16 -9 12 -24 -14 -36 297 -13 350 l12
30 79 -5 c70 -4 82 -8 98 -30 13 -17 19 -38 17 -65 -1 -22 -3 -52 -3 -66 -1
-27 -29 -37 -43 -15 -5 7 -8 6 -8 -4 0 -10 -3 -11 -8 -4 -14 22 -49 25 -68 7
-17 -17 -17 -17 -11 0 8 22 -19 23 -47 2 -23 -17 -17 -27 16 -26 84 2 152 -1
161 -6 5 -3 7 -29 3 -62 -7 -66 4 -92 31 -75 10 7 17 21 16 33 -2 15 3 21 16
21 13 0 17 -6 14 -22 -5 -33 10 -51 36 -43 20 6 21 11 15 80 l-7 74 34 4 34 4
-37 1 -38 2 0 71 c0 75 12 98 53 99 14 0 17 9 17 50 l0 50 -91 0 c-83 0 -91 2
-96 20 -7 25 -39 22 -35 -3 2 -14 -5 -17 -38 -17 l-40 0 17 28 c9 15 23 35 31
44 12 14 13 33 7 95 -4 43 -8 101 -9 129 -1 28 -7 58 -14 67 -10 12 -12 59 -8
214 8 259 16 794 17 1058 0 141 -3 211 -10 213 -6 2 -11 -3 -11 -12 0 -9 -4
-16 -10 -16 -10 0 -45 -60 -42 -72 1 -5 -4 -8 -12 -8 -8 0 -18 -9 -21 -20 -4
-11 -17 -33 -30 -48 -16 -20 -21 -33 -14 -43 7 -12 9 -11 9 3 0 9 11 30 24 46
14 15 41 53 61 83 l35 54 -2 -445 c-2 -431 -12 -959 -20 -990 -2 -8 -7 -21
-11 -27 -4 -7 -3 -31 4 -53 30 -100 -30 -239 -111 -256 -19 -4 -41 -14 -47
-23 -10 -13 -14 -14 -22 -2 -7 11 -9 11 -14 0 -4 -10 -6 -9 -6 3 -1 9 10 25
24 36 45 36 29 141 -24 160 -70 27 -139 3 -113 -39 7 -10 12 -46 12 -78 0 -33
5 -63 10 -66 6 -3 10 -11 10 -17 0 -7 -4 -7 -13 0 -7 6 -35 16 -62 23 -28 6
-65 20 -82 31 -29 17 -33 25 -34 61 0 31 -2 37 -8 22 -5 -11 -6 -27 -3 -35 7
-20 -3 -10 -18 19 -8 15 -8 21 -1 17 16 -10 13 4 -10 44 -18 31 -18 23 -1 -19
3 -9 1 -12 -5 -8 -6 4 -23 41 -39 83 -15 42 -36 81 -47 87 -10 7 -28 32 -38
56 -23 53 -34 50 -16 -5 7 -21 11 -52 7 -69 l-6 -30 -17 30 c-9 17 -16 24 -17
17 0 -10 -5 -10 -22 -1 -30 14 23 -32 70 -62 17 -11 32 -22 32 -23 0 -1 5 -29
11 -61 12 -68 36 -120 72 -155 l25 -25 -117 4 c-64 1 -122 8 -130 14 -20 16
-39 17 -45 1 -8 -21 -85 -18 -103 4 -8 9 -12 12 -9 5 9 -17 -2 -18 -154 -15
l-140 3 -76 150 c-42 83 -78 148 -81 145 -3 -3 29 -70 71 -150 l75 -146 -90 0
c-84 0 -90 2 -99 23 -6 15 -9 17 -9 6 -1 -23 -43 -33 -57 -14 -9 12 -13 13
-17 3 -3 -10 -34 -12 -132 -8 l-127 5 -33 82 c-18 45 -41 105 -50 133 l-17 51
39 35 c21 20 5 11 -35 -19 -40 -30 -101 -86 -135 -123 l-61 -69 88 84 c63 60
90 80 96 71 16 -27 93 -240 88 -245 -3 -3 -127 -3 -275 1 -268 7 -270 7 -265
28 4 21 4 21 -12 1 -17 -20 -17 -20 -11 3 4 14 0 28 -10 38 -15 15 -17 15 -23
-7 l-6 -24 -7 25 c-7 25 -7 25 -8 -3 -1 -25 -23 -61 -32 -53 -2 2 -118 6 -256
9 l-253 6 15 -29 c9 -17 15 -33 15 -37 -1 -5 7 -17 18 -28 39 -41 48 -132 18
-178 -15 -21 -17 -38 -12 -75 8 -55 8 -57 2 -102 -3 -27 -8 -35 -23 -34 -15 0
-19 -5 -16 -20 4 -20 4 -20 -7 -2 -9 13 -9 24 -2 40 6 11 13 51 16 88 3 37 12
82 21 99 23 43 24 137 3 153 -9 6 -23 34 -32 61 -10 28 -28 69 -42 93 -14 23
-22 42 -19 42 3 0 -4 9 -15 20 -11 11 -20 25 -20 30 0 6 -8 10 -18 10 -10 0
-58 44 -108 98 -50 53 -133 135 -185 180 l-94 84 112 -109 c134 -130 254 -263
247 -275 -3 -4 5 -19 18 -32 48 -49 63 -102 18 -61 -16 15 -20 15 -20 3 0 -12
-18 -15 -107 -14 l-108 1 -23 43 c-16 28 -30 42 -44 42 -11 0 -45 20 -76 43
-107 82 -472 324 -472 313 0 -3 78 -56 173 -119 261 -174 335 -229 348 -260 7
-15 20 -32 30 -38 41 -21 13 -26 -138 -21 -192 5 -233 19 -224 75 0 4 -3 7 -9
7 -5 0 -10 -4 -10 -9 0 -5 -9 -7 -20 -4 -11 3 -20 9 -20 13 0 4 -18 8 -41 8
-23 1 -42 2 -43 4 -40 58 -96 155 -96 166 0 7 -10 22 -22 33 -19 16 -21 20 -8
28 12 8 9 12 -12 20 -16 6 -38 32 -58 66 -18 31 -34 54 -37 52 -2 -3 7 -23 21
-46 32 -51 32 -56 1 -35 -14 9 -25 23 -25 30 0 21 -45 17 -92 -7 -23 -12 -44
-17 -45 -12 -7 19 -32 48 -33 36 0 -6 5 -15 10 -18 36 -22 -23 -55 -98 -55
-25 0 -35 5 -39 20 -5 19 -14 20 -124 20 -82 0 -119 -4 -119 -11 0 -7 -10 -22
-22 -33 -13 -12 -29 -31 -36 -42 -11 -18 -12 -18 -11 6 2 48 0 52 -23 44 -13
-4 -40 -6 -60 -6 -66 3 -66 -20 -3 -149 30 -61 55 -119 55 -129 0 -9 10 -28
23 -42 32 -35 90 -109 103 -133 19 -33 25 -136 11 -175 -11 -32 -47 -55 -47
-31 0 6 7 11 15 11 22 0 18 27 -6 51 -17 17 -23 19 -30 8 -7 -12 -9 -12 -9 0
0 7 -6 11 -15 7 -8 -3 -14 -2 -14 2 4 26 -3 34 -25 28 -15 -4 -26 -1 -29 7 -4
9 -6 9 -6 0 -1 -7 -7 -13 -13 -13 -9 0 -14 20 -15 63 -2 43 0 56 7 42 7 -17 9
-15 9 13 1 30 -1 32 -19 22 -14 -7 -20 -7 -20 0 0 5 6 10 14 10 8 0 18 5 21
10 8 13 -66 130 -83 130 -7 0 -16 8 -19 18 -4 9 -11 21 -17 25 -6 5 3 6 21 3
18 -3 35 -1 38 4 10 16 42 11 49 -6 10 -25 18 -10 11 19 -5 18 -12 24 -23 20
-9 -4 -13 -2 -9 4 7 11 -66 163 -85 174 -7 4 -13 18 -13 31 0 17 -6 24 -25 25
l-25 3 23 -12 c37 -18 19 -33 -41 -34 -32 -1 -57 1 -57 3 0 3 11 14 26 25 14
11 23 22 21 25 -7 6 -87 -38 -87 -48 0 -16 -28 2 -33 22 -5 17 -15 19 -121 19
l-116 0 -6 -26 c-4 -15 -12 -23 -20 -20 -7 3 -16 1 -19 -4 -14 -23 -26 -8 -19
25 6 33 5 35 -23 35 -16 0 -34 5 -41 12 -9 9 -12 7 -12 -10 0 -12 5 -22 10
-22 6 0 8 -11 4 -25 -4 -15 -2 -25 5 -25 6 0 11 -7 11 -16 0 -8 -5 -12 -11 -8
-8 5 -8 1 0 -14 15 -28 14 -36 -3 -20 -7 8 -16 40 -20 72 -7 53 -9 57 -19 36
-13 -25 -37 -39 -37 -21 0 6 7 11 15 11 8 0 15 4 15 8 0 13 -62 29 -105 27
-36 -2 -40 -5 -48 -35 -5 -18 -6 -42 -4 -52 3 -11 0 -18 -9 -18 -11 0 -14 16
-14 66 0 44 -3 63 -11 58 -6 -3 -8 -15 -6 -26 3 -12 0 -22 -10 -25 -11 -4 -13
-14 -8 -39 l6 -34 -106 0 c-79 0 -105 -3 -104 -12 4 -34 -2 -48 -22 -48 -20 0
-69 43 -98 87 -8 12 -18 20 -22 18 -14 -10 -31 25 -25 52 5 21 4 24 -4 13 -8
-12 -10 -11 -10 7 0 37 19 36 41 -1 12 -20 23 -36 25 -36 1 0 -4 21 -12 48 -9
26 -18 55 -21 64 -3 10 3 22 15 29 27 17 17 48 -14 44 -34 -3 -31 5 18 47 24
21 37 38 31 38 -7 0 -13 -4 -13 -10 0 -5 -5 -10 -12 -10 -6 0 -3 9 7 20 10 11
28 20 40 20 23 0 75 41 75 60 0 6 31 10 80 10 64 0 80 3 80 15 0 11 -12 15
-48 15 -38 0 -49 3 -49 16 0 9 15 23 34 30 18 8 33 20 33 27 1 6 14 -3 29 -21
18 -21 27 -41 24 -53 -7 -27 33 -26 48 2 l11 21 24 -23 25 -24 -15 30 c-9 17
-16 44 -16 60 -1 17 -7 41 -14 54 -8 14 -11 32 -8 40 3 9 1 12 -6 7 -8 -5 -12
4 -12 28 0 20 5 36 10 36 16 0 24 -31 11 -40 -10 -5 -9 -9 2 -13 10 -3 13 -14
10 -31 -3 -15 -1 -26 6 -26 6 0 11 12 12 28 3 83 2 121 -5 155 -6 26 -5 37 3
37 7 0 9 -4 6 -10 -3 -5 1 -10 9 -10 13 0 14 16 10 108 -6 108 10 262 27 262
5 0 9 -5 9 -11 0 -8 5 -8 15 1 8 7 15 9 15 4 0 -5 4 -4 8 2 11 17 49 26 57 14
3 -5 0 -10 -7 -11 -7 0 -4 -4 7 -9 18 -8 18 -9 2 -9 -16 -1 -17 -3 -3 -16 15
-15 67 -21 80 -8 3 4 60 7 125 7 66 1 122 4 126 8 4 3 2 15 -4 27 -7 11 -7 22
-2 25 5 4 11 2 13 -4 2 -5 9 -6 17 -1 10 6 -4 13 -45 22 -32 7 -77 21 -99 30
-21 10 -43 15 -47 13 -4 -3 -5 2 -1 11 3 9 9 13 12 8 3 -4 13 -9 21 -10 8 -1
26 -5 40 -9 22 -7 23 -6 12 8 -9 12 -10 18 -2 23 7 4 10 15 7 25 -3 13 0 16
15 12 11 -3 24 3 32 13 8 11 20 16 29 12 9 -3 17 -1 19 4 2 5 12 10 23 10 36
0 100 -8 125 -15 24 -7 24 -6 6 8 -11 9 -23 16 -27 16 -8 0 -21 31 -15 37 2 3
18 -2 34 -11 29 -15 30 -15 25 4 -7 27 11 25 34 -2 27 -34 101 -71 121 -62 9
4 21 6 26 5 4 -1 13 3 20 8 19 16 121 18 139 2 25 -20 20 -8 -8 23 -14 15 -29
25 -33 22 -4 -2 -8 3 -8 13 0 10 6 18 13 18 7 0 10 -4 7 -9 -4 -5 0 -8 7 -7 8
1 31 -5 51 -14 21 -10 69 -27 108 -39 47 -15 66 -25 57 -31 -8 -6 -5 -7 8 -2
43 14 209 17 315 5 61 -7 108 -15 105 -18 -3 -3 -38 -9 -78 -12 -39 -4 45 -5
188 -3 143 2 301 8 350 15 50 6 115 14 145 18 43 6 47 7 19 9 -20 0 -80 -6
-135 -14 -112 -17 -381 -20 -434 -5 -18 5 -100 17 -181 25 -113 12 -163 13
-214 5 -44 -7 -72 -7 -84 0 -11 5 -52 22 -92 36 -40 15 -109 49 -152 76 -120
75 -156 88 -246 88 -78 0 -137 13 -156 34 -6 6 -17 12 -25 14 -8 1 -36 11 -62
22 -28 12 -91 24 -160 30 -62 5 -126 14 -143 19 l-30 9 35 2 c29 1 32 3 15 10
-11 5 -165 9 -342 9 l-323 1 0 -748z m550 724 c-30 -6 -62 -9 -70 -7 -18 7 39
18 90 19 28 0 24 -2 -20 -12z m-333 -12 c-3 -3 -12 -4 -19 -1 -8 3 -5 6 6 6
11 1 17 -2 13 -5z m368 -44 c-3 -5 -11 -10 -16 -10 -6 0 -7 5 -4 10 3 6 11 10
16 10 6 0 7 -4 4 -10z m-508 -6 c-3 -3 -12 -4 -19 -1 -8 3 -5 6 6 6 11 1 17
-2 13 -5z m306 -1 c-7 -2 -21 -2 -30 0 -10 3 -4 5 12 5 17 0 24 -2 18 -5z
m128 -34 c4 -7 15 -9 25 -5 13 5 16 4 9 -3 -13 -13 -115 -31 -115 -20 0 5 -7
9 -15 9 -8 0 -15 5 -15 10 0 6 7 10 15 10 8 0 15 4 15 8 0 13 72 4 81 -9z
m889 -121 c0 -6 -6 -5 -15 2 -8 7 -15 14 -15 16 0 2 7 1 15 -2 8 -4 15 -11 15
-16z m-966 -14 c8 -21 8 -21 -9 -28 -11 -4 -15 1 -15 19 0 28 15 33 24 9z
m619 -28 c3 -8 3 -17 0 -20 -7 -7 -33 13 -33 25 0 15 27 10 33 -5z m-565 -27
c-3 -8 -7 -3 -11 10 -4 17 -3 21 5 13 5 -5 8 -16 6 -23z m-65 -26 c-3 -18 -9
-33 -14 -33 -13 0 -11 44 3 58 15 15 17 13 11 -25z m104 22 c0 -8 -4 -12 -9
-9 -4 3 -8 9 -8 15 0 5 4 9 8 9 5 0 9 -7 9 -15z m-47 -19 c0 -3 -4 -8 -10 -11
-5 -3 -10 -1 -10 4 0 6 5 11 10 11 6 0 10 -2 10 -4z m260 -20 c0 -3 -4 -8 -10
-11 -5 -3 -10 -1 -10 4 0 6 5 11 10 11 6 0 10 -2 10 -4z m-230 -76 c0 -5 -5
-10 -11 -10 -5 0 -7 5 -4 10 3 6 8 10 11 10 2 0 4 -4 4 -10z m240 6 c0 -2 -7
-7 -16 -10 -8 -3 -12 -2 -9 4 6 10 25 14 25 6z m30 0 c0 -3 -4 -8 -10 -11 -5
-3 -10 -1 -10 4 0 6 5 11 10 11 6 0 10 -2 10 -4z m-185 -76 c-3 -5 -12 -10
-18 -10 -7 0 -6 4 3 10 19 12 23 12 15 0z m-110 -80 c3 -5 1 -10 -4 -10 -6 0
-11 5 -11 10 0 6 2 10 4 10 3 0 8 -4 11 -10z m-21 -26 c21 -8 20 -35 -1 -82
-9 -20 -17 -45 -17 -54 -1 -10 -4 -18 -8 -18 -5 0 -25 0 -45 0 -36 1 -37 1
-18 16 11 8 26 19 34 23 12 7 12 13 0 40 -8 17 -16 31 -19 31 -3 0 -6 9 -6 21
0 19 1 19 13 3 7 -10 13 -24 13 -31 0 -21 37 -15 43 7 3 11 1 20 -4 20 -5 0
-9 7 -9 15 0 17 2 18 24 9z m-214 -131 c0 -32 -5 -28 -14 10 -4 19 -3 26 4 22
5 -3 10 -18 10 -32z m183 -127 c-4 -50 -32 -196 -38 -196 -2 0 -5 15 -7 34 -2
19 0 32 4 30 4 -3 8 2 8 11 0 9 -4 14 -9 11 -9 -6 -23 24 -39 84 -6 19 -13 44
-18 55 -7 17 -6 18 8 7 14 -11 17 -10 23 9 6 17 9 19 16 8 7 -11 9 -10 9 4 0
10 5 15 10 12 6 -3 10 -1 10 6 0 7 6 5 13 -5 9 -12 12 -37 10 -70z m-216 29
c7 -20 -24 -55 -49 -55 -23 0 -23 4 4 40 24 34 36 37 45 15z m33 5 c0 -5 -5
-10 -11 -10 -5 0 -7 5 -4 10 3 6 8 10 11 10 2 0 4 -4 4 -10z m43 -60 c7 0 6
-4 -3 -9 -19 -13 -30 -5 -30 23 0 33 14 43 18 12 2 -14 9 -26 15 -26z m-43 5
c0 -9 -6 -12 -16 -8 -13 5 -13 7 -2 14 17 11 18 11 18 -6z m-21 -45 c34 0 37
-2 39 -31 2 -25 -1 -30 -14 -25 -8 3 -20 6 -25 6 -4 0 -6 7 -3 15 4 8 10 12
15 9 5 -3 9 0 9 7 0 7 -9 9 -22 6 -11 -3 -36 0 -54 8 -18 7 -36 10 -40 7 -4
-4 -4 -2 0 5 5 9 14 9 32 3 14 -6 42 -10 63 -10z m241 -49 c0 -6 -4 -13 -10
-16 -5 -3 -10 1 -10 9 0 9 5 16 10 16 6 0 10 -4 10 -9z m-370 -63 l8 -33 1 35
2 35 26 -49 c20 -40 23 -54 14 -68 -6 -10 -11 -27 -11 -38 0 -27 -14 -25 -28
3 -22 45 -44 128 -38 144 8 21 16 12 26 -29z m-5 -158 c-9 -16 -20 -30 -25
-30 -5 0 -5 13 1 30 6 17 17 30 25 30 12 0 12 -5 -1 -30z m109 -29 c-2 -3 -12
3 -22 13 -16 17 -16 18 5 5 12 -7 20 -15 17 -18z m33 14 c0 -8 -4 -15 -9 -15
-10 0 -11 14 -1 23 9 10 10 9 10 -8z m-97 -22 c-1 -13 -40 -56 -46 -51 -2 3 6
17 18 32 25 28 28 30 28 19z m38 -24 c-2 -6 -6 -9 -10 -7 -3 2 -15 -6 -27 -16
-12 -11 -21 -14 -21 -8 0 14 35 34 44 25 3 -3 6 -1 6 5 0 7 3 12 6 12 3 0 4
-5 2 -11z m-161 -91 c-3 -7 -5 -2 -5 12 0 14 2 19 5 13 2 -7 2 -19 0 -25z
m953 -302 c0 -16 -18 -31 -27 -22 -8 8 5 36 17 36 5 0 10 -6 10 -14z m-190
-41 c0 -9 -6 -12 -15 -9 -8 4 -15 10 -15 15 0 5 7 9 15 9 8 0 15 -7 15 -15z
m-142 -65 c17 0 25 -40 11 -56 -10 -12 -14 -12 -20 -2 -6 9 -9 7 -9 -8 0 -12
-6 -27 -13 -33 -18 -15 -37 22 -35 68 1 22 -5 37 -15 43 -21 11 -22 28 -2 28
9 0 12 6 8 18 -3 9 10 0 29 -20 20 -21 40 -38 46 -38z m1172 60 c0 -5 -4 -10
-10 -10 -5 0 -10 5 -10 10 0 6 5 10 10 10 6 0 10 -4 10 -10z m-853 -32 c-3 -7
-5 -2 -5 12 0 14 2 19 5 13 2 -7 2 -19 0 -25z m283 11 c0 -5 -4 -9 -10 -9 -5
0 -10 7 -10 16 0 8 5 12 10 9 6 -3 10 -10 10 -16z m227 -31 c-2 -13 -4 -5 -4
17 -1 22 1 32 4 23 2 -10 2 -28 0 -40z m580 46 c-3 -3 -12 -4 -19 -1 -8 3 -5
6 6 6 11 1 17 -2 13 -5z m-1337 -14 c0 -5 -4 -10 -10 -10 -5 0 -10 5 -10 10 0
6 5 10 10 10 6 0 10 -4 10 -10z m67 -42 c-3 -7 -5 -2 -5 12 0 14 2 19 5 13 2
-7 2 -19 0 -25z m-87 -3 c0 -18 -4 -23 -15 -19 -16 6 -20 26 -8 37 13 14 23 6
23 -18z m170 -11 c0 -2 -9 0 -20 6 -11 6 -20 13 -20 16 0 2 9 0 20 -6 11 -6
20 -13 20 -16z m109 -31 c1 -17 -4 -21 -22 -19 -28 3 -47 14 -47 27 0 6 7 6
19 -1 17 -9 20 -6 27 23 6 28 8 29 15 12 4 -11 8 -30 8 -42z m71 -15 c0 -15 5
-28 11 -28 6 0 9 -7 5 -15 -3 -8 1 -20 8 -27 11 -10 11 -15 -1 -27 -9 -9 -13
-26 -9 -50 4 -33 3 -34 -10 -17 -8 11 -14 16 -14 11 0 -11 -25 13 -26 26 -1 5
-2 26 -4 47 -1 20 -4 31 -7 25 -2 -7 -9 -13 -14 -13 -6 0 -7 5 -4 10 4 6 1 18
-7 27 -11 14 -10 15 11 8 22 -7 23 -5 19 26 -6 41 11 66 30 41 6 -8 12 -28 12
-44z m1152 30 c8 -13 25 -41 38 -62 l23 -39 -26 5 c-15 3 -27 1 -27 -5 0 -5
-6 -5 -14 2 -7 6 -21 9 -30 5 -9 -3 -16 -2 -16 4 0 5 9 12 20 15 13 3 20 14
20 30 0 20 -4 24 -20 20 -16 -4 -20 0 -20 21 0 33 32 36 52 4z m-1432 -2 c17
1 30 -2 30 -7 0 -5 -8 -9 -17 -9 -9 0 -24 -6 -32 -14 -14 -13 -16 -11 -18 17
0 18 1 27 3 21 2 -5 18 -9 34 -8z m741 -36 c31 -5 34 -8 37 -42 2 -22 -1 -38
-7 -38 -6 0 -11 -16 -11 -35 0 -27 -3 -33 -16 -28 -9 3 -12 9 -7 12 13 10 9
51 -7 61 -11 7 -17 4 -22 -13 -6 -22 -6 -22 -7 -1 -1 12 -8 24 -16 28 -18 7
-20 61 -2 80 10 12 13 11 18 -3 3 -9 21 -18 40 -21z m-811 3 c0 -5 -7 -16 -15
-26 -7 -11 -11 -26 -8 -35 4 -14 3 -15 -5 -3 -7 10 -7 21 -1 33 5 10 7 18 4
18 -4 0 -3 5 0 10 7 12 25 13 25 3z m1237 -50 c13 -10 38 -99 50 -182 5 -33 5
-33 -13 -15 -11 11 -20 35 -21 57 0 21 -8 48 -15 60 -8 12 -18 35 -22 50 -5
21 -10 26 -19 19 -9 -8 -12 -4 -12 14 0 13 6 24 13 24 6 0 13 6 13 13 1 6 3 3
6 -8 3 -11 11 -25 20 -32z m-1117 27 c0 -5 -4 -10 -10 -10 -5 0 -10 5 -10 10
0 6 5 10 10 10 6 0 10 -4 10 -10z m1190 -22 c0 -21 -3 -29 -10 -22 -5 5 -7 19
-4 32 9 31 14 27 14 -10z m-159 6 c-12 -9 -31 -30 -42 -48 -14 -22 -19 -26
-19 -13 0 21 52 77 71 77 8 0 3 -7 -10 -16z m-444 -16 c-3 -8 -6 -5 -6 6 -1
11 2 17 5 13 3 -3 4 -12 1 -19z m-227 3 c-14 -4 -38 -11 -55 -14 l-30 -6 30
14 c17 8 41 14 55 14 l25 -1 -25 -7z m-1090 -26 c38 -20 39 -43 3 -40 -56 4
-59 5 -33 20 l25 14 -33 1 c-20 0 -31 4 -27 10 9 14 31 12 65 -5z m60 -11 c0
-2 -9 0 -20 6 -11 6 -20 13 -20 16 0 2 9 0 20 -6 11 -6 20 -13 20 -16z m549
-27 c0 -21 -1 -21 -9 -2 -12 28 -12 37 0 30 6 -3 10 -16 9 -28z m160 -3 c-9
-11 -8 -18 5 -33 11 -12 13 -21 7 -25 -19 -12 -42 59 -25 77 13 13 25 -5 13
-19z m-782 -20 c-3 -3 -12 -4 -19 -1 -8 3 -5 6 6 6 11 1 17 -2 13 -5z m1723
-20 c0 -14 5 -34 10 -45 6 -10 8 -19 6 -19 -9 0 -36 57 -36 75 0 8 5 15 10 15
6 0 10 -12 10 -26z m144 -29 c5 -22 4 -26 -4 -15 -5 8 -10 24 -10 34 0 26 6
18 14 -19z m-1021 -10 c19 -40 22 -71 7 -80 -6 -4 -7 6 -4 25 5 24 4 29 -8 25
-10 -4 -17 2 -22 17 -15 58 2 66 27 13z m27 10 c0 -8 -4 -15 -10 -15 -5 0 -7
7 -4 15 4 8 8 15 10 15 2 0 4 -7 4 -15z m-670 -42 c0 -21 3 -24 9 -14 8 12 12
9 22 -13 11 -22 10 -29 0 -36 -9 -5 -12 -17 -7 -36 6 -27 5 -28 -9 -10 -17 22
-20 56 -5 56 6 0 10 5 10 11 0 6 -6 9 -14 6 -9 -4 -16 3 -20 16 -8 32 -7 47 4
47 6 0 10 -12 10 -27z m1050 17 c0 -5 -2 -10 -4 -10 -3 0 -8 5 -11 10 -3 6 -1
10 4 10 6 0 11 -4 11 -10z m-40 -30 c0 -17 -15 -11 -28 11 -12 19 -11 19 8 9
11 -6 20 -15 20 -20z m-167 -10 c3 -11 1 -20 -4 -20 -5 0 -9 2 -9 4 0 2 -3 11
-6 20 -3 9 -2 16 4 16 5 0 12 -9 15 -20z m-233 0 c0 -5 -4 -10 -10 -10 -5 0
-10 5 -10 10 0 6 5 10 10 10 6 0 10 -4 10 -10z m1668 -157 c7 -22 12 -53 12
-68 0 -20 4 -26 15 -21 9 3 15 0 15 -9 0 -9 -6 -12 -15 -9 -10 4 -15 0 -15
-12 0 -9 -3 -14 -7 -11 -3 4 -7 34 -9 67 -1 38 -9 71 -21 89 -27 42 -81 101
-93 101 -5 0 -10 2 -10 4 0 2 -3 13 -6 23 -4 10 22 -11 57 -47 43 -44 69 -80
77 -107z m1231 -9 c1 -51 5 -75 16 -84 8 -7 15 -18 15 -24 0 -6 5 -18 10 -26
20 -30 28 11 23 107 -5 77 -3 99 11 126 l18 32 194 -3 c154 -2 194 -6 194 -16
0 -8 7 -19 15 -26 12 -10 15 -31 13 -88 -3 -72 -4 -77 -28 -83 -24 -7 -24 -10
1 -13 7 0 15 -11 20 -24 8 -20 6 -21 -11 -12 -11 6 -26 23 -35 39 -19 37 -41
45 -64 22 -10 -10 -25 -21 -32 -24 -11 -4 -11 -6 1 -6 9 -1 22 -17 29 -36 7
-19 18 -35 25 -35 11 0 9 -13 -7 -55 -23 -63 -37 -71 -37 -21 0 52 -15 82 -50
97 -27 12 -31 18 -26 41 4 20 0 30 -13 38 -25 13 -45 -11 -38 -45 3 -21 -1
-29 -24 -41 -28 -14 -40 -38 -43 -89 -1 -19 -7 -25 -23 -25 -23 0 -26 6 -36
73 -5 32 22 54 41 35 9 -9 12 -7 12 10 0 13 -6 22 -15 22 -9 0 -12 6 -9 15 4
8 2 15 -4 15 -6 0 -18 3 -27 7 -16 6 -16 4 -1 -19 15 -22 15 -27 1 -38 -8 -7
-15 -25 -15 -39 0 -21 -8 -31 -35 -44 -19 -9 -35 -21 -35 -27 0 -6 13 -4 31 6
35 17 34 17 -15 -55 -16 -25 -31 -40 -34 -33 -7 23 -22 12 -16 -13 3 -13 1
-38 -4 -55 -6 -16 -7 -30 -3 -30 5 0 6 -15 2 -33 -14 -61 -6 -68 98 -73 52 -2
101 1 112 6 15 8 17 7 13 -5 -7 -17 4 -19 25 -6 9 6 22 6 34 0 12 -7 23 -7 32
1 7 6 16 7 18 3 3 -5 59 -10 124 -11 65 -1 150 -5 188 -9 39 -3 76 -6 83 -6 6
0 12 -4 12 -9 0 -4 4 -8 10 -8 5 0 7 8 4 18 -5 16 -5 16 6 -1 6 -9 8 -22 5
-28 -4 -5 -2 -15 3 -22 5 -7 12 -25 16 -41 l7 -29 -83 6 c-92 6 -93 1 -3 -12
l60 -9 -87 1 c-49 0 -88 4 -88 9 0 4 -10 8 -22 9 -22 0 -22 1 -3 9 14 6 4 9
-37 9 -40 1 -58 -3 -59 -11 0 -10 -2 -10 -5 -1 -3 7 -12 9 -20 6 -8 -3 -14 0
-14 6 0 15 -37 14 -42 0 -3 -8 -8 -7 -19 2 -24 23 -42 23 -29 0 17 -34 11 -37
-10 -6 l-21 30 4 -56 c2 -37 -1 -55 -8 -53 -6 3 -19 -3 -30 -11 -19 -16 -19
-16 2 -6 14 7 24 8 28 1 3 -5 -1 -10 -9 -10 -9 0 -16 -4 -16 -10 0 -5 -7 -10
-15 -10 -20 0 -20 -58 0 -84 8 -11 15 -32 15 -47 0 -15 5 -31 10 -34 6 -3 10
-36 10 -73 0 -49 -3 -63 -11 -55 -6 6 -11 31 -11 55 1 28 -9 63 -28 103 -16
33 -25 61 -20 63 12 4 1 91 -16 124 -16 31 -17 38 -6 38 5 0 15 -11 22 -25 10
-19 19 -24 34 -19 12 4 23 8 25 10 10 9 2 104 -12 130 -9 16 -16 23 -17 17 0
-19 -17 -15 -22 5 -6 20 -46 27 -65 10 -9 -7 -10 -16 -3 -28 7 -13 7 -21 0
-25 -5 -3 -10 2 -10 12 -1 17 -1 17 -10 1 -8 -13 -19 -15 -48 -11 -34 6 -36 5
-23 -11 8 -10 22 -14 35 -11 12 3 15 2 8 -1 -10 -5 -10 -9 -1 -21 10 -11 3
-10 -24 4 -20 10 -37 25 -38 33 -1 11 -3 10 -6 -2 -5 -20 -9 -21 -38 -8 -11 5
-15 9 -9 9 7 1 15 8 18 17 3 8 2 13 -3 10 -14 -9 -23 25 -10 40 9 11 6 14 -15
14 -28 0 -33 9 -14 28 6 6 9 14 6 18 -4 3 -12 -5 -20 -18 -7 -12 -21 -24 -30
-24 -25 -2 -22 8 6 35 29 27 51 81 34 81 -7 0 -7 5 1 14 8 10 9 16 1 21 -18
11 15 107 36 106 5 -1 9 4 8 9 -3 29 -6 33 -12 17 -6 -15 -9 -13 -18 11 -6 15
-7 37 -3 47 6 17 8 15 9 -10 0 -26 2 -28 11 -12 6 10 8 25 5 33 -3 9 -1 12 4
9 13 -8 13 56 1 87 -5 13 -21 35 -35 50 -29 30 -33 40 -12 32 17 -6 26 51 21
139 l-4 62 9 -50 c4 -27 9 -82 9 -121z m-2477 114 c-6 -6 -7 0 -4 19 5 21 7
23 10 9 2 -10 0 -22 -6 -28z m-964 12 c-14 -22 -24 -19 -15 5 4 8 11 15 17 15
6 0 6 -7 -2 -20z m1641 -37 c-1 -62 -6 -56 -11 15 -2 23 0 42 4 42 5 0 7 -26
7 -57z m924 3 c29 -29 62 -59 75 -65 25 -13 31 -44 6 -34 -10 4 -15 1 -14 -8
6 -39 1 -41 -56 -36 -31 3 -61 11 -65 19 -7 10 -9 10 -9 1 0 -7 -10 -13 -22
-14 -13 0 -17 -3 -10 -6 6 -2 12 -16 12 -29 0 -17 -4 -23 -12 -18 -6 4 -41 7
-77 6 -50 -1 -62 1 -48 9 9 5 22 7 27 4 6 -3 10 -4 10 -1 0 2 3 11 6 20 5 12
-1 15 -23 13 -24 -2 -28 2 -31 24 l-3 27 91 0 c51 0 95 3 98 7 7 7 -106 115
-120 115 -5 0 -8 5 -8 10 0 6 27 10 61 10 60 0 61 0 112 -54z m175 16 c12 -25
7 -46 -6 -26 -4 6 -31 19 -59 28 -29 10 -53 21 -53 24 0 4 24 6 53 4 45 -3 54
-7 65 -30z m629 24 c3 -3 5 -54 4 -101 l-1 -50 -46 -2 c-25 -1 -52 -7 -59 -13
-19 -16 -56 -90 -50 -100 9 -14 -6 -40 -24 -41 -10 0 -11 -2 -3 -6 18 -7 15
-21 -8 -28 -11 -3 -20 -12 -20 -20 0 -16 -47 -55 -66 -55 -8 0 -14 6 -14 13 0
14 -67 11 -86 -4 -11 -9 -24 -2 -24 11 0 4 28 10 63 14 34 4 70 8 80 10 20 3
39 25 31 37 -2 4 -6 25 -9 47 -3 23 -10 53 -15 67 -6 15 -10 41 -10 58 0 18
-4 39 -10 47 -17 27 -19 5 -6 -48 l14 -52 -36 1 c-31 2 -32 3 -9 6 15 2 27 6
27 8 0 18 -16 35 -34 35 -19 1 -19 2 -3 11 11 6 17 22 17 44 0 29 -4 36 -27
41 -17 5 -28 3 -31 -4 -5 -15 -42 -16 -42 -2 0 6 6 29 13 51 l12 41 185 -7
c102 -4 186 -8 187 -9z m-1500 -49 c14 -27 13 -28 -6 -17 -15 7 -21 20 -20 43
0 18 3 25 6 17 3 -8 12 -28 20 -43z m2403 18 c0 -11 7 -31 16 -44 20 -28 7
-40 -36 -35 -16 2 -48 -3 -71 -11 -83 -30 -102 -19 -111 67 l-5 46 103 -1 c97
-2 104 -3 104 -22z m100 5 c0 -11 -2 -20 -4 -20 -2 0 -6 9 -9 20 -3 11 -1 20
4 20 5 0 9 -9 9 -20z m-3891 -36 c-31 -33 -36 -23 -8 16 13 17 25 26 27 20 2
-6 -6 -22 -19 -36z m117 30 c19 -13 28 -14 37 -5 6 6 16 11 23 11 13 0 37 -53
39 -85 1 -11 11 -40 22 -65 37 -79 34 -132 -9 -189 -31 -40 -35 -42 -73 -35
-22 3 -45 11 -51 17 -22 22 -46 117 -45 178 0 34 -1 60 -3 58 -13 -15 -26 -50
-17 -45 6 4 11 4 11 -1 -1 -12 -26 -43 -35 -43 -4 0 -2 7 5 15 10 12 10 15 -3
15 -15 0 -43 -37 -39 -50 1 -3 -4 -5 -10 -5 -8 0 -14 -16 -16 -37 -2 -27 -7
-35 -18 -31 -8 3 -14 13 -14 23 0 33 -20 32 -27 -1 l-6 -32 -18 34 c-10 19
-18 29 -19 22 0 -7 -7 -10 -16 -6 -10 4 -17 -1 -20 -14 -7 -27 -49 -49 -66
-36 -15 12 -158 14 -158 3 0 -17 -34 -20 -58 -4 -20 13 -23 22 -19 47 10 58
25 87 47 87 17 0 20 -6 20 -49 0 -28 5 -53 10 -56 6 -3 10 1 10 10 0 9 5 13
10 10 6 -4 10 12 10 39 0 30 4 46 13 47 6 0 23 3 37 5 14 2 82 4 152 3 l127 0
42 46 c29 31 47 44 59 40 13 -4 19 2 24 22 4 15 9 36 12 45 3 11 -2 18 -18 21
l-23 4 23 2 c12 0 34 -6 48 -15z m324 -17 c0 -20 0 -20 -14 -2 -8 11 -12 23
-9 28 8 13 23 -3 23 -26z m3508 6 c22 -48 16 -62 -23 -60 -24 1 -35 7 -35 18
0 22 23 69 35 69 6 0 16 -12 23 -27z m144 -18 c-3 -21 -12 -39 -23 -45 -32
-17 -34 18 -4 64 22 33 32 27 27 -19z m213 35 l113 0 22 -35 c12 -19 19 -43
16 -52 -5 -17 -10 -196 -7 -255 1 -22 6 -28 24 -28 20 0 23 5 21 28 -2 15 -5
60 -7 100 -4 63 -2 72 13 72 15 0 16 -12 14 -106 l-2 -105 27 3 26 3 -3 85
c-2 47 -8 88 -14 91 -28 18 13 26 138 26 75 0 131 -3 124 -7 -7 -4 -47 -8 -89
-8 -42 -1 -89 -6 -106 -11 -27 -10 -25 -10 20 -7 45 4 47 3 25 -9 -20 -11 -14
-12 51 -8 41 2 86 5 102 7 22 2 27 -2 27 -18 0 -12 -9 -34 -19 -50 -13 -20
-18 -39 -14 -62 3 -19 1 -39 -4 -46 -12 -16 9 -73 22 -61 4 5 5 0 2 -10 -4
-10 -7 -34 -7 -54 l0 -35 -217 7 c-120 4 -220 9 -222 11 -2 2 12 4 32 4 39 0
44 12 20 55 -6 11 -13 41 -17 67 -4 25 -13 52 -21 58 -15 13 -71 16 -102 6
-19 -6 -34 18 -47 75 -3 15 -24 43 -45 62 -22 20 -36 39 -31 42 6 4 10 11 10
17 0 6 -8 4 -18 -5 -10 -10 -26 -17 -34 -17 -9 0 -21 -7 -28 -15 -7 -8 -16
-12 -21 -9 -18 11 -8 29 26 53 25 17 35 31 35 50 0 20 2 23 10 11 5 -8 10 -10
10 -5 -1 6 -7 19 -15 29 -8 11 -15 31 -15 44 0 22 3 24 31 18 17 -3 82 -6 144
-6z m-4438 -42 c-3 -8 -6 -5 -6 6 -1 11 2 17 5 13 3 -3 4 -12 1 -19z m2603 12
c0 -5 -4 -10 -10 -10 -5 0 -10 5 -10 10 0 6 5 10 10 10 6 0 10 -4 10 -10z
m530 -57 c0 -38 -5 -75 -10 -83 -7 -10 -10 11 -10 68 0 48 4 82 10 82 6 0 10
-29 10 -67z m1863 19 c-9 -76 -21 -129 -22 -104 -1 22 -4 23 -69 21 -38 -1
-74 1 -81 5 -17 11 -70 14 -73 5 -2 -4 -18 -9 -36 -11 l-34 -3 -3 50 c-5 82 2
86 177 84 l147 -1 -6 -46z m-3199 -36 c4 -27 3 -37 -6 -34 -6 2 -12 13 -13 24
-1 10 -5 35 -9 54 -7 33 -7 34 7 15 8 -11 18 -38 21 -59z m1854 -53 c-2 -71 1
-138 5 -150 5 -15 4 -23 -2 -23 -6 0 -11 8 -11 19 0 10 -7 24 -15 31 -8 7 -12
17 -9 22 3 5 5 59 5 119 -1 93 1 109 14 109 14 0 15 -17 13 -127z m58 -12 c14
-6 33 -11 43 -11 30 0 90 -29 99 -47 15 -29 21 -164 10 -220 l-11 -53 -76 1
c-42 1 -89 5 -106 9 -21 6 -5 8 54 7 77 -1 85 0 92 19 7 20 3 22 -69 28 -41 3
-76 7 -77 9 -8 10 -11 87 -3 87 5 0 7 -4 3 -9 -3 -5 0 -13 6 -17 9 -5 11 34 7
157 -3 90 -3 139 -1 108 3 -48 7 -58 29 -68z m451 109 c-1 -13 -8 -20 -23 -20
-17 0 -21 4 -17 20 3 11 14 20 24 20 12 0 17 -7 16 -20z m-4554 -22 c-8 -44
-32 -98 -33 -75 0 9 -4 17 -10 17 -5 0 -10 12 -10 26 0 14 4 23 9 19 6 -3 18
6 28 19 23 32 24 32 16 -6z m1871 17 c3 -8 1 -15 -4 -15 -6 0 -10 7 -10 15 0
8 2 15 4 15 2 0 6 -7 10 -15z m3176 -34 c0 -40 -3 -50 -20 -54 -18 -5 -20 0
-20 49 0 47 2 54 20 54 17 0 20 -7 20 -49z m965 -18 c-1 -26 -3 -58 -4 -70 -1
-17 -7 -23 -26 -23 -22 0 -25 4 -25 40 0 25 5 40 13 41 10 0 10 2 0 6 -7 2
-13 15 -13 28 0 17 7 25 23 27 32 6 34 3 32 -49z m-2979 -8 c-9 -21 -16 -54
-16 -74 0 -20 -5 -43 -11 -51 -8 -11 -9 -4 -5 27 5 35 2 47 -14 63 -23 23 -26
34 -6 27 17 -7 36 11 36 34 0 18 22 32 28 18 2 -4 -4 -24 -12 -44z m-2846 29
c0 -8 -4 -12 -10 -9 -5 3 -10 10 -10 16 0 5 5 9 10 9 6 0 10 -7 10 -16z m1890
-44 c4 0 6 10 4 23 -2 12 -1 15 2 7 4 -8 10 -22 15 -31 7 -13 4 -15 -17 -11
-15 3 -31 16 -40 36 l-15 31 21 -27 c12 -16 25 -28 30 -28z m-161 4 c13 -12
13 -17 0 -40 -16 -31 -16 -125 1 -151 8 -14 10 0 5 57 -4 41 -3 72 1 67 4 -4
9 -38 12 -75 2 -37 8 -75 13 -84 14 -27 11 -38 -12 -38 -18 0 -20 4 -15 25 5
18 2 25 -9 25 -8 0 -15 3 -16 8 0 4 -3 23 -6 42 -3 19 -5 57 -5 85 1 27 -4 53
-10 56 -6 4 -13 17 -15 29 -3 18 0 20 19 15 13 -4 29 -13 37 -21z m106 -2
c-10 -2 -25 3 -33 12 -15 14 -13 15 17 3 23 -8 28 -13 16 -15z m-338 -29 c-3
-10 -5 -2 -5 17 0 19 2 27 5 18 2 -10 2 -26 0 -35z m-293 21 c3 -9 6 -25 6
-35 0 -16 5 -19 19 -14 37 11 61 14 61 6 0 -5 -10 -11 -22 -15 -36 -9 -78 -7
-78 4 0 6 -24 10 -52 11 -42 1 -48 3 -28 9 24 8 24 8 3 9 -37 2 -26 17 20 28
60 15 64 15 71 -3z m1302 -105 c-7 -63 -12 -129 -9 -146 l5 -33 -65 0 c-35 0
-80 3 -98 7 l-34 7 35 6 34 5 -37 36 c-24 23 -37 44 -36 60 1 15 3 18 6 8 3
-14 11 -15 50 -8 25 5 56 6 69 3 30 -8 30 4 4 56 -11 22 -20 49 -20 61 0 18 4
21 33 16 38 -6 67 7 67 30 0 9 2 14 6 11 3 -3 -2 -57 -10 -119z m-1536 84 c0
-8 -4 -12 -9 -9 -5 4 -12 0 -14 -6 -3 -7 -6 -4 -6 8 -1 12 5 21 14 21 8 0 15
-7 15 -14z m1208 -6 c5 -24 -15 -21 -21 4 -3 13 -1 19 6 16 7 -2 13 -11 15
-20z m-2380 -11 c9 16 11 16 12 3 0 -9 7 -22 15 -29 17 -14 20 -56 5 -65 -6
-3 -10 -17 -10 -31 0 -13 -5 -24 -11 -24 -6 0 -9 7 -5 15 3 9 0 15 -9 15 -8 0
-15 5 -15 11 0 5 -4 8 -9 5 -5 -3 -8 23 -7 58 1 54 3 61 12 44 11 -20 12 -20
22 -2z m2197 14 c3 -5 1 -10 -4 -10 -6 0 -11 5 -11 10 0 6 2 10 4 10 3 0 8 -4
11 -10z m2433 -105 c-6 -18 -8 -40 -5 -49 9 -24 37 -20 37 5 0 19 2 20 16 8
16 -13 16 -34 -1 -134 -3 -16 -2 -25 2 -19 5 6 25 14 46 17 30 5 37 3 38 -11
0 -11 3 -12 6 -4 9 22 19 13 17 -15 -2 -44 -5 -50 -14 -25 -12 27 -40 29 -47
2 -7 -27 -43 -27 -43 1 0 15 -5 20 -22 17 -15 -2 -22 -9 -22 -21 2 -14 -7 -17
-62 -17 -62 0 -63 -1 -56 -22 5 -13 7 -29 6 -35 -1 -7 -2 -29 -3 -48 0 -19 -5
-35 -9 -35 -10 0 -32 45 -31 63 0 7 7 -1 15 -18 14 -29 14 -29 14 35 1 314 8
357 62 386 20 11 25 9 44 -17 19 -26 20 -35 12 -64z m-1545 78 c-7 -2 -21 -2
-30 0 -10 3 -4 5 12 5 17 0 24 -2 18 -5z m-2233 -18 c0 -8 0 -18 1 -22 0 -4
-4 -9 -10 -11 -6 -2 -11 8 -11 22 0 14 5 26 10 26 6 0 10 -7 10 -15z m1351
-15 c5 0 9 -10 10 -22 1 -22 1 -22 9 2 7 26 13 20 23 -25 3 -12 5 -7 6 13 1
20 5 31 11 27 6 -4 8 -16 4 -28 -4 -12 -6 -61 -5 -108 l2 -86 -30 0 c-26 0
-31 5 -36 31 -3 17 -1 45 4 61 9 28 9 27 10 -17 1 -26 6 -50 11 -53 13 -8 13
41 -1 85 -6 19 -12 44 -15 55 -2 11 -5 28 -7 37 -2 10 -6 21 -10 24 -4 4 -6
14 -6 23 1 13 2 13 6 -1 2 -10 9 -18 14 -18z m179 20 c0 -5 -2 -10 -4 -10 -3
0 -8 5 -11 10 -3 6 -1 10 4 10 6 0 11 -4 11 -10z m-1070 -54 c0 -17 -4 -46 -9
-64 l-10 -32 67 0 c64 0 68 1 79 28 6 15 14 44 17 64 10 57 50 74 86 36 21
-23 27 -48 10 -48 -5 0 -10 7 -10 15 0 8 -8 19 -19 24 -26 15 -56 -17 -66 -71
-4 -23 -7 -46 -6 -50 0 -5 -38 -8 -85 -8 l-86 0 7 33 c10 42 10 66 0 102 -8
27 -7 29 8 16 10 -7 17 -28 17 -45z m271 27 c-12 -20 -14 -14 -5 12 4 9 9 14
11 11 3 -2 0 -13 -6 -23z m939 20 c0 -5 -5 -15 -10 -23 -8 -12 -10 -11 -10 8
0 12 5 22 10 22 6 0 10 -3 10 -7z m-435 -50 c3 -9 11 -10 29 -3 20 7 24 6 20
-5 -3 -7 -19 -18 -35 -24 -18 -6 -29 -17 -29 -28 0 -15 2 -16 10 -3 5 8 12 11
16 7 4 -4 -5 -19 -20 -34 -20 -20 -27 -35 -24 -55 3 -15 1 -28 -4 -28 -4 0 -7
39 -7 88 1 57 4 77 8 57 7 -27 8 -25 16 25 5 30 10 46 12 35 2 -11 6 -26 8
-32z m3933 9 c3 -27 0 -32 -17 -32 -17 0 -21 6 -21 36 0 28 3 35 18 32 11 -2
18 -14 20 -36z m-3618 13 c0 -12 -19 -12 -23 0 -4 9 -1 12 9 8 7 -3 14 -7 14
-8z m-1250 -20 c0 -8 -4 -15 -10 -15 -5 0 -7 7 -4 15 4 8 8 15 10 15 2 0 4 -7
4 -15z m441 -12 c13 -16 12 -17 -3 -4 -10 7 -18 15 -18 17 0 8 8 3 21 -13z
m-756 -3 c3 -5 1 -10 -4 -10 -6 0 -11 5 -11 10 0 6 2 10 4 10 3 0 8 -4 11 -10z
m86 -18 c-5 -10 -18 -25 -27 -33 -11 -9 -9 -2 6 19 26 35 36 42 21 14z m959
-29 c-11 -17 -11 -17 -6 0 3 10 7 26 7 35 1 15 2 15 6 0 2 -10 -1 -25 -7 -35z
m1294 28 c-5 -5 -38 -11 -74 -14 l-65 -6 55 10 c30 6 62 14 70 19 18 9 28 3
14 -9z m-277 -13 c-3 -8 -6 -5 -6 6 -1 11 2 17 5 13 3 -3 4 -12 1 -19z m404
-20 c-10 -11 -11 -10 -6 5 5 12 2 17 -10 17 -9 0 -13 5 -9 11 4 7 11 6 22 -5
13 -13 14 -18 3 -28z m1459 -33 c0 -13 -4 -14 -20 -5 -12 7 -17 16 -13 27 5
12 2 15 -9 10 -12 -4 -14 -1 -11 13 5 18 7 17 29 -5 13 -13 24 -31 24 -40z
m-4682 24 c8 -12 16 -56 18 -98 2 -42 1 -70 -2 -63 -3 6 -12 12 -20 12 -8 0
-14 5 -14 10 0 6 4 10 9 10 21 0 20 35 -3 70 -15 24 -21 42 -16 50 5 8 6 18 4
22 -3 4 -1 8 3 8 5 0 14 -10 21 -21z m1471 5 c2 -2 1 -10 -3 -19 -7 -19 -21
-12 -37 17 -10 18 -8 19 13 13 12 -4 25 -9 27 -11z m1890 -33 c0 -11 -4 -9
-11 7 -6 12 -15 22 -20 22 -4 0 -8 5 -8 12 0 6 9 3 20 -7 11 -10 20 -25 19
-34z m-2025 31 c6 -10 -51 -8 -61 1 -3 4 8 7 25 7 17 0 33 -4 36 -8z m-1424
-13 c0 7 5 9 10 6 6 -3 10 -15 10 -27 0 -15 -4 -18 -17 -14 -9 4 -20 1 -25 -6
-5 -8 -8 -1 -8 21 0 29 2 32 15 21 11 -9 15 -9 15 -1z m1117 -5 c-3 -3 -12 -4
-19 -1 -8 3 -5 6 6 6 11 1 17 -2 13 -5z m2363 -15 c0 -6 -4 -7 -10 -4 -5 3
-10 11 -10 16 0 6 5 7 10 4 6 -3 10 -11 10 -16z m150 -12 c0 -7 -18 -30 -40
-51 -48 -48 -51 -39 -7 25 30 44 47 54 47 26z m2104 -14 c-4 -21 -11 -45 -16
-53 -8 -12 -8 -11 -4 3 3 10 6 34 6 53 0 19 5 34 10 34 7 0 8 -14 4 -37z
m-5116 4 c5 -23 -10 -21 -26 4 -12 18 -11 20 5 17 10 -2 19 -11 21 -21z m32
-3 c0 -11 6 -15 20 -11 11 3 20 1 20 -4 0 -5 -6 -10 -12 -11 -7 0 -18 -2 -23
-2 -6 -1 -32 -16 -59 -34 -27 -18 -50 -31 -52 -30 -1 2 10 12 27 23 16 11 29
26 29 33 0 6 7 12 15 12 8 0 15 9 15 20 0 11 5 20 10 20 6 0 10 -7 10 -16z
m1375 -82 c-10 -80 -17 -57 -8 29 4 41 9 63 11 50 2 -14 1 -49 -3 -79z m-1155
78 c0 -5 -4 -10 -10 -10 -5 0 -10 5 -10 10 0 6 5 10 10 10 6 0 10 -4 10 -10z
m1027 -12 c-3 -8 -6 -5 -6 6 -1 11 2 17 5 13 3 -3 4 -12 1 -19z m2833 13 c0
-5 -7 -14 -15 -21 -12 -10 -15 -10 -15 2 0 8 3 18 7 21 9 10 23 9 23 -2z
m-3922 -26 c-3 -3 -9 2 -12 12 -6 14 -5 15 5 6 7 -7 10 -15 7 -18z m3972 5 c0
-9 -53 -21 -60 -13 -3 2 3 11 13 18 19 13 47 10 47 -5z m-1121 -29 c1 21 21
38 37 32 16 -6 -3 -53 -22 -53 -7 0 -10 -9 -8 -22 l5 -23 -12 23 c-9 15 -21
22 -43 22 l-31 0 30 29 30 28 6 -26 c4 -14 7 -19 8 -10z m-1824 -26 c10 -76 1
-79 -11 -5 -6 33 -7 60 -3 60 4 0 11 -25 14 -55z m1995 33 c0 -13 -23 -5 -28
10 -2 7 2 10 12 6 9 -3 16 -11 16 -16z m-3421 -14 c19 -24 19 -54 1 -54 -5 0
-18 12 -29 28 -11 15 -21 21 -21 13 0 -11 -3 -11 -15 -1 -20 16 -19 27 3 33
33 9 41 7 61 -19z m306 16 c-3 -5 1 -10 10 -10 13 0 14 -4 5 -20 -7 -14 -7
-20 0 -20 6 0 8 -10 5 -23 -4 -13 1 -54 9 -91 19 -79 20 -116 5 -116 -6 0 -8
8 -4 19 3 10 -4 60 -15 112 -12 51 -19 98 -16 106 3 8 -7 19 -27 28 -18 8 -22
12 -10 9 12 -2 24 0 28 6 3 5 8 10 11 10 3 0 2 -4 -1 -10z m75 0 c0 -5 -10
-10 -22 -10 -19 0 -20 2 -8 10 19 13 30 13 30 0z m4185 -68 c-8 -8 -12 0 -19
38 l-7 35 16 -34 c8 -19 13 -36 10 -39z m-2817 51 c-10 -2 -26 -2 -35 0 -10 3
-2 5 17 5 19 0 27 -2 18 -5z m-68 -7 c0 -2 -11 -6 -25 -8 -14 -3 -25 -1 -25 3
0 5 11 9 25 9 14 0 25 -2 25 -4z m1057 -18 c-3 -8 -6 -5 -6 6 -1 11 2 17 5 13
3 -3 4 -12 1 -19z m-1160 -20 c-2 -12 -10 -24 -17 -26 -7 -3 -11 -1 -8 4 3 5
8 17 11 27 9 24 18 21 14 -5z m903 1 c0 -5 -4 -9 -10 -9 -5 0 -10 7 -10 16 0
8 5 12 10 9 6 -3 10 -10 10 -16z m-2788 -19 c12 -11 28 -20 35 -20 7 0 10 -6
7 -14 -6 -17 34 -43 83 -55 l38 -9 -38 -1 c-45 -1 -88 20 -134 66 -48 47 -39
78 9 33z m590 -2 c-7 -7 -12 -21 -13 -32 -1 -18 -2 -17 -8 4 -5 18 -3 27 8 32
24 10 26 9 13 -4z m753 -4 c175 -1 314 -6 337 -12 12 -3 18 -14 18 -31 0 -15
5 -32 12 -39 8 -8 9 -12 1 -12 -6 0 -13 5 -15 12 -3 7 -88 18 -254 31 -137 10
-250 20 -251 21 -1 1 0 12 4 25 3 12 9 19 12 14 3 -4 65 -8 136 -9z m1482 -21
c-3 -10 -5 -4 -5 12 0 17 2 24 5 18 2 -7 2 -21 0 -30z m-1674 10 c-7 -2 -19
-2 -25 0 -7 3 -2 5 12 5 14 0 19 -2 13 -5z m1634 -15 c-3 -8 -6 -5 -6 6 -1 11
2 17 5 13 3 -3 4 -12 1 -19z m-2942 2 c4 -6 -20 -9 -67 -8 l-73 1 65 7 c36 4
66 7 67 8 1 1 5 -2 8 -8z m2045 -10 c0 -5 -2 -10 -4 -10 -3 0 -8 5 -11 10 -3
6 -1 10 4 10 6 0 11 -4 11 -10z m41 -2 c1 -7 1 -19 0 -26 -1 -7 5 -15 13 -18
8 -3 17 -12 20 -20 4 -11 2 -11 -12 -3 -26 16 -54 58 -47 69 9 14 25 12 26 -2z
m434 -20 c33 -7 69 -20 80 -31 17 -16 18 -17 2 -11 -12 4 -17 2 -15 -7 3 -15
-7 -15 -164 -8 -69 2 -78 5 -78 22 0 10 9 26 21 36 23 18 54 18 154 -1z m1397
0 c-7 -7 -12 -8 -12 -2 0 14 12 26 19 19 2 -3 -1 -11 -7 -17z m-1153 -51 c1
-19 -3 -27 -11 -25 -14 5 -20 42 -11 73 l6 20 8 -20 c4 -11 8 -33 8 -48z
m1061 59 c0 -2 -8 -10 -17 -17 -16 -13 -17 -12 -4 4 13 16 21 21 21 13z m-848
-30 c24 -13 26 -12 21 2 -5 14 -3 15 8 5 9 -9 52 -13 137 -13 122 0 168 -10
157 -33 -3 -7 0 -5 6 4 11 15 14 14 31 -3 20 -20 22 -78 2 -78 -7 0 -20 -3
-30 -7 -11 -4 -15 -3 -11 4 4 7 -23 11 -81 12 -99 2 -129 5 -156 17 -15 6 -17
4 -11 -7 6 -11 5 -12 -6 -1 -21 20 -29 14 -22 -18 4 -23 2 -30 -11 -30 -9 0
-16 8 -16 20 0 11 -5 20 -11 20 -6 0 -8 -9 -4 -20 4 -11 2 -20 -4 -20 -6 0
-11 7 -11 15 0 8 -5 15 -12 15 -6 0 -4 7 5 18 22 24 22 29 -8 68 -14 18 -25
35 -25 38 0 10 24 6 52 -8z m-1732 -45 c0 -16 2 -44 5 -62 4 -25 3 -29 -3 -14
-17 36 -25 105 -13 105 6 0 11 -13 11 -29z m3206 2 c-10 -10 -19 5 -10 18 6
11 8 11 12 0 2 -7 1 -15 -2 -18z m-2408 -14 c-3 -8 -7 -3 -11 10 -4 17 -3 21
5 13 5 -5 8 -16 6 -23z m142 21 c-8 -5 -19 -10 -25 -10 -5 0 -3 5 5 10 8 5 20
10 25 10 6 0 3 -5 -5 -10z m2936 -1 c5 -8 8 -8 13 0 9 14 69 -67 75 -101 3
-12 5 -25 6 -28 1 -3 2 -14 1 -25 -1 -12 1 -16 6 -10 4 6 37 11 73 11 36 1 54
-2 41 -5 l-24 -6 27 -12 c27 -13 38 -40 11 -30 -8 4 -17 2 -20 -3 -5 -9 15
-15 38 -11 4 0 7 -5 7 -12 0 -10 -20 -11 -92 -5 -178 14 -199 25 -137 69 25
17 29 26 24 47 -4 16 -1 28 7 33 10 7 9 9 -4 9 -10 0 -17 3 -16 8 11 40 -53
82 -94 62 -22 -11 -22 -10 -4 4 23 19 52 21 62 5z m-163 -61 c-1 -35 0 -57 3
-50 8 17 31 15 38 -4 8 -21 7 -26 -4 -44 -7 -12 -13 -11 -34 10 -27 24 -32 57
-20 119 11 51 19 35 17 -31z m-2903 8 c0 -8 3 -23 6 -33 5 -16 4 -16 -10 1
-18 22 -21 46 -6 46 6 0 10 -6 10 -14z m2430 -82 c0 -31 -3 -34 -29 -34 -26 0
-30 -4 -33 -32 -2 -18 0 -60 3 -93 3 -33 4 -62 2 -64 -12 -15 -18 27 -18 135
-1 92 2 125 12 128 7 3 13 15 13 27 0 21 1 21 25 -5 17 -18 25 -39 25 -62z
m270 50 c137 -8 132 -7 147 -49 7 -21 21 -48 31 -58 19 -22 46 -23 -255 4
l-133 12 0 27 c0 14 6 38 12 52 12 25 16 26 68 22 30 -3 89 -8 130 -10z
m-1652 -40 c-3 -14 -5 -12 -10 9 -3 19 -2 25 4 19 6 -6 8 -18 6 -28z m252 32
c0 -3 -4 -8 -10 -11 -5 -3 -10 -1 -10 4 0 6 5 11 10 11 6 0 10 -2 10 -4z
m-3020 -22 c0 -8 -4 -12 -10 -9 -5 3 -10 10 -10 16 0 5 5 9 10 9 6 0 10 -7 10
-16z m3198 -14 c1 -16 -1 -30 -6 -30 -6 0 -8 41 -3 58 3 9 7 -3 9 -28z m-2708
5 c0 -8 -2 -15 -4 -15 -2 0 -12 -3 -21 -7 -15 -5 -16 -3 -6 15 13 25 31 29 31
7z m2057 -27 c-3 -7 -5 -2 -5 12 0 14 2 19 5 13 2 -7 2 -19 0 -25z m867 16
c15 -39 -4 -42 -24 -3 -8 15 -7 19 4 19 7 0 17 -7 20 -16z m-3360 -10 c20 -19
20 -24 1 -24 -8 0 -15 6 -15 14 0 8 -8 17 -17 19 -16 4 -16 5 -1 6 9 0 24 -6
32 -15z m3226 -16 c0 -12 -1 -19 -3 -17 -1 2 -9 12 -16 22 -12 14 -11 17 3 17
10 0 16 -8 16 -22z m1771 -15 c-4 -28 -6 -32 -9 -15 -3 22 3 52 11 52 1 0 1
-17 -2 -37z m135 -2 c4 -11 7 -12 16 -3 14 14 48 16 48 3 0 -5 -9 -7 -20 -4
-11 3 -20 0 -20 -6 0 -6 -9 -11 -21 -11 -33 0 -14 -15 23 -18 25 -2 29 0 18 8
-13 8 -12 10 3 10 12 0 17 -8 17 -25 0 -23 -4 -25 -45 -25 -41 0 -45 2 -45 24
0 36 13 93 18 76 2 -8 6 -21 8 -29z m-4689 7 c-3 -8 -6 -5 -6 6 -1 11 2 17 5
13 3 -3 4 -12 1 -19z m2173 12 c0 -5 -2 -10 -4 -10 -3 0 -8 5 -11 10 -3 6 -1
10 4 10 6 0 11 -4 11 -10z m1067 4 c-3 -3 -12 -4 -19 -1 -8 3 -5 6 6 6 11 1
17 -2 13 -5z m-1281 -36 c-3 -18 -12 -35 -18 -39 -9 -6 -8 -21 4 -61 9 -29 19
-69 23 -88 3 -19 24 -71 45 -115 55 -114 80 -175 72 -175 -4 0 -23 30 -41 68
-18 37 -40 78 -49 92 -10 14 -22 43 -29 65 -10 34 -11 24 -6 -75 6 -129 6
-117 4 -147 -1 -15 -6 -21 -15 -17 -7 3 -16 -2 -19 -10 -12 -31 -26 -17 -17
16 6 17 12 60 16 95 5 52 3 64 -10 69 -9 3 -16 10 -16 16 0 5 4 7 8 4 5 -3 6
8 4 25 -3 17 0 29 7 29 6 0 11 5 11 10 0 6 -18 10 -41 10 -24 0 -38 4 -34 10
3 6 -2 10 -12 10 -10 0 -14 4 -8 8 6 4 11 15 13 25 2 14 -1 17 -15 14 -10 -3
-38 -7 -62 -9 -42 -3 -45 -1 -53 27 -4 16 -15 36 -25 42 -9 7 -15 13 -12 14
49 9 59 8 57 -3 -2 -8 7 -13 21 -13 14 0 26 -6 29 -13 5 -17 29 -15 36 3 3 9
14 15 23 13 11 -2 17 2 15 10 -2 10 7 11 35 6 34 -6 36 -5 25 8 -10 13 -10 21
0 43 9 21 9 31 0 46 -11 17 -9 19 14 19 24 0 26 -2 20 -32z m1171 26 c-3 -3
-12 -4 -19 -1 -8 3 -5 6 6 6 11 1 17 -2 13 -5z m-437 -14 c0 -5 -5 -10 -11
-10 -5 0 -7 5 -4 10 3 6 8 10 11 10 2 0 4 -4 4 -10z m-3070 -36 c0 -3 -7 -1
-15 6 -8 7 -15 17 -15 22 0 5 7 3 15 -6 8 -8 15 -18 15 -22z m2569 -32 c-2
-103 -15 -123 -16 -25 0 51 3 90 8 87 5 -3 8 -31 8 -62z m316 58 c3 -5 1 -10
-4 -10 -6 0 -11 5 -11 10 0 6 2 10 4 10 3 0 8 -4 11 -10z m-2531 -15 c-4 -8
-8 -15 -10 -15 -2 0 -4 7 -4 15 0 8 4 15 10 15 5 0 7 -7 4 -15z m423 -17 c-3
-7 -5 -2 -5 12 0 14 2 19 5 13 2 -7 2 -19 0 -25z m3123 1 c0 -5 -4 -9 -10 -9
-5 0 -10 7 -10 16 0 8 5 12 10 9 6 -3 10 -10 10 -16z m-127 4 c-7 -2 -21 -2
-30 0 -10 3 -4 5 12 5 17 0 24 -2 18 -5z m257 -5 c0 -5 -9 -8 -19 -8 -11 0
-22 3 -24 8 -3 4 6 7 19 7 13 0 24 -3 24 -7z m57 -10 c-3 -8 -6 -5 -6 6 -1 11
2 17 5 13 3 -3 4 -12 1 -19z m-1569 -28 c2 -18 -2 -38 -9 -44 -9 -8 -10 -8 -5
1 4 7 3 29 -3 48 -7 27 -7 35 2 32 7 -2 13 -18 15 -37z m648 -63 c3 -71 11
-110 30 -157 14 -34 22 -65 19 -68 -8 -8 -25 18 -25 40 0 9 -6 23 -14 31 -8 8
-17 34 -20 58 -17 132 -18 157 -8 163 6 4 8 14 5 24 -3 9 -3 14 2 10 4 -4 9
-49 11 -101z m1039 93 c-11 -5 -40 -8 -65 -8 l-45 1 50 7 c72 10 83 10 60 0z
m110 -10 c18 -8 17 -9 -7 -9 -16 -1 -28 4 -28 9 0 12 8 12 35 0z m-3949 -54
c0 -39 -3 -53 -12 -49 -6 2 -15 -1 -19 -6 -3 -6 -11 -9 -16 -6 -5 4 -9 -2 -9
-12 -1 -17 -1 -17 -11 0 -13 23 9 57 23 35 10 -17 28 7 28 39 0 18 9 53 14 53
0 0 1 -24 2 -54z m4098 46 c3 -5 -8 -6 -25 -4 -16 2 -29 6 -29 8 0 8 49 4 54
-4z m-676 -9 c-10 -2 -26 -2 -35 0 -10 3 -2 5 17 5 19 0 27 -2 18 -5z m100 0
c-10 -2 -26 -2 -35 0 -10 3 -2 5 17 5 19 0 27 -2 18 -5z m-2270 -75 l17 -36
101 1 c57 1 97 6 90 10 -6 5 4 6 23 3 18 -3 39 -6 45 -6 7 0 10 -17 8 -49 l-4
-49 -56 -6 c-177 -19 -177 -19 -177 23 0 13 -6 26 -12 28 -9 3 -11 -4 -6 -28
4 -21 3 -30 -4 -26 -6 4 -14 28 -18 54 -4 26 -13 60 -21 75 -8 15 -13 40 -13
55 1 20 3 22 6 8 2 -11 12 -36 21 -57z m2407 62 c3 -5 1 -10 -4 -10 -6 0 -11
5 -11 10 0 6 2 10 4 10 3 0 8 -4 11 -10z m-995 -10 c0 -5 -5 -10 -11 -10 -5 0
-7 5 -4 10 3 6 8 10 11 10 2 0 4 -4 4 -10z m1745 -29 c-3 -5 5 -22 18 -38 20
-23 57 -89 57 -99 0 -2 -7 -1 -15 2 -8 4 -15 11 -15 16 0 6 -13 30 -30 55 -18
27 -30 57 -30 76 1 27 2 29 11 14 5 -9 8 -21 4 -26z m-669 -29 c-8 -7 -25 8
-37 31 -11 21 -10 21 15 -2 14 -14 24 -26 22 -29z m214 21 c0 -11 -268 -100
-280 -93 -5 3 50 26 123 52 138 48 157 53 157 41z m190 -3 c0 -5 -5 -10 -11
-10 -5 0 -7 5 -4 10 3 6 8 10 11 10 2 0 4 -4 4 -10z m-4363 -14 c-3 -7 0 -19
6 -25 8 -8 8 -11 0 -11 -13 0 -25 28 -17 41 8 14 17 11 11 -5z m328 -36 c1
-45 0 -47 -13 -22 -8 14 0 62 10 62 2 0 3 -18 3 -40z m1101 15 c7 -11 15 -35
19 -52 7 -33 7 -33 -34 -33 -34 0 -41 -3 -41 -20 0 -11 -4 -20 -8 -20 -8 0 -6
82 3 126 6 27 46 26 61 -1z m931 3 c-3 -8 -6 -5 -6 6 -1 11 2 17 5 13 3 -3 4
-12 1 -19z m-1027 -33 c0 -25 0 -48 0 -52 1 -12 -58 -15 -80 -3 -11 6 -20 18
-20 28 0 15 2 15 10 2 8 -13 10 -13 10 2 0 10 -9 22 -20 28 -32 17 -24 29 23
33 23 2 50 4 60 5 14 2 17 -6 17 -43z m1370 35 c0 -5 -2 -10 -4 -10 -3 0 -8 5
-11 10 -3 6 -1 10 4 10 6 0 11 -4 11 -10z m1287 3 c-10 -9 -228 -65 -254 -65
-13 0 -21 -4 -18 -9 3 -4 -4 -6 -15 -4 -11 2 -20 -1 -20 -6 0 -5 -6 -4 -14 3
-14 14 0 32 16 21 5 -2 14 0 21 6 7 5 42 15 77 21 36 6 92 17 125 24 72 16 91
18 82 9z m-669 -28 c0 -14 -3 -25 -7 -25 -4 0 -8 11 -9 25 -1 14 2 25 7 25 5
0 9 -11 9 -25z m-755 8 c-7 -2 -21 -2 -30 0 -10 3 -4 5 12 5 17 0 24 -2 18 -5z
m-2343 -29 c0 -14 -4 -23 -10 -19 -5 3 -10 15 -10 26 0 10 5 19 10 19 6 0 10
-12 10 -26z m1785 16 c3 -5 1 -10 -4 -10 -6 0 -11 5 -11 10 0 6 2 10 4 10 3 0
8 -4 11 -10z m-1768 -22 c-3 -8 -6 -5 -6 6 -1 11 2 17 5 13 3 -3 4 -12 1 -19z
m55 5 c26 -23 22 -33 -7 -20 -14 7 -25 18 -25 25 0 16 10 15 32 -5z m2105 -40
c-3 -10 -5 -4 -5 12 0 17 2 24 5 18 2 -7 2 -21 0 -30z m2723 7 c0 -6 -9 -5
-20 2 -17 11 -22 10 -29 0 -7 -11 -9 -10 -14 3 -4 9 -3 13 2 10 5 -3 12 -1 16
5 7 12 45 -5 45 -20z m-1246 11 c8 -12 -110 -55 -124 -46 -9 5 -10 1 -5 -14 4
-12 2 -21 -4 -21 -6 0 -11 6 -11 13 0 9 -2 9 -9 -1 -6 -10 -10 -10 -21 3 -10
12 -10 15 3 15 8 0 17 4 19 9 3 8 109 47 135 50 6 0 14 -3 17 -8z m-1543 -24
c-10 -9 -11 -8 -5 6 3 10 9 15 12 12 3 -3 0 -11 -7 -18z m989 13 c0 -5 -5 -10
-11 -10 -5 0 -7 5 -4 10 3 6 8 10 11 10 2 0 4 -4 4 -10z m1415 -6 c-9 -9 -18
-14 -21 -11 -9 9 6 27 22 27 13 0 13 -2 -1 -16z m-2917 -21 c-4 -22 -22 -20
-26 1 -2 10 3 16 13 16 10 0 15 -7 13 -17z m-1563 -3 c3 -5 1 -10 -4 -10 -6 0
-11 5 -11 10 0 6 2 10 4 10 3 0 8 -4 11 -10z m1655 -10 c0 -5 -4 -10 -10 -10
-5 0 -10 5 -10 10 0 6 5 10 10 10 6 0 10 -4 10 -10z m1397 -22 c-3 -7 -5 -2
-5 12 0 14 2 19 5 13 2 -7 2 -19 0 -25z m-910 -15 c-3 -10 -5 -4 -5 12 0 17 2
24 5 18 2 -7 2 -21 0 -30z m-992 16 c4 -6 4 -13 0 -17 -3 -3 -10 0 -15 8 -8
13 -10 12 -10 -2 0 -11 -8 -18 -20 -18 -27 0 -25 14 3 28 29 14 34 14 42 1z
m105 1 c0 -5 -4 -10 -9 -10 -6 0 -13 5 -16 10 -3 6 1 10 9 10 9 0 16 -4 16
-10z m410 -49 c0 -19 -4 -22 -22 -17 -13 3 -29 6 -36 6 -7 0 -10 5 -7 10 4 6
11 8 16 5 5 -4 9 -1 9 5 0 6 5 8 10 5 6 -3 10 4 10 17 0 18 2 20 10 8 5 -8 10
-26 10 -39z m-1625 19 c3 -5 1 -10 -4 -10 -6 0 -11 5 -11 10 0 6 2 10 4 10 3
0 8 -4 11 -10z m3018 -10 c-3 -11 -7 -20 -9 -20 -2 0 -4 9 -4 20 0 11 4 20 9
20 5 0 7 -9 4 -20z m-123 -18 c-4 -2 -4 -20 1 -40 11 -48 11 -69 0 -56 -10 11
-30 112 -23 118 2 3 10 -1 17 -7 7 -7 9 -13 5 -15z m973 21 c-7 -2 -21 -2 -30
0 -10 3 -4 5 12 5 17 0 24 -2 18 -5z m426 -51 c1 -13 -3 -20 -9 -17 -5 3 -10
23 -9 43 0 30 2 33 9 17 5 -11 9 -30 9 -43z m-3439 -35 c0 -6 -11 4 -25 23
-14 19 -25 36 -25 39 1 11 50 -50 50 -62z m-586 44 c8 -13 -4 -42 -15 -35 -5
3 -9 -1 -9 -9 0 -8 -9 -22 -21 -33 -21 -19 -21 -19 -44 10 -22 27 -24 63 -4
50 5 -3 9 0 9 7 0 7 10 9 30 6 17 -4 30 -2 30 3 0 13 17 13 24 1z m524 -26
c-9 -9 -30 14 -23 25 6 9 10 8 17 -4 6 -10 8 -19 6 -21z m2171 -33 c-1 -22 -3
-29 -6 -17 -3 11 -10 25 -15 32 -5 7 -7 17 -3 23 12 19 25 -1 24 -38z m-2139
-13 c0 -23 -4 -38 -10 -34 -5 3 -7 12 -4 19 3 7 -2 20 -10 29 -12 12 -13 17
-3 20 24 10 27 6 27 -34z m2325 21 c3 -5 1 -10 -4 -10 -6 0 -11 5 -11 10 0 6
2 10 4 10 3 0 8 -4 11 -10z m1533 -7 c-10 -2 -26 -2 -35 0 -10 3 -2 5 17 5 19
0 27 -2 18 -5z m-4721 -9 c-3 -3 -12 -4 -19 -1 -8 3 -5 6 6 6 11 1 17 -2 13
-5z m225 -51 c10 -15 25 -39 35 -53 16 -22 16 -23 1 -12 -20 16 -78 104 -78
118 1 10 15 -9 42 -53z m2883 37 c-3 -5 -17 -10 -31 -10 -13 0 -24 5 -24 10 0
6 14 10 31 10 17 0 28 -4 24 -10z m802 4 c-3 -3 -12 -4 -19 -1 -8 3 -5 6 6 6
11 1 17 -2 13 -5z m-2964 -56 c3 -10 2 -20 -3 -23 -11 -7 -16 2 -25 45 -6 32
-6 33 7 15 8 -11 17 -28 21 -37z m2847 42 c0 -5 -2 -10 -4 -10 -3 0 -8 5 -11
10 -3 6 -1 10 4 10 6 0 11 -4 11 -10z m250 -5 c0 -8 -9 -15 -20 -15 -11 0 -20
7 -20 15 0 8 9 15 20 15 11 0 20 -7 20 -15z m-3140 -48 c0 -24 -4 -37 -9 -31
-11 12 -22 70 -14 78 13 13 23 -7 23 -47z m-1203 11 c-3 -7 -5 -2 -5 12 0 14
2 19 5 13 2 -7 2 -19 0 -25z m3289 -10 c2 1 10 2 17 2 8 0 8 -3 -2 -9 -12 -8
-11 -16 5 -55 11 -27 24 -44 31 -41 7 2 15 0 18 -5 4 -6 3 -10 -2 -11 -4 0
-20 -3 -35 -5 -16 -3 -28 0 -28 6 0 20 2 25 11 23 5 -2 9 0 9 4 0 9 -49 94
-69 118 -10 13 -5 11 12 -5 16 -14 30 -24 33 -22z m774 32 c0 -5 -2 -10 -4
-10 -3 0 -8 5 -11 10 -3 6 -1 10 4 10 6 0 11 -4 11 -10z m-1653 -32 c-3 -7 -5
-2 -5 12 0 14 2 19 5 13 2 -7 2 -19 0 -25z m1503 22 c0 -5 -4 -10 -10 -10 -5
0 -10 5 -10 10 0 6 5 10 10 10 6 0 10 -4 10 -10z m-3640 -9 c0 -5 3 -18 7 -28
5 -16 4 -16 -14 2 -20 20 -21 35 -2 35 5 0 9 -4 9 -9z m3150 -31 c0 -5 -2 -10
-4 -10 -3 0 -8 5 -11 10 -3 6 -1 10 4 10 6 0 11 -4 11 -10z m760 -4 c0 -3 -4
-8 -10 -11 -5 -3 -10 -1 -10 4 0 6 5 11 10 11 6 0 10 -2 10 -4z m39 -30 c-3
-3 -11 5 -18 17 -13 21 -12 21 5 5 10 -10 16 -20 13 -22z m-3019 -11 c0 -8 -2
-15 -4 -15 -2 0 -6 7 -10 15 -3 8 -1 15 4 15 6 0 10 -7 10 -15z m55 -5 c3 -5
2 -10 -4 -10 -5 0 -13 5 -16 10 -3 6 -2 10 4 10 5 0 13 -4 16 -10z m982 -66
c1 -38 4 -79 6 -91 3 -15 0 -20 -11 -16 -11 5 -13 23 -10 89 2 46 1 86 -4 88
-5 2 -3 3 4 2 9 -2 14 -25 15 -72z m1958 56 c-3 -5 -14 -6 -26 -3 -15 4 -17 8
-8 13 15 10 41 1 34 -10z m-55 0 c0 -5 -7 -10 -16 -10 -8 0 -12 5 -9 10 3 6
10 10 16 10 5 0 9 -4 9 -10z m-3743 -42 c13 -13 23 -33 23 -50 0 -55 -31 -23
-38 40 -1 7 -12 17 -24 22 -20 8 -21 9 -4 9 11 1 30 -9 43 -21z m915 -13 c19
-43 9 -45 -20 -5 -25 34 -27 40 -9 40 7 0 20 -16 29 -35z m1578 25 c0 -5 -5
-10 -11 -10 -5 0 -7 5 -4 10 3 6 8 10 11 10 2 0 4 -4 4 -10z m1691 -40 c-8
-25 -7 -32 10 -44 22 -15 16 -23 -16 -22 -23 1 -23 4 -5 71 7 27 15 44 18 37
2 -7 -1 -26 -7 -42z m-1172 21 c7 -5 12 -13 10 -18 -2 -6 -13 -2 -23 8 -20 19
-12 26 13 10z m-46 -20 c-4 -17 -8 -18 -24 -8 -19 12 -19 12 3 19 13 3 24 6
25 7 0 1 -1 -8 -4 -18z m472 -2 c4 -12 2 -26 -5 -33 -10 -8 -11 -8 -6 1 18 32
-25 57 -54 31 -12 -11 -12 -10 -1 5 19 24 58 22 66 -4z m-585 7 c0 -2 -7 -6
-15 -10 -8 -3 -15 -1 -15 4 0 6 7 10 15 10 8 0 15 -2 15 -4z m135 -16 c3 -5 1
-10 -4 -10 -6 0 -11 5 -11 10 0 6 2 10 4 10 3 0 8 -4 11 -10z m360 0 c3 -6 -1
-7 -9 -4 -18 7 -21 14 -7 14 6 0 13 -4 16 -10z m-1458 -16 c-3 -3 -12 -4 -19
-1 -8 3 -5 6 6 6 11 1 17 -2 13 -5z m1418 -4 c3 -5 1 -10 -4 -10 -6 0 -11 5
-11 10 0 6 2 10 4 10 3 0 8 -4 11 -10z m360 0 c3 -5 1 -10 -4 -10 -6 0 -11 5
-11 10 0 6 2 10 4 10 3 0 8 -4 11 -10z m-3785 -28 c0 -10 5 -23 12 -30 9 -9 9
-12 1 -12 -15 0 -44 41 -37 52 9 14 24 9 24 -10z m230 8 c0 -5 -7 -10 -16 -10
-8 0 -12 5 -9 10 3 6 10 10 16 10 5 0 9 -4 9 -10z m3010 0 c0 -5 -2 -10 -4
-10 -3 0 -8 5 -11 10 -3 6 -1 10 4 10 6 0 11 -4 11 -10z m897 4 c-3 -3 -12 -4
-19 -1 -8 3 -5 6 6 6 11 1 17 -2 13 -5z m496 -1 c-7 -2 -19 -2 -25 0 -7 3 -2
5 12 5 14 0 19 -2 13 -5z m-2775 -162 l-2 -56 -3 49 c-3 29 -13 63 -25 80
l-22 31 27 -24 c24 -22 27 -31 25 -80z m94 27 c-2 -27 -7 -48 -11 -48 -7 0 -4
63 5 89 8 25 11 7 6 -41z m996 16 c-9 -9 -24 -14 -34 -12 -16 3 -14 7 11 20
35 19 46 15 23 -8z m-566 -1 c20 -18 24 -33 8 -33 -5 0 -10 6 -10 14 0 8 -12
19 -27 24 -21 8 -23 11 -9 11 11 1 28 -6 38 -16z m-142 -18 c7 -9 8 -15 2 -15
-5 0 -12 7 -16 15 -3 8 -4 15 -2 15 2 0 9 -7 16 -15z m-1230 -20 c0 -8 -4 -15
-10 -15 -5 0 -10 7 -10 15 0 8 5 15 10 15 6 0 10 -7 10 -15z m1310 -1 c0 -8
-5 -12 -10 -9 -6 4 -8 11 -5 16 9 14 15 11 15 -7z m910 6 c0 -5 -2 -10 -4 -10
-3 0 -8 5 -11 10 -3 6 -1 10 4 10 6 0 11 -4 11 -10z m-1043 -22 c-3 -8 -6 -5
-6 6 -1 11 2 17 5 13 3 -3 4 -12 1 -19z m168 12 c3 -5 -1 -10 -10 -10 -9 0
-13 5 -10 10 3 6 8 10 10 10 2 0 7 -4 10 -10z m-715 -4 c0 -3 -4 -8 -10 -11
-5 -3 -10 -1 -10 4 0 6 5 11 10 11 6 0 10 -2 10 -4z m34 -2 c9 -3 16 -16 16
-28 -1 -21 -1 -21 -12 -1 -6 11 -16 23 -22 27 -13 9 -3 10 18 2z m-1568 -71
c-3 -4 -6 -1 -6 6 0 7 -4 9 -10 6 -6 -4 -7 1 -3 11 6 15 7 15 15 -1 6 -9 7
-19 4 -22z m914 -18 c7 -8 8 -15 2 -15 -5 0 -15 7 -22 15 -7 8 -8 15 -2 15 5
0 15 -7 22 -15z m819 -74 c-1 -49 2 -94 5 -100 4 -6 3 -11 -2 -11 -17 0 -22
29 -22 116 0 51 4 84 10 84 7 0 10 -34 9 -89z m-1719 43 c0 -8 -5 -12 -10 -9
-6 4 -8 11 -5 16 9 14 15 11 15 -7z m-20 -24 c0 -5 -5 -10 -11 -10 -5 0 -7 5
-4 10 3 6 8 10 11 10 2 0 4 -4 4 -10z m5230 -20 c0 -3 -10 -6 -22 -7 -13 0
-17 1 -10 4 6 3 12 12 12 21 0 15 2 15 10 2 5 -8 10 -17 10 -20z m-5345 0 c3
-5 1 -10 -4 -10 -6 0 -11 5 -11 10 0 6 2 10 4 10 3 0 8 -4 11 -10z m1049 -75
c-4 -8 -8 -15 -10 -15 -2 0 -4 7 -4 15 0 8 4 15 10 15 5 0 7 -7 4 -15z m12
-81 c22 -53 11 -66 -14 -17 -25 48 -26 53 -11 53 5 0 17 -16 25 -36z m-1056
-29 c-7 -9 -15 -13 -18 -10 -3 2 1 11 8 20 7 9 15 13 18 10 3 -2 -1 -11 -8
-20z"/>
<path d="M4150 1970 c-12 -8 -11 -10 5 -9 11 1 31 5 45 9 24 8 24 8 -5 9 -16
0 -37 -4 -45 -9z"/>
<path d="M3868 1953 c6 -2 18 -2 25 0 6 3 1 5 -13 5 -14 0 -19 -2 -12 -5z"/>
<path d="M4085 1909 c-4 -6 -5 -12 -2 -15 2 -3 7 2 10 11 7 17 1 20 -8 4z"/>
<path d="M3901 1394 c0 -11 3 -14 6 -6 3 7 2 16 -1 19 -3 4 -6 -2 -5 -13z"/>
<path d="M4018 1118 c7 -7 12 -21 12 -32 0 -10 3 -17 6 -13 10 10 -5 57 -18
57 -9 0 -9 -3 0 -12z"/>
<path d="M2891 1994 c0 -11 3 -14 6 -6 3 7 2 16 -1 19 -3 4 -6 -2 -5 -13z"/>
<path d="M2758 1963 c6 -2 18 -2 25 0 6 3 1 5 -13 5 -14 0 -19 -2 -12 -5z"/>
<path d="M3518 1953 c12 -2 30 -2 40 0 9 3 -1 5 -23 4 -22 0 -30 -2 -17 -4z"/>
<path d="M751 1874 c0 -11 3 -14 6 -6 3 7 2 16 -1 19 -3 4 -6 -2 -5 -13z"/>
<path d="M957 1870 c-4 -8 -5 -24 -4 -35 1 -15 -3 -19 -20 -18 -27 3 -29 -3
-9 -23 10 -10 17 -11 22 -3 4 8 9 7 15 -2 8 -12 11 -12 18 1 5 8 7 18 4 24 -4
5 -9 23 -13 40 -5 21 -9 26 -13 16z"/>
<path d="M1020 1841 c0 -5 -3 -18 -7 -28 -6 -17 -5 -17 15 1 26 22 28 36 7 36
-8 0 -15 -4 -15 -9z"/>
<path d="M5586 1821 c-4 -6 -23 -11 -42 -11 -19 0 -34 -3 -34 -7 0 -5 23 -8
50 -8 52 0 55 1 41 24 -6 9 -11 10 -15 2z"/>
<path d="M5145 1810 c-3 -5 1 -10 9 -10 9 0 16 5 16 10 0 6 -4 10 -9 10 -6 0
-13 -4 -16 -10z"/>
<path d="M5210 1810 c0 -13 11 -13 30 0 12 8 11 10 -7 10 -13 0 -23 -4 -23
-10z"/>
<path d="M5408 1803 c6 -2 18 -2 25 0 6 3 1 5 -13 5 -14 0 -19 -2 -12 -5z"/>
<path d="M5468 1803 c7 -3 16 -2 19 1 4 3 -2 6 -13 5 -11 0 -14 -3 -6 -6z"/>
<path d="M4392 1902 c-9 -6 -5 -12 13 -20 35 -16 65 -15 65 2 0 16 -43 30 -48
16 -2 -6 -8 -10 -13 -10 -6 0 -7 5 -4 10 7 12 4 12 -13 2z"/>
<path d="M4504 1899 c-3 -6 -2 -15 3 -20 5 -5 9 -1 10 11 2 22 -2 25 -13 9z"/>
<path d="M4450 1716 c0 -9 5 -16 10 -16 6 0 10 4 10 9 0 6 -4 13 -10 16 -5 3
-10 -1 -10 -9z"/>
<path d="M4847 1913 c-4 -3 -7 -42 -7 -85 0 -71 2 -78 20 -78 18 0 20 7 20 85
0 64 -3 85 -13 85 -8 0 -17 -3 -20 -7z"/>
<path d="M4812 1845 c0 -16 2 -22 5 -12 2 9 2 23 0 30 -3 6 -5 -1 -5 -18z"/>
<path d="M4812 1770 c0 -14 2 -19 5 -12 2 6 2 18 0 25 -3 6 -5 1 -5 -13z"/>
<path d="M2760 1510 c0 -5 7 -10 15 -10 8 0 15 5 15 10 0 6 -7 10 -15 10 -8 0
-15 -4 -15 -10z"/>
<path d="M5195 1340 c-3 -5 -1 -10 4 -10 6 0 11 5 11 10 0 6 -2 10 -4 10 -3 0
-8 -4 -11 -10z"/>
<path d="M2916 1085 c4 -8 8 -15 10 -15 2 0 4 7 4 15 0 8 -4 15 -10 15 -5 0
-7 -7 -4 -15z"/>
<path d="M2991 854 c0 -11 3 -14 6 -6 3 7 2 16 -1 19 -3 4 -6 -2 -5 -13z"/>
<path d="M2408 1103 c12 -2 32 -2 45 0 12 2 2 4 -23 4 -25 0 -35 -2 -22 -4z"/>
<path d="M2338 1093 c7 -3 16 -2 19 1 4 3 -2 6 -13 5 -11 0 -14 -3 -6 -6z"/>
<path d="M3811 4220 c-53 -19 -96 -48 -86 -58 2 -3 12 1 22 9 11 9 14 10 9 2
-4 -7 -2 -13 3 -13 6 0 11 4 11 10 0 5 14 17 31 25 24 13 40 14 75 7 24 -5 58
-6 76 -3 31 7 32 8 12 19 -41 22 -97 23 -153 2z"/>
<path d="M3720 4119 c-7 -11 -9 -23 -6 -27 3 -3 6 0 6 6 0 6 7 18 16 26 8 9
11 16 5 16 -6 0 -15 -9 -21 -21z"/>
<path d="M4123 4060 c-13 -5 -23 -11 -23 -14 0 -7 40 6 46 15 6 10 6 10 -23
-1z"/>
<path d="M3625 4043 c-20 -5 -65 -33 -54 -33 3 0 19 5 36 10 16 6 65 14 109
19 l79 8 -75 1 c-41 0 -84 -3 -95 -5z"/>
<path d="M4035 4030 c-18 -8 -18 -9 5 -9 14 0 32 4 40 9 12 8 12 10 -5 9 -11
0 -29 -4 -40 -9z"/>
<path d="M3890 3983 c-8 -3 -26 -11 -40 -16 -14 -6 -36 -12 -49 -13 -26 -3
-54 -24 -32 -24 7 0 9 -5 5 -12 -4 -7 -3 -8 5 -4 6 4 8 12 5 18 -5 8 -1 9 10
5 10 -4 34 2 56 13 22 11 51 20 65 20 15 0 24 4 20 10 -7 11 -21 12 -45 3z"/>
<path d="M5155 3983 c63 -8 80 -14 65 -23 -11 -7 -9 -9 9 -7 l23 1 -22 18
c-14 12 -37 17 -64 17 -32 -2 -34 -3 -11 -6z"/>
<path d="M3066 3971 c-4 -5 3 -7 14 -4 23 6 26 13 6 13 -8 0 -17 -4 -20 -9z"/>
<path d="M3123 3973 c9 -2 23 -2 30 0 6 3 -1 5 -18 5 -16 0 -22 -2 -12 -5z"/>
<path d="M4770 3953 c-144 -33 -220 -45 -253 -41 -21 2 -37 0 -37 -4 0 -7 110
-14 135 -8 24 5 31 8 55 17 19 8 33 7 55 -4 26 -12 28 -12 12 1 -17 13 -13 15
45 28 35 7 59 16 53 19 -5 3 -35 -1 -65 -8z"/>
<path d="M4190 3953 c19 -2 46 -6 60 -10 24 -6 23 -7 -10 -14 -25 -5 -15 -6
37 -5 40 0 69 4 65 7 -13 11 -113 29 -150 27 l-37 -1 35 -4z"/>
<path d="M3725 3930 c-3 -5 -2 -10 4 -10 5 0 13 5 16 10 3 6 2 10 -4 10 -5 0
-13 -4 -16 -10z"/>
<path d="M4373 3923 c9 -2 23 -2 30 0 6 3 -1 5 -18 5 -16 0 -22 -2 -12 -5z"/>
<path d="M4428 3913 c6 -2 18 -2 25 0 6 3 1 5 -13 5 -14 0 -19 -2 -12 -5z"/>
<path d="M5015 3910 c-8 -13 5 -13 25 0 13 8 13 10 -2 10 -9 0 -20 -4 -23 -10z"/>
<path d="M3596 3903 c16 -3 20 -9 17 -24 -4 -13 0 -19 11 -19 9 0 16 8 16 19
0 20 -20 32 -48 30 -11 -1 -9 -3 4 -6z"/>
<path d="M4742 3891 c-29 -8 -29 -26 1 -26 12 0 27 -3 33 -7 7 -5 23 1 35 12
15 13 18 18 7 14 -9 -3 -25 -1 -35 4 -10 5 -28 6 -41 3z"/>
<path d="M4870 3890 c27 -5 31 -8 18 -14 -16 -7 -16 -10 -2 -23 10 -10 19 -12
27 -5 7 5 23 9 36 7 19 -1 28 -11 38 -40 7 -22 11 -45 8 -53 -2 -7 -1 -11 4
-8 5 3 11 -4 14 -15 3 -12 10 -18 17 -14 6 4 9 10 5 13 -3 3 5 12 17 19 23 13
22 13 -4 7 -17 -4 -28 -2 -28 4 0 6 -3 19 -7 29 -7 17 -6 17 12 -1 13 -13 20
-15 23 -6 6 17 -19 60 -35 60 -7 0 -13 4 -13 9 0 12 50 1 80 -18 24 -15 24
-15 10 3 -29 37 -90 56 -175 54 -59 0 -71 -2 -45 -8z"/>
<path d="M3670 3880 c-9 -6 -10 -10 -3 -10 6 0 15 5 18 10 8 12 4 12 -15 0z"/>
<path d="M1360 3841 c0 -5 7 -12 16 -15 14 -5 15 -4 4 9 -14 17 -20 19 -20 6z"/>
<path d="M1918 3843 c6 -2 18 -2 25 0 6 3 1 5 -13 5 -14 0 -19 -2 -12 -5z"/>
<path d="M3645 3840 c3 -5 8 -10 11 -10 2 0 4 5 4 10 0 6 -5 10 -11 10 -5 0
-7 -4 -4 -10z"/>
<path d="M3009 3825 c5 -11 17 -29 26 -40 l16 -20 -10 20 c-5 11 -17 29 -26
40 l-16 20 10 -20z"/>
<path d="M5695 3795 c-47 -29 -31 -34 18 -6 19 11 45 21 58 24 20 4 19 4 -6 5
-16 1 -48 -10 -70 -23z"/>
<path d="M5949 3803 c-13 -16 -12 -17 4 -4 9 7 17 15 17 17 0 8 -8 3 -21 -13z"/>
<path d="M4028 3804 c-5 -4 -95 -11 -199 -14 -36 -1 -33 -26 7 -58 32 -25 53
-28 193 -23 50 2 9 14 -52 16 -71 2 -150 21 -142 35 4 6 11 10 16 10 6 0 7 -4
4 -10 -3 -6 1 -7 9 -4 9 3 13 11 10 16 -4 7 20 8 70 5 68 -5 77 -4 86 14 10
18 9 25 -2 13z"/>
<path d="M4048 3789 c-8 -5 8 -9 41 -9 30 0 52 3 49 6 -10 9 -76 12 -90 3z"/>
<path d="M3750 3786 c0 -2 7 -7 16 -10 8 -3 12 -2 9 4 -6 10 -25 14 -25 6z"/>
<path d="M4222 3785 c16 -16 99 -51 104 -44 3 5 15 9 27 10 18 0 15 4 -12 16
-19 8 -45 13 -58 10 -13 -2 -26 0 -29 4 -3 5 -12 9 -21 9 -9 0 -14 -2 -11 -5z"/>
<path d="M5315 3780 c-3 -5 -2 -10 4 -10 5 0 13 5 16 10 3 6 2 10 -4 10 -5 0
-13 -4 -16 -10z"/>
<path d="M1537 3768 c-7 -4 9 -8 36 -8 26 0 47 2 47 4 0 8 -71 12 -83 4z"/>
<path d="M1638 3773 c6 -2 18 -2 25 0 6 3 1 5 -13 5 -14 0 -19 -2 -12 -5z"/>
<path d="M1688 3773 c7 -3 16 -2 19 1 4 3 -2 6 -13 5 -11 0 -14 -3 -6 -6z"/>
<path d="M5090 3766 c0 -8 5 -18 10 -21 6 -3 10 3 10 14 0 12 -4 21 -10 21 -5
0 -10 -6 -10 -14z"/>
<path d="M5428 3773 c7 -3 16 -2 19 1 4 3 -2 6 -13 5 -11 0 -14 -3 -6 -6z"/>
<path d="M3384 3745 c-10 -8 -14 -15 -8 -15 6 0 17 7 24 15 16 19 9 19 -16 0z"/>
<path d="M4575 3750 c-3 -5 -1 -10 4 -10 6 0 11 5 11 10 0 6 -2 10 -4 10 -3 0
-8 -4 -11 -10z"/>
<path d="M4380 3740 c0 -6 7 -10 15 -10 8 0 15 2 15 4 0 2 -7 6 -15 10 -8 3
-15 1 -15 -4z"/>
<path d="M1525 3732 c-15 -15 2 -18 79 -14 46 2 113 -1 147 -7 152 -26 363
-50 377 -42 9 5 -8 10 -49 14 -35 3 -93 11 -129 16 -113 17 -143 21 -240 26
-52 3 -114 7 -137 9 -23 2 -45 1 -48 -2z"/>
<path d="M3133 3729 c-18 -5 -33 -12 -33 -15 0 -3 15 -3 33 1 31 7 31 6 12
-10 -19 -15 -18 -16 30 -10 28 4 58 11 68 16 22 12 37 3 37 -22 0 -18 2 -19
15 -5 9 8 22 13 30 10 9 -4 15 0 15 9 0 8 6 17 13 20 6 2 1 5 -13 5 -14 0 -59
3 -100 6 -41 3 -90 1 -107 -5z"/>
<path d="M4280 3711 c-24 -7 -23 -8 10 -14 43 -7 149 -34 210 -54 66 -21 98
-27 80 -14 -8 5 -18 7 -22 5 -4 -3 -8 0 -8 5 0 6 -8 11 -18 11 -11 0 -27 9
-37 20 -10 11 -26 20 -36 20 -9 0 -19 5 -21 10 -4 13 -123 21 -158 11z"/>
<path d="M5180 3706 c0 -8 5 -18 10 -21 6 -3 10 3 10 14 0 12 -4 21 -10 21 -5
0 -10 -6 -10 -14z"/>
<path d="M5811 3706 c-10 -12 -9 -14 5 -12 10 2 20 8 22 14 5 17 -13 15 -27
-2z"/>
<path d="M2982 3691 c-60 -21 -80 -35 -63 -45 6 -4 11 -3 11 3 0 10 84 41 119
44 25 2 28 17 4 17 -10 -1 -42 -9 -71 -19z"/>
<path d="M5930 3681 c0 -4 -19 -30 -42 -57 l-42 -49 40 38 c22 20 44 34 49 30
4 -5 5 -3 1 4 -3 6 -2 14 4 18 13 8 13 25 0 25 -5 0 -10 -4 -10 -9z"/>
<path d="M2370 3665 c33 -19 50 -18 26 0 -11 8 -27 15 -35 15 -10 -1 -7 -6 9
-15z"/>
<path d="M3805 3669 c-4 -6 -5 -12 -2 -15 2 -3 7 2 10 11 7 17 1 20 -8 4z"/>
<path d="M4701 3663 c-5 -10 -12 -17 -15 -16 -9 4 -36 -9 -36 -16 0 -4 7 -8
15 -8 8 0 11 5 8 10 -4 6 0 8 9 4 10 -3 19 3 27 19 12 28 7 33 -8 7z"/>
<path d="M2480 3662 c-25 -2 -50 -9 -55 -16 -6 -7 -26 -17 -45 -21 -19 -4 -29
-10 -22 -12 7 -3 34 2 60 10 26 8 105 18 175 22 70 4 127 9 125 10 -5 5 -191
10 -238 7z"/>
<path d="M5698 3663 c-10 -2 -18 -8 -18 -13 0 -17 15 -16 33 2 17 18 16 19
-15 11z"/>
<path d="M3740 3650 c0 -5 11 -10 25 -10 14 0 25 5 25 10 0 6 -11 10 -25 10
-14 0 -25 -4 -25 -10z"/>
<path d="M2815 3625 c92 -28 119 -31 94 -12 -9 7 -14 18 -11 25 3 11 0 11 -16
1 -16 -10 -31 -10 -72 -1 -84 19 -81 13 5 -13z"/>
<path d="M3860 3640 c-8 -5 -10 -10 -5 -10 6 0 17 5 25 10 8 5 11 10 5 10 -5
0 -17 -5 -25 -10z"/>
<path d="M4841 3635 c-21 -10 -38 -12 -45 -6 -22 18 -116 -29 -116 -58 0 -14
67 -14 75 -1 4 6 10 8 15 5 13 -8 50 13 47 27 -1 6 13 16 31 21 17 5 32 14 32
18 0 11 2 11 -39 -6z"/>
<path d="M3585 3620 c-5 -9 -4 -15 4 -18 8 -3 9 -8 1 -17 -11 -14 -4 -45 11
-45 6 0 5 8 -1 19 -7 14 -6 21 2 23 9 3 10 11 2 28 -8 19 -12 21 -19 10z"/>
<path d="M3750 3621 c0 -14 31 -42 72 -65 l33 -19 -25 27 c-33 37 -80 70 -80
57z"/>
<path d="M5568 3623 c7 -3 16 -2 19 1 4 3 -2 6 -13 5 -11 0 -14 -3 -6 -6z"/>
<path d="M5849 3613 c-13 -16 -12 -17 4 -4 16 13 21 21 13 21 -2 0 -10 -8 -17
-17z"/>
<path d="M2945 3610 c-4 -6 -5 -14 -2 -16 8 -8 107 8 107 17 0 8 -31 5 -69 -7
-8 -3 -18 0 -21 7 -6 8 -9 8 -15 -1z"/>
<path d="M3172 3606 c-40 -21 -92 -69 -92 -82 0 -7 12 -2 28 13 15 14 45 39
66 54 40 30 39 38 -2 15z"/>
<path d="M3824 3612 c7 -6 116 -51 116 -47 0 8 -69 42 -93 47 -15 3 -25 3 -23
0z"/>
<path d="M4610 3605 c7 -8 17 -15 22 -15 6 0 5 7 -2 15 -7 8 -17 15 -22 15 -6
0 -5 -7 2 -15z"/>
<path d="M5738 3603 c6 -2 18 -2 25 0 6 3 1 5 -13 5 -14 0 -19 -2 -12 -5z"/>
<path d="M3276 3592 c-2 -4 4 -8 14 -8 10 0 16 4 14 8 -3 4 -9 8 -14 8 -5 0
-11 -4 -14 -8z"/>
<path d="M5046 3585 c-9 -26 -7 -32 5 -12 6 10 9 21 6 23 -2 3 -7 -2 -11 -11z"/>
<path d="M5906 3585 c-9 -26 -7 -32 5 -12 6 10 9 21 6 23 -2 3 -7 -2 -11 -11z"/>
<path d="M2248 3573 c6 -2 18 -2 25 0 6 3 1 5 -13 5 -14 0 -19 -2 -12 -5z"/>
<path d="M3373 3557 c-11 -24 -10 -26 20 -32 18 -4 37 -12 44 -17 8 -6 11 -4
9 9 -2 10 -12 19 -23 21 -11 2 -25 12 -30 24 -9 20 -9 19 -20 -5z"/>
<path d="M3285 3549 c-4 -6 -5 -12 -2 -15 2 -3 7 2 10 11 7 17 1 20 -8 4z"/>
<path d="M3670 3553 c0 -12 44 -53 95 -87 l40 -27 -40 6 c-29 5 -36 4 -25 -4
12 -8 11 -11 -5 -16 -11 -4 -35 -13 -54 -21 -25 -11 -36 -12 -47 -3 -19 16
-18 24 9 37 20 9 18 10 -15 9 -42 -2 -49 -18 -22 -48 9 -10 13 -23 9 -28 -9
-16 -23 -13 -29 7 -3 9 -2 -12 1 -48 5 -58 14 -79 35 -80 4 0 2 15 -3 33 -16
50 -15 61 4 65 11 2 27 11 37 20 11 8 29 17 42 19 12 2 27 8 32 13 18 18 78
11 110 -13 49 -37 63 -43 42 -19 l-19 22 72 -3 c39 -1 71 1 71 6 0 4 -29 7
-65 7 -60 0 -68 3 -104 35 -21 19 -45 35 -52 35 -18 1 -64 36 -64 49 0 6 -3
10 -6 9 -4 -2 -16 6 -28 16 -12 11 -21 15 -21 9z"/>
<path d="M1070 3535 c-54 -17 -127 -74 -95 -75 23 0 78 33 69 42 -3 3 15 14
40 23 44 17 88 17 156 0 17 -4 14 -1 -9 9 -40 19 -101 19 -161 1z"/>
<path d="M5090 3534 c0 -8 5 -12 10 -9 6 4 8 11 5 16 -9 14 -15 11 -15 -7z"/>
<path d="M4495 3530 c-3 -5 -1 -10 4 -10 6 0 11 5 11 10 0 6 -2 10 -4 10 -3 0
-8 -4 -11 -10z"/>
<path d="M5540 3515 c-10 -12 -10 -15 4 -15 9 0 16 7 16 15 0 8 -2 15 -4 15
-2 0 -9 -7 -16 -15z"/>
<path d="M3332 3485 c-12 -19 -20 -35 -17 -35 7 0 47 61 42 66 -2 3 -14 -11
-25 -31z"/>
<path d="M3465 3510 c3 -5 15 -10 26 -10 11 0 17 5 14 10 -3 6 -15 10 -26 10
-11 0 -17 -4 -14 -10z"/>
<path d="M5770 3505 c0 -8 2 -15 4 -15 2 0 6 7 10 15 3 8 1 15 -4 15 -6 0 -10
-7 -10 -15z"/>
<path d="M3539 3498 c-1 -7 0 -17 1 -23 19 -79 19 -75 -8 -75 -17 0 -23 -3
-16 -10 5 -5 20 -7 32 -3 19 5 22 12 21 47 -1 22 -3 49 -6 59 -5 20 -22 23
-24 5z m19 -33 c-3 -3 -9 2 -12 12 -6 14 -5 15 5 6 7 -7 10 -15 7 -18z"/>
<path d="M3985 3500 c3 -5 8 -10 11 -10 2 0 4 5 4 10 0 6 -5 10 -11 10 -5 0
-7 -4 -4 -10z"/>
<path d="M5100 3500 c0 -5 5 -10 10 -10 6 0 10 5 10 10 0 6 -4 10 -10 10 -5 0
-10 -4 -10 -10z"/>
<path d="M1326 3475 c10 -8 24 -14 29 -14 6 0 1 6 -9 14 -11 8 -24 15 -30 15
-5 0 -1 -7 10 -15z"/>
<path d="M4950 3460 c-6 -11 -8 -20 -6 -20 3 0 10 9 16 20 6 11 8 20 6 20 -3
0 -10 -9 -16 -20z"/>
<path d="M5270 3462 c0 -15 4 -20 16 -15 9 3 12 9 7 12 -4 3 -11 10 -15 15 -5
5 -8 0 -8 -12z"/>
<path d="M5120 3461 c0 -6 4 -13 10 -16 6 -3 7 1 4 9 -7 18 -14 21 -14 7z"/>
<path d="M1008 3419 c3 -23 7 -37 11 -33 7 11 30 18 51 16 8 -1 56 -6 105 -11
149 -15 161 -21 129 -71 -15 -25 -15 -25 8 1 13 14 30 29 40 32 30 10 90 -16
109 -48 23 -36 25 -26 4 15 -17 33 -43 50 -74 50 -26 0 -27 8 -3 27 16 14 16
14 -3 8 -46 -16 -54 -16 -93 4 -42 21 -188 51 -251 51 l-37 0 4 -41z"/>
<path d="M3975 3449 c-4 -6 0 -18 9 -27 10 -11 16 -12 16 -4 0 7 -6 12 -12 12
-10 0 -9 3 1 9 8 5 9 11 3 15 -6 3 -14 1 -17 -5z"/>
<path d="M5647 3441 c-45 -29 -45 -35 1 -12 23 12 42 24 42 26 0 9 -14 4 -43
-14z"/>
<path d="M889 3412 c-39 -20 -60 -40 -82 -77 -16 -27 -22 -44 -14 -37 7 7 17
9 21 5 4 -4 4 1 0 11 -5 14 -4 17 4 12 7 -4 12 -2 12 5 0 23 78 83 109 84 16
0 28 25 13 25 -5 0 -34 -12 -63 -28z"/>
<path d="M5370 3410 c0 -19 3 -21 12 -12 9 9 9 15 0 24 -9 9 -12 7 -12 -12z"/>
<path d="M4788 3413 c6 -2 18 -2 25 0 6 3 1 5 -13 5 -14 0 -19 -2 -12 -5z"/>
<path d="M5130 3412 c0 -5 7 -17 16 -28 14 -17 15 -17 10 -1 -3 10 -6 23 -6
28 0 5 -4 9 -10 9 -5 0 -10 -4 -10 -8z"/>
<path d="M5718 3360 c-16 -37 -35 -64 -50 -70 -23 -10 -23 -11 0 -6 12 2 22
-1 22 -7 0 -11 46 89 57 126 11 36 -3 15 -29 -43z"/>
<path d="M5300 3369 c0 -11 27 -12 34 -1 2 4 -4 9 -15 9 -10 1 -19 -2 -19 -8z"/>
<path d="M5679 3343 l-24 -28 28 24 c15 14 27 26 27 28 0 8 -8 1 -31 -24z"/>
<path d="M4120 3350 c0 -5 5 -10 11 -10 5 0 8 -4 5 -9 -5 -8 34 -41 49 -41 14
0 2 18 -30 43 -19 15 -35 23 -35 17z"/>
<path d="M4870 3356 c0 -2 15 -9 33 -15 29 -10 30 -9 13 4 -18 14 -46 20 -46
11z"/>
<path d="M4810 3337 c-30 -9 -32 -11 -13 -15 13 -2 33 4 45 12 26 18 18 19
-32 3z"/>
<path d="M5155 3340 c3 -5 11 -10 16 -10 6 0 7 5 4 10 -3 6 -11 10 -16 10 -6
0 -7 -4 -4 -10z"/>
<path d="M5236 3335 c-9 -26 -7 -32 5 -12 6 10 9 21 6 23 -2 3 -7 -2 -11 -11z"/>
<path d="M3938 3333 c7 -3 16 -2 19 1 4 3 -2 6 -13 5 -11 0 -14 -3 -6 -6z"/>
<path d="M5320 3321 c0 -9 30 -24 36 -18 2 1 -6 8 -16 15 -11 7 -20 8 -20 3z"/>
<path d="M5627 3323 c-11 -11 -8 -20 7 -20 8 0 12 6 9 14 -6 15 -7 15 -16 6z"/>
<path d="M3378 3313 c7 -3 16 -2 19 1 4 3 -2 6 -13 5 -11 0 -14 -3 -6 -6z"/>
<path d="M5171 3291 c6 -17 17 -35 25 -42 18 -15 18 -7 0 36 -19 43 -40 48
-25 6z"/>
<path d="M5376 3301 c-4 -6 3 -15 14 -21 23 -12 27 2 6 19 -9 8 -16 8 -20 2z"/>
<path d="M765 3269 c-4 -6 -5 -12 -2 -15 2 -3 7 2 10 11 7 17 1 20 -8 4z"/>
<path d="M1481 3254 c0 -11 3 -14 6 -6 3 7 2 16 -1 19 -3 4 -6 -2 -5 -13z"/>
<path d="M3820 3241 c-30 -15 -60 -26 -67 -24 -7 3 -10 -3 -6 -15 2 -11 0 -23
-6 -26 -6 -4 -11 -15 -11 -24 0 -11 7 -6 21 15 11 17 33 36 49 42 17 5 30 14
30 19 0 6 17 17 38 25 20 9 30 16 22 16 -8 0 -40 -12 -70 -28z"/>
<path d="M3968 3263 c7 -3 16 -2 19 1 4 3 -2 6 -13 5 -11 0 -14 -3 -6 -6z"/>
<path d="M5524 3243 c-1 -13 1 -23 5 -23 12 0 66 40 56 41 -50 7 -60 4 -61
-18z"/>
<path d="M5772 3239 c-18 -16 -29 -29 -25 -29 11 1 66 50 62 55 -2 2 -19 -10
-37 -26z"/>
<path d="M5000 3231 c0 -6 4 -13 10 -16 6 -3 7 1 4 9 -7 18 -14 21 -14 7z"/>
<path d="M5258 3218 c-10 -10 -14 -18 -9 -18 6 0 13 5 17 11 4 8 13 4 25 -12
15 -19 19 -20 19 -7 0 9 6 19 13 21 6 3 0 6 -15 6 -14 1 -28 5 -30 9 -1 4 -11
0 -20 -10z"/>
<path d="M3369 3213 c-13 -16 -12 -17 4 -4 16 13 21 21 13 21 -2 0 -10 -8 -17
-17z"/>
<path d="M5200 3215 c7 -8 16 -15 21 -15 5 0 6 7 3 15 -4 8 -13 15 -21 15 -13
0 -13 -3 -3 -15z"/>
<path d="M5472 3215 c-38 -20 -45 -32 -27 -39 9 -3 14 -2 11 3 -6 9 22 26 37
23 4 -1 7 5 7 13 0 8 -1 15 -2 14 -2 -1 -14 -7 -26 -14z"/>
<path d="M3715 3200 c-3 -5 1 -10 10 -10 9 0 13 5 10 10 -3 6 -8 10 -10 10 -2
0 -7 -4 -10 -10z"/>
<path d="M4777 3184 c-27 -14 -47 -27 -45 -29 4 -5 108 44 108 50 0 9 -15 4
-63 -21z"/>
<path d="M5165 3190 c-3 -5 -2 -10 4 -10 5 0 13 5 16 10 3 6 2 10 -4 10 -5 0
-13 -4 -16 -10z"/>
<path d="M5227 3183 c-12 -3 -15 -8 -9 -16 8 -10 77 -203 87 -242 7 -30 34
-78 35 -62 0 10 -5 27 -10 38 -8 14 -7 19 2 19 10 0 10 2 1 8 -12 7 -50 102
-79 196 -13 40 -13 50 -2 57 14 9 5 10 -25 2z"/>
<path d="M5325 3180 c-3 -5 11 -26 32 -45 21 -19 40 -30 41 -25 4 10 62 -19
62 -31 0 -3 18 -11 40 -18 38 -11 40 -14 42 -54 l1 -42 6 42 c6 43 4 40 148
161 l28 23 -27 -16 c-15 -9 -31 -14 -37 -11 -5 4 -11 0 -13 -7 -4 -17 -95 -97
-110 -97 -20 0 -128 63 -128 74 0 7 5 17 12 24 7 7 9 12 4 12 -4 0 -14 -7 -22
-15 -14 -13 -19 -13 -45 1 -16 8 -27 19 -24 24 4 6 4 10 1 10 -3 0 -8 -4 -11
-10z"/>
<path d="M3680 3170 c0 -5 5 -10 10 -10 6 0 10 5 10 10 0 6 -4 10 -10 10 -5 0
-10 -4 -10 -10z"/>
<path d="M4440 3161 c0 -5 9 -7 20 -4 11 3 20 7 20 9 0 2 -9 4 -20 4 -11 0
-20 -4 -20 -9z"/>
<path d="M4608 3163 c6 -2 18 -2 25 0 6 3 1 5 -13 5 -14 0 -19 -2 -12 -5z"/>
<path d="M4393 3153 c-15 -6 -17 -33 -3 -33 5 0 14 9 20 20 11 20 6 23 -17 13z"/>
<path d="M4510 3156 c0 -2 7 -7 16 -10 8 -3 12 -2 9 4 -6 10 -25 14 -25 6z"/>
<path d="M780 3132 c0 -48 118 -222 150 -222 9 0 8 5 -3 18 -9 9 -21 39 -27
66 -6 27 -19 62 -28 78 l-17 30 -6 -44 -5 -43 -32 65 c-18 36 -32 59 -32 52z"/>
<path d="M3705 3110 c-4 -17 -5 -34 -2 -36 3 -3 8 9 12 26 4 17 5 34 2 36 -3
3 -8 -9 -12 -26z"/>
<path d="M1231 3094 c0 -11 3 -14 6 -6 3 7 2 16 -1 19 -3 4 -6 -2 -5 -13z"/>
<path d="M2870 3090 c0 -5 5 -10 10 -10 6 0 10 5 10 10 0 6 -4 10 -10 10 -5 0
-10 -4 -10 -10z"/>
<path d="M2923 3093 c9 -2 25 -2 35 0 9 3 1 5 -18 5 -19 0 -27 -2 -17 -5z"/>
<path d="M2988 3093 c6 -2 18 -2 25 0 6 3 1 5 -13 5 -14 0 -19 -2 -12 -5z"/>
<path d="M4394 3045 c11 -8 25 -15 30 -15 6 0 2 7 -8 15 -11 8 -25 15 -30 15
-6 0 -2 -7 8 -15z"/>
<path d="M3268 3043 c-18 -3 -28 -11 -28 -21 0 -12 3 -13 12 -4 27 27 29 10 2
-20 l-29 -31 30 20 c17 11 46 30 65 42 l35 21 -30 -2 c-16 0 -42 -3 -57 -5z"/>
<path d="M5726 3014 c-4 -14 -5 -28 -3 -31 3 -2 8 8 11 23 4 14 5 28 3 31 -3
2 -8 -8 -11 -23z"/>
<path d="M3181 3003 c15 -40 30 -65 36 -59 3 3 0 12 -7 21 -7 8 -10 24 -7 34
3 13 -1 21 -13 24 -16 4 -17 1 -9 -20z"/>
<path d="M4096 3017 c3 -10 9 -15 12 -12 3 3 0 11 -7 18 -10 9 -11 8 -5 -6z"/>
<path d="M5430 3005 c-13 -14 -20 -28 -17 -32 4 -3 8 -4 10 -2 1 2 13 16 26
32 31 34 13 36 -19 2z"/>
<path d="M3556 3005 c-14 -11 -24 -12 -38 -4 -11 6 -22 8 -25 5 -3 -3 6 -11
21 -17 24 -11 30 -10 49 9 24 25 21 28 -7 7z"/>
<path d="M4757 3010 c-21 -4 -43 -13 -50 -20 -13 -13 2 -12 120 9 50 9 70 8
102 -3 23 -7 38 -10 35 -5 -15 25 -126 35 -207 19z"/>
<path d="M375 2990 c3 -5 11 -10 16 -10 6 0 7 5 4 10 -3 6 -11 10 -16 10 -6 0
-7 -4 -4 -10z"/>
<path d="M460 2964 c13 -16 38 -43 55 -60 16 -16 31 -37 33 -45 4 -17 44 -61
50 -55 7 8 -9 46 -18 41 -5 -3 -11 -1 -15 5 -3 5 0 10 7 10 14 0 -87 106 -117
122 -17 9 -16 6 5 -18z"/>
<path d="M5386 2936 c3 -8 13 -17 21 -20 26 -10 25 0 -1 18 -20 13 -24 13 -20
2z"/>
<path d="M5669 2935 c-8 -9 -37 -24 -63 -34 -47 -18 -60 -17 -146 3 l-25 7 25
-12 c83 -39 99 -45 94 -38 -3 5 3 12 13 15 72 23 120 47 120 59 0 18 1 18 -18
0z"/>
<path d="M5703 2925 c0 -8 4 -15 9 -15 4 0 8 7 8 15 0 8 -4 15 -8 15 -5 0 -9
-7 -9 -15z"/>
<path d="M1508 2897 c-23 -49 -87 -118 -102 -110 -6 3 -8 3 -4 -2 13 -13 -13
-35 -41 -35 -19 0 -22 -3 -12 -9 11 -7 3 -13 -29 -22 -40 -12 -44 -12 -61 10
-18 22 -19 22 -19 3 0 -17 28 -51 37 -44 1 1 8 2 13 2 18 0 10 -29 -12 -44
-12 -9 -20 -16 -18 -17 63 -9 78 -8 91 8 13 16 12 17 -3 5 -9 -8 -24 -12 -32
-10 -26 5 0 31 33 33 17 1 49 13 72 28 22 15 45 27 50 27 6 0 37 18 69 40 61
41 90 81 90 121 0 27 -9 21 -15 -10 -6 -32 -14 -41 -31 -34 -9 3 -21 -3 -31
-17 -10 -14 -22 -20 -34 -17 -14 4 -19 0 -19 -16 0 -11 -3 -17 -7 -14 -3 4
-12 2 -20 -5 -9 -7 -17 -8 -24 -1 -6 6 0 20 16 39 40 45 67 92 63 110 -2 11
-9 5 -20 -19z m77 -87 c-3 -5 -16 -15 -28 -21 -22 -12 -22 -12 -3 10 19 21 43
30 31 11z"/>
<path d="M3888 2903 c6 -2 18 -2 25 0 6 3 1 5 -13 5 -14 0 -19 -2 -12 -5z"/>
<path d="M970 2891 c0 -9 23 -21 41 -21 4 0 6 7 3 15 -7 16 -44 21 -44 6z"/>
<path d="M4795 2860 c3 -5 13 -10 21 -10 8 0 14 5 14 10 0 6 -9 10 -21 10 -11
0 -17 -4 -14 -10z"/>
<path d="M4856 2861 c-4 -5 3 -7 14 -4 23 6 26 13 6 13 -8 0 -17 -4 -20 -9z"/>
<path d="M3420 2851 c8 -5 29 -11 45 -14 l30 -6 -30 14 c-34 16 -72 21 -45 6z"/>
<path d="M4350 2856 c0 -2 8 -10 18 -17 15 -13 16 -12 3 4 -13 16 -21 21 -21
13z"/>
<path d="M5692 2840 c0 -14 2 -19 5 -12 2 6 2 18 0 25 -3 6 -5 1 -5 -13z"/>
<path d="M3801 2824 c0 -11 3 -14 6 -6 3 7 2 16 -1 19 -3 4 -6 -2 -5 -13z"/>
<path d="M5010 2820 c20 -13 43 -13 35 0 -3 6 -16 10 -28 10 -18 0 -19 -2 -7
-10z"/>
<path d="M5357 2800 c7 -40 10 -46 20 -37 3 4 -1 22 -10 40 l-16 32 6 -35z"/>
<path d="M3576 2800 c12 -12 28 -20 37 -18 9 2 2 10 -21 21 l-37 19 21 -22z"/>
<path d="M4468 2793 c7 -3 16 -2 19 1 4 3 -2 6 -13 5 -11 0 -14 -3 -6 -6z"/>
<path d="M3082 2728 c10 -73 43 -150 86 -200 17 -19 29 -38 25 -42 -3 -3 3 -6
15 -6 11 0 24 -4 27 -10 3 -5 16 -15 28 -21 19 -9 19 -8 -3 10 -21 18 -23 22
-10 31 12 8 11 10 -7 10 -50 0 -122 112 -143 223 -16 84 -30 88 -18 5z"/>
<path d="M4500 2787 c0 -3 20 -12 45 -20 45 -16 65 -14 23 2 -43 16 -68 22
-68 18z"/>
<path d="M3651 2777 c2 -1 13 -9 24 -17 19 -14 19 -14 6 3 -7 9 -18 17 -24 17
-6 0 -8 -1 -6 -3z"/>
<path d="M3860 2765 c7 -9 15 -13 17 -11 7 7 -7 26 -19 26 -6 0 -6 -6 2 -15z"/>
<path d="M3794 2756 c-8 -9 -5 -15 13 -23 20 -10 23 -9 23 9 0 10 -4 17 -9 14
-5 -4 -11 -2 -13 3 -1 5 -8 4 -14 -3z"/>
<path d="M113 2738 c-2 -18 0 -20 7 -8 12 18 13 30 2 30 -4 0 -9 -10 -9 -22z"/>
<path d="M5436 2752 c-3 -6 1 -13 10 -16 23 -9 28 -2 10 13 -8 7 -17 8 -20 3z"/>
<path d="M5276 2733 c-6 -14 -5 -15 5 -6 7 7 10 15 7 18 -3 3 -9 -2 -12 -12z"/>
<path d="M5540 2742 c0 -4 9 -13 20 -20 19 -12 20 -11 8 8 -13 20 -28 27 -28
12z"/>
<path d="M130 2724 c0 -8 5 -12 10 -9 6 3 10 10 10 16 0 5 -4 9 -10 9 -5 0
-10 -7 -10 -16z"/>
<path d="M5375 2730 c3 -5 11 -10 16 -10 6 0 7 5 4 10 -3 6 -11 10 -16 10 -6
0 -7 -4 -4 -10z"/>
<path d="M5595 2700 c3 -5 16 -10 28 -9 21 0 21 1 2 9 -28 12 -37 12 -30 0z"/>
<path d="M5660 2700 c0 -5 5 -10 10 -10 6 0 10 5 10 10 0 6 -4 10 -10 10 -5 0
-10 -4 -10 -10z"/>
<path d="M120 2688 c0 -7 5 -20 10 -28 8 -13 11 -13 22 -1 10 10 10 12 1 7 -8
-4 -13 -1 -13 8 0 8 -4 18 -10 21 -5 3 -10 0 -10 -7z"/>
<path d="M3281 2685 c-1 -24 15 -52 24 -43 4 3 0 19 -9 35 -13 23 -15 24 -15
8z"/>
<path d="M4983 2673 c9 -2 23 -2 30 0 6 3 -1 5 -18 5 -16 0 -22 -2 -12 -5z"/>
<path d="M5661 2664 c0 -11 3 -14 6 -6 3 7 2 16 -1 19 -3 4 -6 -2 -5 -13z"/>
<path d="M5043 2663 c9 -2 23 -2 30 0 6 3 -1 5 -18 5 -16 0 -22 -2 -12 -5z"/>
<path d="M5125 2660 c3 -5 8 -10 11 -10 2 0 4 5 4 10 0 6 -5 10 -11 10 -5 0
-7 -4 -4 -10z"/>
<path d="M5727 2664 c-14 -14 6 -34 29 -28 14 4 31 1 39 -6 10 -8 15 -9 15 -2
0 24 -66 53 -83 36z"/>
<path d="M2889 2602 c5 -10 18 -25 28 -33 12 -10 11 -5 -6 19 -24 35 -38 43
-22 14z"/>
<path d="M3846 2575 c34 -96 42 -116 48 -123 14 -14 -7 54 -31 98 -13 25 -21
36 -17 25z"/>
<path d="M5127 2583 c-4 -3 -7 -14 -7 -24 0 -25 -83 -94 -157 -131 -58 -28
-67 -30 -101 -20 -33 10 -35 10 -18 -3 46 -35 131 -5 220 76 30 27 62 49 71
49 14 0 15 3 6 14 -6 7 -9 21 -5 30 6 17 2 21 -9 9z"/>
<path d="M5500 2565 c0 -5 5 -17 10 -25 5 -8 10 -10 10 -5 0 6 -5 17 -10 25
-5 8 -10 11 -10 5z"/>
<path d="M5295 2540 c11 -5 27 -9 35 -9 9 0 8 4 -5 9 -11 5 -27 9 -35 9 -9 0
-8 -4 5 -9z"/>
<path d="M5641 2534 c0 -11 3 -14 6 -6 3 7 2 16 -1 19 -3 4 -6 -2 -5 -13z"/>
<path d="M2964 2531 c7 -11 46 -35 46 -28 0 3 -12 12 -26 22 -15 9 -23 12 -20
6z"/>
<path d="M5625 2453 c-4 -32 -9 -66 -11 -75 -3 -10 -1 -18 4 -18 10 0 27 138
19 147 -3 2 -8 -22 -12 -54z"/>
<path d="M3138 2473 c6 -2 18 -2 25 0 6 3 1 5 -13 5 -14 0 -19 -2 -12 -5z"/>
<path d="M3615 2460 c-19 -8 -19 -9 2 -9 12 -1 25 4 28 9 7 12 -2 12 -30 0z"/>
<path d="M3290 2440 c0 -5 5 -10 11 -10 5 0 7 5 4 10 -3 6 -8 10 -11 10 -2 0
-4 -4 -4 -10z"/>
<path d="M3388 2433 c12 -2 30 -2 40 0 9 3 -1 5 -23 4 -22 0 -30 -2 -17 -4z"/>
<path d="M3820 2347 c0 -9 60 -26 64 -18 3 4 0 8 -7 8 -7 0 -22 3 -34 7 -13 4
-23 5 -23 3z"/>
<path d="M1344 2315 c8 -8 18 -15 22 -15 3 0 1 7 -6 15 -7 8 -17 15 -22 15 -5
0 -3 -7 6 -15z"/>
<path d="M1381 2273 c0 -12 4 -25 9 -28 6 -3 10 -14 10 -23 0 -30 17 -47 33
-34 7 7 17 9 20 5 4 -3 7 2 7 12 0 24 -38 65 -55 59 -7 -3 -15 3 -18 13 -4 15
-5 14 -6 -4z"/>
<path d="M6020 1950 c-12 -8 -11 -10 8 -10 12 0 22 5 22 10 0 13 -11 13 -30 0z"/>
<path d="M6355 1940 c-3 -5 -1 -10 4 -10 6 0 11 5 11 10 0 6 -2 10 -4 10 -3 0
-8 -4 -11 -10z"/>
<path d="M6020 1824 c0 -15 24 -17 55 -4 l20 9 -20 1 c-11 1 -28 3 -37 5 -10
2 -18 -3 -18 -11z"/>
<path d="M6098 1802 c-10 -2 -18 -8 -18 -13 0 -12 57 -12 64 0 7 10 -22 19
-46 13z"/>
<path d="M6370 1785 c-10 -13 -9 -15 9 -15 12 0 21 6 21 15 0 8 -4 15 -9 15
-5 0 -14 -7 -21 -15z"/>
<path d="M6208 1553 c7 -3 16 -2 19 1 4 3 -2 6 -13 5 -11 0 -14 -3 -6 -6z"/>
</g>
</svg>
