<svg width="37" height="36" viewBox="0 0 37 36" fill="none" xmlns="http://www.w3.org/2000/svg">
<path d="M24.5 19.5C20.3579 19.5 17 17.8211 17 15.75C17 13.6789 20.3579 12 24.5 12C28.6421 12 32 13.6789 32 15.75C32 17.8211 28.6421 19.5 24.5 19.5Z" stroke="white" stroke-width="1.5" stroke-linecap="round" stroke-linejoin="round"/>
<path d="M17 21.75C17 23.8211 20.3579 25.5 24.5 25.5C28.6421 25.5 32 23.8211 32 21.75" stroke="white" stroke-width="1.5" stroke-linecap="round" stroke-linejoin="round"/>
<path d="M5.00025 14.25C5.00025 16.3211 8.35811 18 12.5002 18C14.189 18 15.7474 17.7209 17.001 17.25" stroke="white" stroke-width="1.5" stroke-linecap="round" stroke-linejoin="round"/>
<path d="M5 19.5C5 21.5711 8.35786 23.25 12.5 23.25C14.1884 23.25 15.7465 22.971 17 22.5003" stroke="white" stroke-width="1.5" stroke-linecap="round" stroke-linejoin="round"/>
<path d="M5 8.25V24.75C5 26.8211 8.35786 28.5 12.5 28.5C14.1884 28.5 15.7465 28.2208 17 27.75" stroke="white" stroke-width="1.5" stroke-linecap="round" stroke-linejoin="round"/>
<path d="M20 12.75V8.25" stroke="white" stroke-width="1.5" stroke-linecap="round" stroke-linejoin="round"/>
<path d="M17 15.75V27.75C17 29.8211 20.3579 31.5 24.5 31.5C28.6421 31.5 32 29.8211 32 27.75V15.75" stroke="white" stroke-width="1.5" stroke-linecap="round" stroke-linejoin="round"/>
<path d="M12.5 12C8.35786 12 5 10.3211 5 8.25C5 6.17893 8.35786 4.5 12.5 4.5C16.6421 4.5 20 6.17893 20 8.25C20 10.3211 16.6421 12 12.5 12Z" stroke="white" stroke-width="1.5" stroke-linecap="round" stroke-linejoin="round"/>
</svg>
