<svg width="24" height="24" viewBox="0 0 24 24" fill="none" xmlns="http://www.w3.org/2000/svg">
<path d="M11.7749 3C10.3499 3 6.82494 3.15 4.94994 4.95C3.59994 6.225 3.07494 8.175 2.99994 10.5C2.84994 14.175 3.67494 16.5 5.02494 17.7C5.32494 17.925 6.07494 18.525 7.49994 18.975V20.85C7.49994 20.85 7.49994 21.6 7.94994 21.75C8.02494 21.75 8.09994 21.825 8.17494 21.825C8.62494 21.825 8.99994 21.3 9.52494 20.775C9.97494 20.25 10.3499 19.875 10.5749 19.5H12.2249C13.6499 19.5 17.1749 19.35 19.0499 17.55C20.3999 16.2 20.9249 14.25 20.9249 11.775C20.9999 11.4 20.9999 10.95 20.9999 10.5C20.9249 7.725 20.0999 5.85 18.9749 4.8C18.5249 4.425 16.5749 3 12.3749 3H11.7749ZM11.6249 4.425H12.2999C16.2749 4.425 17.7749 5.7 17.9249 5.85C18.8249 6.6 19.3499 8.25 19.4249 10.425V10.725C19.4999 11.175 19.4999 11.55 19.4999 11.775C19.4249 14.025 18.9749 15.525 18.0749 16.5C16.4999 17.925 13.1999 18 12.2999 18H10.8749L9.67494 19.35L8.92494 20.175L8.77494 20.4C8.62494 20.55 8.39994 20.85 8.24994 20.925V17.55C6.74994 17.175 6.14994 16.65 5.99994 16.5C4.94994 15.6 4.34994 13.425 4.49994 10.5V9.75C4.64994 7.95 5.09994 6.75 5.84994 5.925C7.42494 4.5 10.7249 4.425 11.6249 4.425ZM11.5499 6.075C11.1749 6.075 11.1749 6.6 11.5499 6.6C14.3249 6.6 16.7249 8.475 16.7249 12C16.7249 12.375 17.2499 12.375 17.2499 12C17.2499 8.175 14.6999 6 11.5499 6.075ZM8.57769 6.76875C8.40779 6.74879 8.23677 6.79557 8.10069 6.89925C7.35069 7.27425 6.59994 8.02575 6.82494 8.85075C6.82494 8.85075 6.97494 9.525 7.79994 10.95C8.24994 11.625 8.62494 12.225 8.99994 12.675C9.37494 13.2 9.97494 13.8 10.5749 14.25C11.7749 15.225 13.6499 16.2 14.4749 16.425C15.2249 16.65 16.0499 15.9 16.4249 15.15C16.5749 14.85 16.4999 14.475 16.1999 14.25C15.7499 13.8 14.9999 13.275 14.4749 12.975C14.0999 12.75 13.6499 12.9 13.4999 13.125L13.1249 13.575C12.9749 13.8 12.5999 13.8 12.5999 13.8C10.1249 13.125 9.44994 10.575 9.44994 10.575C9.44994 10.575 9.44994 10.275 9.67494 10.05L10.1249 9.675C10.3499 9.525 10.4999 9.075 10.2749 8.7C10.1249 8.475 9.89994 8.025 9.67494 7.8C9.44994 7.5 8.99994 6.975 8.99994 6.975C8.88622 6.86096 8.73755 6.78834 8.57769 6.76875ZM12.0749 7.575C11.6999 7.5 11.6249 8.1 11.9999 8.1C14.0999 8.25 15.2999 9.675 15.2249 11.475C15.1499 11.85 15.7499 11.85 15.7499 11.475C15.8249 9.375 14.4749 7.65 12.0749 7.575ZM12.2999 9C11.9249 8.925 11.9249 9.525 12.2999 9.525C13.1999 9.525 13.6499 10.05 13.6499 10.95C13.7249 11.325 14.2499 11.325 14.2499 10.95C14.1749 9.75 13.4999 9 12.2999 9Z" fill="black"/>
</svg>
